<svg version="1.1" viewBox="0.0 0.0 167.45931758530185 171.12073490813648" fill="none" stroke="none" stroke-linecap="square" stroke-miterlimit="10" xmlns:xlink="http://www.w3.org/1999/xlink" xmlns="http://www.w3.org/2000/svg"><clipPath id="p.0"><path d="m0 0l167.45932 0l0 171.12073l-167.45932 0l0 -171.12073z" clip-rule="nonzero"/></clipPath><g clip-path="url(#p.0)"><path fill="#000000" fill-opacity="0.0" d="m0 0l167.45932 0l0 171.12073l-167.45932 0z" fill-rule="evenodd"/><path fill="#ffffff" d="m10.15748 26.88189l148.85039 0l0 117.196846l-148.85039 0z" fill-rule="evenodd"/><path stroke="#000000" stroke-width="1.0" stroke-linejoin="round" stroke-linecap="butt" d="m10.15748 26.88189l148.85039 0l0 117.196846l-148.85039 0z" fill-rule="evenodd"/><path fill="#cfe2f3" d="m76.09449 117.48294l16.97638 0l0 16.97638l-16.97638 0z" fill-rule="evenodd"/><path stroke="#000000" stroke-width="1.0" stroke-linejoin="round" stroke-linecap="butt" d="m76.09449 117.48294l16.97638 0l0 16.97638l-16.97638 0z" fill-rule="evenodd"/><path fill="#cfe2f3" d="m44.09449 37.48294l16.976376 0l0 16.976376l-16.976376 0z" fill-rule="evenodd"/><path stroke="#000000" stroke-width="1.0" stroke-linejoin="round" stroke-linecap="butt" d="m44.09449 37.48294l16.976376 0l0 16.976376l-16.976376 0z" fill-rule="evenodd"/><path fill="#cfe2f3" d="m108.09449 37.48294l16.97638 0l0 16.976376l-16.97638 0z" fill-rule="evenodd"/><path stroke="#000000" stroke-width="1.0" stroke-linejoin="round" stroke-linecap="butt" d="m108.09449 37.48294l16.97638 0l0 16.976376l-16.97638 0z" fill-rule="evenodd"/><path fill="#000000" fill-opacity="0.0" d="m84.58268 117.48294l0 -22.740158" fill-rule="evenodd"/><path stroke="#000000" stroke-width="1.0" stroke-linejoin="round" stroke-linecap="butt" d="m84.58268 117.48294l0 -18.950165" fill-rule="evenodd"/><path fill="#000000" stroke="#000000" stroke-width="1.0" stroke-linecap="butt" d="m84.58268 95.24278c0.9085083 0 1.6449966 0.73648834 1.6449966 1.6449966c0 0.9085083 -0.73648834 1.6450043 -1.6449966 1.6450043c-0.9085083 0 -1.6450043 -0.736496 -1.6450043 -1.6450043c0 -0.9085083 0.736496 -1.6449966 1.6450043 -1.6449966z" fill-rule="nonzero"/><path fill="#000000" fill-opacity="0.0" d="m52.582676 54.459316l0.44094467 20.062992" fill-rule="evenodd"/><path stroke="#000000" stroke-width="1.0" stroke-linejoin="round" stroke-linecap="butt" d="m52.582676 54.459316l0.44094467 20.062992" fill-rule="evenodd"/><path fill="#000000" fill-opacity="0.0" d="m53.02362 74.52231l21.858269 0" fill-rule="evenodd"/><path stroke="#000000" stroke-width="1.0" stroke-linejoin="round" stroke-linecap="butt" d="m53.02362 74.52231l18.431183 0" fill-rule="evenodd"/><path fill="#000000" stroke="#000000" stroke-width="1.0" stroke-linecap="butt" d="m71.4548 74.52231l-1.1245804 1.124588l3.0897675 -1.124588l-3.0897675 -1.1245804z" fill-rule="evenodd"/><path fill="#000000" fill-opacity="0.0" d="m52.582676 37.48294l0 -23.968506" fill-rule="evenodd"/><path stroke="#000000" stroke-width="1.0" stroke-linejoin="round" stroke-linecap="butt" d="m52.582676 37.48294l0 -20.178505" fill-rule="evenodd"/><path stroke="#000000" stroke-width="1.0" stroke-linecap="butt" d="m52.582676 14.014436c0.9085083 0 1.6450005 0.7364912 1.6450005 1.6449995c0 0.9085083 -0.73649216 1.6450005 -1.6450005 1.6450005c-0.9085083 0 -1.6450005 -0.73649216 -1.6450005 -1.6450005c0 -0.9085083 0.73649216 -1.6449995 1.6450005 -1.6449995z" fill-rule="nonzero"/><path fill="#000000" fill-opacity="0.0" d="m116.58268 37.48294l0 -25.165356" fill-rule="evenodd"/><path stroke="#000000" stroke-width="1.0" stroke-linejoin="round" stroke-linecap="butt" d="m116.58268 37.48294l0 -21.375357" fill-rule="evenodd"/><path stroke="#000000" stroke-width="1.0" stroke-linecap="butt" d="m116.58268 12.817585c0.9085083 0 1.6449966 0.73649216 1.6449966 1.6450005c0 0.9085083 -0.73648834 1.6450005 -1.6449966 1.6450005c-0.9085083 0 -1.6450043 -0.73649216 -1.6450043 -1.6450005c0 -0.9085083 0.736496 -1.6450005 1.6450043 -1.6450005z" fill-rule="nonzero"/><path fill="#000000" fill-opacity="0.0" d="m117.12908 54.459316l-0.4409485 20.062992" fill-rule="evenodd"/><path stroke="#000000" stroke-width="1.0" stroke-linejoin="round" stroke-linecap="butt" d="m117.12908 54.459316l-0.4409485 20.062992" fill-rule="evenodd"/><path fill="#000000" fill-opacity="0.0" d="m116.68813 74.52231l-21.858261 0" fill-rule="evenodd"/><path stroke="#000000" stroke-width="1.0" stroke-linejoin="round" stroke-linecap="butt" d="m116.68813 74.52231l-18.431183 0" fill-rule="evenodd"/><path fill="#000000" stroke="#000000" stroke-width="1.0" stroke-linecap="butt" d="m98.25696 74.52231l1.1245804 -1.1245804l-3.0897675 1.1245804l3.0897675 1.124588z" fill-rule="evenodd"/><path fill="#000000" fill-opacity="0.0" d="m84.35696 95.10236l14.078735 -28.18898" fill-rule="evenodd"/><path stroke="#000000" stroke-width="1.0" stroke-linejoin="round" stroke-linecap="butt" d="m84.35696 95.10236l14.078735 -28.18898" fill-rule="evenodd"/><path fill="#000000" fill-opacity="0.0" d="m13.511492 0.18895538l47.338585 0l0 25.606298l-47.338585 0z" fill-rule="evenodd"/><path fill="#000000" d="m29.436644 20.708956l0 -8.59375l1.15625 0l4.515627 6.75l0 -6.75l1.09375 0l0 8.59375l-1.171875 0l-4.515627 -6.75l0 6.75l-1.078125 0zm14.806643 -3.015625l1.125 0.296875q-0.359375 1.390625 -1.28125 2.125q-0.921875 0.734375 -2.265625 0.734375q-1.390625 0 -2.265625 -0.5625q-0.875 -0.5625 -1.328125 -1.625q-0.453125 -1.078125 -0.453125 -2.3125q0 -1.34375 0.515625 -2.34375q0.515625 -1.0 1.453125 -1.515625q0.953125 -0.515625 2.09375 -0.515625q1.28125 0 2.15625 0.65625q0.890625 0.65625 1.234375 1.84375l-1.125 0.265625q-0.296875 -0.9375 -0.875 -1.359375q-0.5625 -0.4375 -1.421875 -0.4375q-0.984375 0 -1.65625 0.484375q-0.65625 0.46875 -0.9375 1.265625q-0.265625 0.796875 -0.265625 1.65625q0 1.09375 0.3125 1.90625q0.328125 0.8125 1.0 1.21875q0.671875 0.40625 1.46875 0.40625q0.953125 0 1.609375 -0.546875q0.671875 -0.546875 0.90625 -1.640625z" fill-rule="nonzero"/><path fill="#000000" fill-opacity="0.0" d="m108.09449 0.18895538l47.338585 0l0 25.606298l-47.338585 0z" fill-rule="evenodd"/><path fill="#000000" d="m123.68565 20.708956l0 -8.59375l1.15625 0l4.515625 6.75l0 -6.75l1.09375 0l0 8.59375l-1.171875 0l-4.515625 -6.75l0 6.75l-1.078125 0zm8.322266 -4.1875q0 -2.140625 1.140625 -3.34375q1.15625 -1.21875 2.96875 -1.21875q1.203125 0 2.15625 0.578125q0.953125 0.5625 1.453125 1.578125q0.5 1.015625 0.5 2.3125q0 1.296875 -0.53125 2.328125q-0.53125 1.03125 -1.5 1.5625q-0.953125 0.53125 -2.078125 0.53125q-1.21875 0 -2.171875 -0.578125q-0.953125 -0.59375 -1.453125 -1.59375q-0.484375 -1.015625 -0.484375 -2.15625zm1.171875 0.015625q0 1.5625 0.828125 2.453125q0.84375 0.890625 2.109375 0.890625q1.28125 0 2.109375 -0.890625q0.828125 -0.90625 0.828125 -2.578125q0 -1.046875 -0.359375 -1.828125q-0.34375 -0.78125 -1.03125 -1.203125q-0.6875 -0.4375 -1.53125 -0.4375q-1.203125 0 -2.078125 0.828125q-0.875 0.828125 -0.875 2.765625z" fill-rule="nonzero"/><path fill="#000000" fill-opacity="0.0" d="m84.58268 134.45932l0 23.905502" fill-rule="evenodd"/><path stroke="#000000" stroke-width="1.0" stroke-linejoin="round" stroke-linecap="butt" d="m84.58268 134.45932l0 20.115509" fill-rule="evenodd"/><path stroke="#000000" stroke-width="1.0" stroke-linecap="butt" d="m84.58268 157.86482c-0.9085083 0 -1.6450043 -0.7364807 -1.6450043 -1.644989c0 -0.9085083 0.736496 -1.6450043 1.6450043 -1.6450043c0.9085083 0 1.6449966 0.736496 1.6449966 1.6450043c0 0.9085083 -0.73648834 1.644989 -1.6449966 1.644989z" fill-rule="nonzero"/><path fill="#000000" fill-opacity="0.0" d="m81.86777 135.98653l47.338577 0l0 25.606293l-47.338577 0z" fill-rule="evenodd"/><path fill="#000000" d="m98.60152 153.4909l1.125 0.296875q-0.359375 1.390625 -1.28125 2.125q-0.9218826 0.734375 -2.2656326 0.734375q-1.390625 0 -2.265625 -0.5625q-0.875 -0.5625 -1.328125 -1.625q-0.453125 -1.078125 -0.453125 -2.3125q0 -1.34375 0.515625 -2.34375q0.515625 -1.0 1.453125 -1.515625q0.953125 -0.515625 2.09375 -0.515625q1.28125 0 2.1562576 0.65625q0.890625 0.65625 1.234375 1.84375l-1.125 0.265625q-0.296875 -0.9375 -0.8750076 -1.359375q-0.5625 -0.4375 -1.421875 -0.4375q-0.984375 0 -1.65625 0.484375q-0.65625 0.46875 -0.9375 1.265625q-0.265625 0.796875 -0.265625 1.65625q0 1.09375 0.3125 1.90625q0.328125 0.8125 1.0 1.21875q0.671875 0.40625 1.46875 0.40625q0.953125 0 1.609375 -0.546875q0.6718826 -0.546875 0.9062576 -1.640625zm2.1816406 -1.171875q0 -2.140625 1.140625 -3.34375q1.15625 -1.21875 2.96875 -1.21875q1.203125 0 2.15625 0.578125q0.953125 0.5625 1.453125 1.578125q0.5 1.015625 0.5 2.3125q0 1.296875 -0.53125 2.328125q-0.53125 1.03125 -1.5 1.5625q-0.953125 0.53125 -2.078125 0.53125q-1.21875 0 -2.171875 -0.578125q-0.953125 -0.59375 -1.453125 -1.59375q-0.484375 -1.015625 -0.484375 -2.15625zm1.171875 0.015625q0 1.5625 0.828125 2.453125q0.84375 0.890625 2.109375 0.890625q1.28125 0 2.109375 -0.890625q0.828125 -0.90625 0.828125 -2.578125q0 -1.046875 -0.359375 -1.828125q-0.34375 -0.78125 -1.03125 -1.203125q-0.6875 -0.4375 -1.53125 -0.4375q-1.203125 0 -2.078125 0.828125q-0.875 0.828125 -0.875 2.765625zm8.474609 4.171875l0 -8.59375l1.71875 0l2.03125 6.078125q0.28125 0.859375 0.40625 1.28125q0.140625 -0.46875 0.453125 -1.375l2.0625 -5.984375l1.53125 0l0 8.59375l-1.09375 0l0 -7.1875l-2.5 7.1875l-1.03125 0l-2.484375 -7.3125l0 7.3125l-1.09375 0z" fill-rule="nonzero"/><defs><radialGradient id="p.1" gradientUnits="userSpaceOnUse" gradientTransform="matrix(3.19376804135825 0.0 0.0 3.19376804135825 0.0 0.0)" spreadMethod="pad" cx="44.82071953053261" cy="14.419485962022133" fx="44.82071953053261" fy="14.419485962022133" r="3.19376802444458"><stop offset="0.0" stop-color="#ff0000" stop-opacity="0.7921569"/><stop offset="0.25" stop-color="#cc0000" stop-opacity="0.84313726"/><stop offset="0.5" stop-color="#a00101" stop-opacity="0.89411765"/><stop offset="0.75" stop-color="#780202" stop-opacity="0.94509804"/><stop offset="1.0" stop-color="#540303"/></radialGradient></defs><path fill="url(#p.1)" d="m135.93439 46.052494l0 0c0 -3.98341 3.229187 -7.2126007 7.2126007 -7.2126007l0 0c1.9128876 0 3.7474518 0.75989914 5.100067 2.1125221c1.3526306 1.3526268 2.1125183 3.1871796 2.1125183 5.1000786l0 0c0 3.983406 -3.229187 7.212597 -7.2125854 7.212597l0 0c-3.9834137 0 -7.2126007 -3.2291908 -7.2126007 -7.212597z" fill-rule="evenodd"/></g></svg>