<svg version="1.1" viewBox="0.0 0.0 962.6666666666666 864.0" fill="none" stroke="none" stroke-linecap="square" stroke-miterlimit="10" xmlns:xlink="http://www.w3.org/1999/xlink" xmlns="http://www.w3.org/2000/svg"><clipPath id="p.0"><path d="m0 0l962.6667 0l0 864.0l-962.6667 0l0 -864.0z" clip-rule="nonzero"/></clipPath><g clip-path="url(#p.0)"><path fill="#000000" fill-opacity="0.0" d="m0 0l962.6667 0l0 864.0l-962.6667 0z" fill-rule="evenodd"/><path fill="#cc77ff" d="m396.88058 146.67192l106.68109 -55.538063l106.68112 55.538063l-106.68112 55.538055z" fill-rule="evenodd"/><path fill="#000000" d="m482.621 142.59192l0 -13.359375l2.703125 0l0 5.265625l5.28125 0l0 -5.265625l2.703125 0l0 13.359375l-2.703125 0l0 -5.84375l-5.28125 0l0 5.84375l-2.703125 0zm15.363586 -6.71875l-2.328125 -0.421875q0.40625 -1.40625 1.359375 -2.078125q0.953125 -0.671875 2.84375 -0.671875q1.703125 0 2.546875 0.40625q0.84375 0.40625 1.171875 1.03125q0.34375 0.625 0.34375 2.28125l-0.015625 3.0q0 1.265625 0.109375 1.875q0.125 0.609375 0.46875 1.296875l-2.53125 0q-0.109375 -0.25 -0.25 -0.75q-0.0625 -0.234375 -0.09375 -0.3125q-0.65625 0.640625 -1.40625 0.96875q-0.734375 0.3125 -1.59375 0.3125q-1.484375 0 -2.34375 -0.8125q-0.859375 -0.8125 -0.859375 -2.046875q0 -0.828125 0.390625 -1.46875q0.390625 -0.640625 1.09375 -0.96875q0.703125 -0.34375 2.03125 -0.609375q1.796875 -0.328125 2.484375 -0.625l0 -0.25q0 -0.75 -0.359375 -1.0625q-0.359375 -0.3125 -1.375 -0.3125q-0.6875 0 -1.078125 0.28125q-0.375 0.265625 -0.609375 0.9375zm3.421875 2.078125q-0.484375 0.15625 -1.5625 0.390625q-1.0625 0.21875 -1.390625 0.4375q-0.5 0.359375 -0.5 0.90625q0 0.53125 0.40625 0.9375q0.40625 0.390625 1.015625 0.390625q0.703125 0 1.328125 -0.46875q0.46875 -0.34375 0.609375 -0.84375q0.09375 -0.328125 0.09375 -1.25l0 -0.5zm7.703827 4.640625l-3.90625 -9.671875l2.6875 0l1.828125 4.9375l0.53125 1.640625q0.203125 -0.625 0.265625 -0.828125q0.125 -0.40625 0.265625 -0.8125l1.84375 -4.9375l2.625 0l-3.84375 9.671875l-2.296875 0zm13.313232 -3.078125l2.546875 0.421875q-0.484375 1.40625 -1.546875 2.140625q-1.0625 0.734375 -2.65625 0.734375q-2.515625 0 -3.734375 -1.65625q-0.953125 -1.3125 -0.953125 -3.328125q0 -2.40625 1.25 -3.765625q1.265625 -1.359375 3.1875 -1.359375q2.15625 0 3.40625 1.421875q1.25 1.421875 1.1875 4.375l-6.40625 0q0.03125 1.140625 0.609375 1.78125q0.59375 0.625 1.484375 0.625q0.59375 0 1.0 -0.328125q0.421875 -0.328125 0.625 -1.0625zm0.15625 -2.59375q-0.03125 -1.109375 -0.578125 -1.6875q-0.546875 -0.578125 -1.328125 -0.578125q-0.84375 0 -1.390625 0.609375q-0.546875 0.609375 -0.53125 1.65625l3.828125 0z" fill-rule="nonzero"/><path fill="#000000" d="m469.48993 160.24817l2.625 -0.25q0.234375 1.3125 0.953125 1.9375q0.734375 0.609375 1.96875 0.609375q1.296875 0 1.953125 -0.546875q0.671875 -0.546875 0.671875 -1.28125q0 -0.484375 -0.28125 -0.8125q-0.28125 -0.328125 -0.96875 -0.578125q-0.484375 -0.15625 -2.171875 -0.578125q-2.15625 -0.546875 -3.03125 -1.328125q-1.234375 -1.09375 -1.234375 -2.6875q0 -1.015625 0.578125 -1.90625q0.578125 -0.890625 1.65625 -1.34375q1.09375 -0.46875 2.640625 -0.46875q2.515625 0 3.78125 1.109375q1.28125 1.09375 1.34375 2.9375l-2.703125 0.109375q-0.171875 -1.03125 -0.75 -1.46875q-0.5625 -0.453125 -1.703125 -0.453125q-1.171875 0 -1.84375 0.46875q-0.421875 0.3125 -0.421875 0.84375q0 0.46875 0.40625 0.796875q0.5 0.4375 2.46875 0.90625q1.96875 0.453125 2.90625 0.953125q0.953125 0.5 1.484375 1.359375q0.53125 0.859375 0.53125 2.125q0 1.15625 -0.640625 2.15625q-0.640625 1.0 -1.8125 1.484375q-1.15625 0.484375 -2.890625 0.484375q-2.53125 0 -3.890625 -1.171875q-1.359375 -1.171875 -1.625 -3.40625zm18.709198 1.265625l2.546875 0.421875q-0.484375 1.40625 -1.546875 2.140625q-1.0625 0.734375 -2.65625 0.734375q-2.515625 0 -3.734375 -1.65625q-0.953125 -1.3125 -0.953125 -3.328125q0 -2.40625 1.25 -3.765625q1.265625 -1.359375 3.1875 -1.359375q2.15625 0 3.40625 1.421875q1.25 1.421875 1.1875 4.375l-6.40625 0q0.03125 1.140625 0.609375 1.78125q0.59375 0.625 1.484375 0.625q0.59375 0 1.0 -0.328125q0.421875 -0.328125 0.625 -1.0625zm0.15625 -2.59375q-0.03125 -1.109375 -0.578125 -1.6875q-0.546875 -0.578125 -1.328125 -0.578125q-0.84375 0 -1.390625 0.609375q-0.546875 0.609375 -0.53125 1.65625l3.828125 0zm7.0788574 5.671875l-2.5625 0l0 -9.671875l2.375 0l0 1.375q0.609375 -0.984375 1.09375 -1.28125q0.484375 -0.3125 1.109375 -0.3125q0.875 0 1.6875 0.484375l-0.796875 2.234375q-0.640625 -0.421875 -1.203125 -0.421875q-0.53125 0 -0.90625 0.296875q-0.375 0.296875 -0.59375 1.078125q-0.203125 0.765625 -0.203125 3.234375l0 2.984375zm7.463379 0l-3.90625 -9.671875l2.6875 0l1.828125 4.9375l0.53125 1.640625q0.203125 -0.625 0.265625 -0.828125q0.125 -0.40625 0.265625 -0.8125l1.84375 -4.9375l2.625 0l-3.84375 9.671875l-2.296875 0zm13.313202 -3.078125l2.546875 0.421875q-0.484375 1.40625 -1.546875 2.140625q-1.0625 0.734375 -2.65625 0.734375q-2.515625 0 -3.7343445 -1.65625q-0.953125 -1.3125 -0.953125 -3.328125q0 -2.40625 1.25 -3.765625q1.2655945 -1.359375 3.1874695 -1.359375q2.15625 0 3.40625 1.421875q1.25 1.421875 1.1875 4.375l-6.40625 0q0.03125 1.140625 0.609375 1.78125q0.59375 0.625 1.484375 0.625q0.59375 0 1.0 -0.328125q0.421875 -0.328125 0.625 -1.0625zm0.15625 -2.59375q-0.03125 -1.109375 -0.578125 -1.6875q-0.546875 -0.578125 -1.328125 -0.578125q-0.84375 0 -1.390625 0.609375q-0.546875 0.609375 -0.53125 1.65625l3.828125 0zm7.0788574 5.671875l-2.5625 0l0 -9.671875l2.375 0l0 1.375q0.609375 -0.984375 1.09375 -1.28125q0.484375 -0.3125 1.109375 -0.3125q0.875 0 1.6875 0.484375l-0.796875 2.234375q-0.640625 -0.421875 -1.203125 -0.421875q-0.53125 0 -0.90625 0.296875q-0.375 0.296875 -0.59375 1.078125q-0.203125 0.765625 -0.203125 3.234375l0 2.984375zm10.307129 -3.4375l-2.328125 0q0 -0.5 0 -0.609375q0 -1.140625 0.359375 -1.859375q0.375 -0.734375 1.5 -1.640625q1.125 -0.921875 1.34375 -1.203125q0.328125 -0.4375 0.328125 -0.984375q0 -0.734375 -0.59375 -1.265625q-0.59375 -0.546875 -1.609375 -0.546875q-0.96875 0 -1.625 0.5625q-0.65625 0.546875 -0.90625 1.6875l-2.34375 -0.28125q0.09375 -1.640625 1.375 -2.765625q1.296875 -1.140625 3.390625 -1.140625q2.203125 0 3.5 1.15625q1.3125 1.140625 1.3125 2.671875q0 0.84375 -0.484375 1.609375q-0.46875 0.75 -2.03125 2.046875q-0.8125 0.6875 -1.015625 1.09375q-0.1875 0.40625 -0.171875 1.46875zm-2.328125 3.4375l0 -2.5625l2.5625 0l0 2.5625l-2.5625 0z" fill-rule="nonzero"/><path fill="#cc77ff" d="m703.73883 209.4042l177.40424 0l0 106.28082l-177.40424 0z" fill-rule="evenodd"/><path fill="#000000" d="m723.7658 269.46463l0 -13.359375l2.6875 0l0 13.359375l-2.6875 0zm14.042664 0l-2.5625 0l0 -4.9375q0 -1.5625 -0.171875 -2.015625q-0.15625 -0.46875 -0.53125 -0.71875q-0.359375 -0.265625 -0.875 -0.265625q-0.671875 0 -1.203125 0.375q-0.53125 0.359375 -0.734375 0.96875q-0.1875 0.59375 -0.1875 2.21875l0 4.375l-2.546875 0l0 -9.671875l2.375 0l0 1.421875q1.265625 -1.640625 3.1875 -1.640625q0.84375 0 1.546875 0.3125q0.703125 0.296875 1.0625 0.78125q0.359375 0.46875 0.5 1.078125q0.140625 0.59375 0.140625 1.703125l0 6.015625zm1.6928711 -2.765625l2.5625 -0.390625q0.171875 0.75 0.671875 1.140625q0.5 0.390625 1.40625 0.390625q0.984375 0 1.484375 -0.375q0.34375 -0.25 0.34375 -0.671875q0 -0.296875 -0.1875 -0.484375q-0.1875 -0.1875 -0.859375 -0.34375q-3.09375 -0.6875 -3.921875 -1.25q-1.140625 -0.78125 -1.140625 -2.171875q0 -1.265625 0.984375 -2.109375q1.0 -0.859375 3.078125 -0.859375q1.984375 0 2.953125 0.65625q0.96875 0.640625 1.328125 1.90625l-2.40625 0.4375q-0.15625 -0.5625 -0.59375 -0.859375q-0.421875 -0.296875 -1.234375 -0.296875q-1.0 0 -1.4375 0.28125q-0.296875 0.203125 -0.296875 0.515625q0 0.265625 0.25 0.46875q0.34375 0.25 2.390625 0.71875q2.046875 0.453125 2.859375 1.140625q0.796875 0.671875 0.796875 1.890625q0 1.34375 -1.109375 2.296875q-1.109375 0.953125 -3.28125 0.953125q-1.984375 0 -3.140625 -0.796875q-1.140625 -0.8125 -1.5 -2.1875zm15.719482 -6.90625l0 2.03125l-1.75 0l0 3.90625q0 1.1875 0.046875 1.390625q0.046875 0.1875 0.21875 0.3125q0.1875 0.125 0.4375 0.125q0.359375 0 1.03125 -0.25l0.21875 2.0q-0.890625 0.375 -2.015625 0.375q-0.703125 0 -1.265625 -0.234375q-0.546875 -0.234375 -0.8125 -0.59375q-0.25 -0.375 -0.34375 -1.0q-0.09375 -0.453125 -0.09375 -1.8125l0 -4.21875l-1.171875 0l0 -2.03125l1.171875 0l0 -1.921875l2.578125 -1.5l0 3.421875l1.75 0zm3.6813965 2.953125l-2.328125 -0.421875q0.40625 -1.40625 1.359375 -2.078125q0.953125 -0.671875 2.84375 -0.671875q1.703125 0 2.546875 0.40625q0.84375 0.40625 1.171875 1.03125q0.34375 0.625 0.34375 2.28125l-0.015625 3.0q0 1.265625 0.109375 1.875q0.125 0.609375 0.46875 1.296875l-2.53125 0q-0.109375 -0.25 -0.25 -0.75q-0.0625 -0.234375 -0.09375 -0.3125q-0.65625 0.640625 -1.40625 0.96875q-0.734375 0.3125 -1.59375 0.3125q-1.484375 0 -2.34375 -0.8125q-0.859375 -0.8125 -0.859375 -2.046875q0 -0.828125 0.390625 -1.46875q0.390625 -0.640625 1.09375 -0.96875q0.703125 -0.34375 2.03125 -0.609375q1.796875 -0.328125 2.484375 -0.625l0 -0.25q0 -0.75 -0.359375 -1.0625q-0.359375 -0.3125 -1.375 -0.3125q-0.6875 0 -1.078125 0.28125q-0.375 0.265625 -0.609375 0.9375zm3.421875 2.078125q-0.484375 0.15625 -1.5625 0.390625q-1.0625 0.21875 -1.390625 0.4375q-0.5 0.359375 -0.5 0.90625q0 0.53125 0.40625 0.9375q0.40625 0.390625 1.015625 0.390625q0.703125 0 1.328125 -0.46875q0.46875 -0.34375 0.609375 -0.84375q0.09375 -0.328125 0.09375 -1.25l0 -0.5zm5.0476074 4.640625l0 -13.359375l2.5625 0l0 13.359375l-2.5625 0zm5.1832886 0l0 -13.359375l2.5625 0l0 13.359375l-2.5625 0zm9.772888 -4.96875q0 -1.28125 0.625 -2.46875q0.625 -1.203125 1.78125 -1.828125q1.15625 -0.625 2.578125 -0.625q2.1875 0 3.59375 1.421875q1.40625 1.421875 1.40625 3.609375q0 2.1875 -1.421875 3.640625q-1.421875 1.4375 -3.5625 1.4375q-1.328125 0 -2.546875 -0.59375q-1.203125 -0.609375 -1.828125 -1.765625q-0.625 -1.171875 -0.625 -2.828125zm2.625 0.125q0 1.453125 0.671875 2.21875q0.6875 0.75 1.6875 0.75q1.0 0 1.671875 -0.75q0.6875 -0.765625 0.6875 -2.234375q0 -1.421875 -0.6875 -2.1875q-0.671875 -0.765625 -1.671875 -0.765625q-1.0 0 -1.6875 0.765625q-0.671875 0.765625 -0.671875 2.203125zm18.161621 4.84375l-2.5625 0l0 -4.9375q0 -1.5625 -0.171875 -2.015625q-0.15625 -0.46875 -0.53125 -0.71875q-0.359375 -0.265625 -0.875 -0.265625q-0.671875 0 -1.203125 0.375q-0.53125 0.359375 -0.734375 0.96875q-0.1875 0.59375 -0.1875 2.21875l0 4.375l-2.546875 0l0 -9.671875l2.375 0l0 1.421875q1.265625 -1.640625 3.1875 -1.640625q0.84375 0 1.546875 0.3125q0.703125 0.296875 1.0625 0.78125q0.359375 0.46875 0.5 1.078125q0.140625 0.59375 0.140625 1.703125l0 6.015625zm16.34491 -4.90625l2.609375 0.828125q-0.59375 2.1875 -2.0 3.25q-1.390625 1.0625 -3.546875 1.0625q-2.65625 0 -4.375 -1.8125q-1.703125 -1.828125 -1.703125 -4.984375q0 -3.328125 1.71875 -5.171875q1.71875 -1.8437653 4.515625 -1.8437653q2.453125 0 3.984375 1.4375153q0.921875 0.859375 1.375 2.46875l-2.671875 0.640625q-0.234375 -1.046875 -0.984375 -1.640625q-0.75 -0.609375 -1.828125 -0.609375q-1.484375 0 -2.421875 1.078125q-0.921875 1.0625 -0.921875 3.4375q0 2.53125 0.90625 3.609375q0.921875 1.078125 2.375 1.078125q1.078125 0 1.84375 -0.671875q0.78125 -0.6875 1.125 -2.15625zm4.9104004 4.90625l0 -13.359375l2.5625 0l0 13.359375l-2.5625 0zm4.5895996 -4.96875q0 -1.28125 0.625 -2.46875q0.625 -1.203125 1.78125 -1.828125q1.15625 -0.625 2.578125 -0.625q2.1875 0 3.59375 1.421875q1.40625 1.421875 1.40625 3.609375q0 2.1875 -1.421875 3.640625q-1.421875 1.4375 -3.5625 1.4375q-1.328125 0 -2.546875 -0.59375q-1.203125 -0.609375 -1.828125 -1.765625q-0.625 -1.171875 -0.625 -2.828125zm2.625 0.125q0 1.453125 0.671875 2.21875q0.6875 0.75 1.6875 0.75q1.0 0 1.671875 -0.75q0.6875 -0.765625 0.6875 -2.234375q0 -1.421875 -0.6875 -2.1875q-0.671875 -0.765625 -1.671875 -0.765625q-1.0 0 -1.6875 0.765625q-0.671875 0.765625 -0.671875 2.203125zm15.72406 4.84375l0 -1.453125q-0.53125 0.78125 -1.390625 1.234375q-0.859375 0.4375 -1.8125 0.4375q-0.96875 0 -1.75 -0.421875q-0.765625 -0.4375 -1.125 -1.203125q-0.34375 -0.78125 -0.34375 -2.140625l0 -6.125l2.5625 0l0 4.4375q0 2.046875 0.140625 2.515625q0.140625 0.453125 0.515625 0.71875q0.375 0.265625 0.953125 0.265625q0.65625 0 1.171875 -0.359375q0.515625 -0.359375 0.703125 -0.890625q0.203125 -0.53125 0.203125 -2.609375l0 -4.078125l2.546875 0l0 9.671875l-2.375 0zm13.911621 0l-2.390625 0l0 -1.421875q-0.59375 0.828125 -1.40625 1.234375q-0.796875 0.40625 -1.609375 0.40625q-1.671875 0 -2.859375 -1.34375q-1.1875 -1.34375 -1.1875 -3.75q0 -2.453125 1.15625 -3.734375q1.15625 -1.28125 2.921875 -1.28125q1.625 0 2.8125 1.34375l0 -4.8125l2.5625 0l0 13.359375zm-6.84375 -5.046875q0 1.546875 0.4375 2.234375q0.609375 1.015625 1.71875 1.015625q0.890625 0 1.5 -0.75q0.625 -0.765625 0.625 -2.25q0 -1.671875 -0.609375 -2.40625q-0.59375 -0.734375 -1.53125 -0.734375q-0.90625 0 -1.53125 0.734375q-0.609375 0.71875 -0.609375 2.15625z" fill-rule="nonzero"/><path fill="#33cc99" d="m607.84644 405.18634l0 0c0 -5.296692 4.2938843 -9.590546 9.590576 -9.590546l87.08661 0c2.543579 0 4.982971 1.010437 6.781555 2.809021c1.798584 1.798584 2.809021 4.237976 2.809021 6.7815247l0 38.362213c0 5.2967224 -4.2938843 9.590546 -9.590576 9.590546l-87.08661 0c-5.296692 0 -9.590576 -4.2938232 -9.590576 -9.590546z" fill-rule="evenodd"/><path fill="#000000" d="m633.8628 431.28745l0 -13.359375l2.703125 0l0 5.9375l5.4375 -5.9375l3.625 0l-5.015625 5.203125l5.296875 8.15625l-3.484375 0l-3.671875 -6.265625l-2.1875 2.234375l0 4.03125l-2.703125 0zm12.832275 -4.96875q0 -1.28125 0.625 -2.46875q0.625 -1.203125 1.78125 -1.828125q1.15625 -0.625 2.578125 -0.625q2.1875 0 3.59375 1.421875q1.40625 1.421875 1.40625 3.609375q0 2.1875 -1.421875 3.640625q-1.421875 1.4375 -3.5625 1.4375q-1.328125 0 -2.546875 -0.59375q-1.203125 -0.609375 -1.828125 -1.765625q-0.625 -1.171875 -0.625 -2.828125zm2.625 0.125q0 1.453125 0.671875 2.21875q0.6875 0.75 1.6875 0.75q1.0 0 1.671875 -0.75q0.6875 -0.765625 0.6875 -2.234375q0 -1.421875 -0.6875 -2.1875q-0.671875 -0.765625 -1.671875 -0.765625q-1.0 0 -1.6875 0.765625q-0.671875 0.765625 -0.671875 2.203125zm8.145996 -4.828125l2.71875 0l2.328125 6.859375l2.25 -6.859375l2.65625 0l-3.421875 9.3125l-0.609375 1.6875q-0.328125 0.84375 -0.640625 1.28125q-0.3125 0.453125 -0.703125 0.71875q-0.390625 0.28125 -0.96875 0.4375q-0.578125 0.15625 -1.3125 0.15625q-0.734375 0 -1.453125 -0.15625l-0.21875 -2.0q0.59375 0.125 1.078125 0.125q0.890625 0 1.3125 -0.53125q0.4375 -0.515625 0.671875 -1.328125l-3.6875 -9.703125zm17.188232 6.59375l2.546875 0.421875q-0.484375 1.40625 -1.546875 2.140625q-1.0625 0.734375 -2.65625 0.734375q-2.515625 0 -3.734375 -1.65625q-0.953125 -1.3125 -0.953125 -3.328125q0 -2.40625 1.25 -3.765625q1.265625 -1.359375 3.1875 -1.359375q2.15625 0 3.40625 1.421875q1.25 1.421875 1.1875 4.375l-6.40625 0q0.03125 1.140625 0.609375 1.78125q0.59375 0.625 1.484375 0.625q0.59375 0 1.0 -0.328125q0.421875 -0.328125 0.625 -1.0625zm0.15625 -2.59375q-0.03125 -1.109375 -0.578125 -1.6875q-0.546875 -0.578125 -1.328125 -0.578125q-0.84375 0 -1.390625 0.609375q-0.546875 0.609375 -0.53125 1.65625l3.828125 0zm4.5163574 5.671875l0 -13.359375l2.5625 0l0 4.8125q1.171875 -1.34375 2.796875 -1.34375q1.765625 0 2.921875 1.28125q1.15625 1.28125 1.15625 3.671875q0 2.484375 -1.1875 3.828125q-1.171875 1.328125 -2.859375 1.328125q-0.828125 0 -1.640625 -0.40625q-0.796875 -0.421875 -1.375 -1.234375l0 1.421875l-2.375 0zm2.53125 -5.046875q0 1.5 0.484375 2.21875q0.65625 1.03125 1.765625 1.03125q0.84375 0 1.4375 -0.71875q0.59375 -0.734375 0.59375 -2.296875q0 -1.65625 -0.609375 -2.390625q-0.59375 -0.734375 -1.53125 -0.734375q-0.921875 0 -1.53125 0.71875q-0.609375 0.71875 -0.609375 2.171875z" fill-rule="nonzero"/><path fill="#88ccff" d="m718.9409 485.11548l0 0c0 -5.2967224 4.2938843 -9.590546 9.590576 -9.590546l87.08661 0c2.543579 0 4.982971 1.010437 6.781555 2.809021c1.798584 1.7985535 2.809021 4.2379456 2.809021 6.7815247l0 38.362183c0 5.296753 -4.2938843 9.590576 -9.590576 9.590576l-87.08661 0c-5.296692 0 -9.590576 -4.2938232 -9.590576 -9.590576z" fill-rule="evenodd"/><path fill="#000000" d="m744.9149 486.8572l4.9375 0q1.65625 0 2.53125 0.265625q1.1875 0.34375 2.015625 1.234375q0.84375 0.875 1.28125 2.15625q0.4375 1.28125 0.4375 3.15625q0 1.640625 -0.40625 2.84375q-0.5 1.453125 -1.4375 2.359375q-0.703125 0.671875 -1.890625 1.0625q-0.890625 0.28125 -2.390625 0.28125l-5.078125 0l0 -13.359375zm2.703125 2.265625l0 8.84375l2.015625 0q1.125 0 1.625 -0.125q0.65625 -0.171875 1.078125 -0.5625q0.4375 -0.390625 0.703125 -1.28125q0.28125 -0.90625 0.28125 -2.453125q0 -1.546875 -0.28125 -2.375q-0.265625 -0.828125 -0.765625 -1.28125q-0.484375 -0.46875 -1.234375 -0.640625q-0.5625 -0.125 -2.21875 -0.125l-1.203125 0zm10.769836 0.109375l0 -2.375l2.5625 0l0 2.375l-2.5625 0zm0 10.984375l0 -9.671875l2.5625 0l0 9.671875l-2.5625 0zm4.9489136 0.640625l2.921875 0.359375q0.0625 0.5 0.328125 0.6875q0.375 0.28125 1.15625 0.28125q1.0 0 1.5 -0.296875q0.328125 -0.203125 0.515625 -0.65625q0.109375 -0.3125 0.109375 -1.171875l0 -1.40625q-1.140625 1.5625 -2.890625 1.5625q-1.953125 0 -3.09375 -1.65625q-0.890625 -1.296875 -0.890625 -3.234375q0 -2.4375 1.171875 -3.71875q1.171875 -1.28125 2.90625 -1.28125q1.796875 0 2.96875 1.578125l0 -1.359375l2.390625 0l0 8.671875q0 1.71875 -0.28125 2.5625q-0.28125 0.84375 -0.796875 1.328125q-0.5 0.484375 -1.359375 0.75q-0.84375 0.28125 -2.15625 0.28125q-2.453125 0 -3.484375 -0.84375q-1.03125 -0.84375 -1.03125 -2.125q0 -0.140625 0.015625 -0.3125zm2.28125 -5.671875q0 1.53125 0.59375 2.25q0.59375 0.71875 1.46875 0.71875q0.9375 0 1.578125 -0.734375q0.65625 -0.734375 0.65625 -2.171875q0 -1.515625 -0.625 -2.234375q-0.609375 -0.734375 -1.5625 -0.734375q-0.921875 0 -1.515625 0.71875q-0.59375 0.71875 -0.59375 2.1875zm9.349121 -5.953125l0 -2.375l2.5625 0l0 2.375l-2.5625 0zm0 10.984375l0 -9.671875l2.5625 0l0 9.671875l-2.5625 0zm9.620789 -9.671875l0 2.03125l-1.75 0l0 3.90625q0 1.1875 0.046875 1.390625q0.046875 0.1875 0.21875 0.3125q0.1875 0.125 0.4375 0.125q0.359375 0 1.03125 -0.25l0.21875 2.0q-0.890625 0.375 -2.015625 0.375q-0.703125 0 -1.265625 -0.234375q-0.546875 -0.234375 -0.8125 -0.59375q-0.25 -0.375 -0.34375 -1.0q-0.09375 -0.453125 -0.09375 -1.8125l0 -4.21875l-1.171875 0l0 -2.03125l1.171875 0l0 -1.921875l2.578125 -1.5l0 3.421875l1.75 0zm3.6814575 2.953125l-2.328125 -0.421875q0.40625 -1.40625 1.359375 -2.078125q0.953125 -0.671875 2.84375 -0.671875q1.703125 0 2.546875 0.40625q0.84375 0.40625 1.171875 1.03125q0.34375 0.625 0.34375 2.28125l-0.015625 3.0q0 1.265625 0.109375 1.875q0.125 0.609375 0.46875 1.296875l-2.53125 0q-0.109375 -0.25 -0.25 -0.75q-0.0625 -0.234375 -0.09375 -0.3125q-0.65625 0.640625 -1.40625 0.96875q-0.734375 0.3125 -1.59375 0.3125q-1.484375 0 -2.34375 -0.8125q-0.859375 -0.8125 -0.859375 -2.046875q0 -0.828125 0.390625 -1.46875q0.390625 -0.640625 1.09375 -0.96875q0.703125 -0.34375 2.03125 -0.609375q1.796875 -0.328125 2.484375 -0.625l0 -0.25q0 -0.75 -0.359375 -1.0625q-0.359375 -0.3125 -1.375 -0.3125q-0.6875 0 -1.078125 0.28125q-0.375 0.265625 -0.609375 0.9375zm3.421875 2.078125q-0.484375 0.15625 -1.5625 0.390625q-1.0625 0.21875 -1.390625 0.4375q-0.5 0.359375 -0.5 0.90625q0 0.53125 0.40625 0.9375q0.40625 0.390625 1.015625 0.390625q0.703125 0 1.328125 -0.46875q0.46875 -0.34375 0.609375 -0.84375q0.09375 -0.328125 0.09375 -1.25l0 -0.5zm5.0476074 4.640625l0 -13.359375l2.5625 0l0 13.359375l-2.5625 0z" fill-rule="nonzero"/><path fill="#000000" d="m744.37 515.62286q0 -2.046875 0.609375 -3.421875q0.453125 -1.0312805 1.234375 -1.8281555q0.796875 -0.8125 1.734375 -1.203125q1.25 -0.53125 2.875 -0.53125q2.953125 0 4.71875 1.828125q1.78125 1.8281555 1.78125 5.0937805q0 3.234375 -1.765625 5.0625q-1.75 1.828125 -4.6875 1.828125q-2.984375 0 -4.75 -1.8125q-1.75 -1.828125 -1.75 -5.015625zm2.78125 -0.09375q0 2.265625 1.046875 3.4375q1.046875 1.171875 2.65625 1.171875q1.609375 0 2.640625 -1.15625q1.046875 -1.171875 1.046875 -3.484375q0 -2.296875 -1.015625 -3.421875q-1.0 -1.1406555 -2.671875 -1.1406555q-1.671875 0 -2.6875 1.1562805q-1.015625 1.140625 -1.015625 3.4375zm20.698975 -0.125l-2.53125 0.453125q-0.125 -0.75 -0.578125 -1.125q-0.453125 -0.390625 -1.171875 -0.390625q-0.953125 0 -1.53125 0.65625q-0.5625 0.65625 -0.5625 2.203125q0 1.734375 0.578125 2.4375q0.578125 0.703125 1.546875 0.703125q0.734375 0 1.203125 -0.40625q0.46875 -0.421875 0.65625 -1.421875l2.515625 0.421875q-0.390625 1.734375 -1.515625 2.625q-1.109375 0.875 -2.96875 0.875q-2.125 0 -3.390625 -1.328125q-1.25 -1.34375 -1.25 -3.71875q0 -2.390625 1.265625 -3.71875q1.265625 -1.34375 3.421875 -1.34375q1.765625 0 2.796875 0.765625q1.046875 0.75 1.515625 2.3125zm7.5319214 3.734375l2.546875 0.421875q-0.484375 1.40625 -1.546875 2.140625q-1.0625 0.734375 -2.65625 0.734375q-2.515625 0 -3.734375 -1.65625q-0.953125 -1.3125 -0.953125 -3.328125q0 -2.40625 1.25 -3.765625q1.265625 -1.359375 3.1875 -1.359375q2.15625 0 3.40625 1.421875q1.25 1.421875 1.1875 4.375l-6.40625 0q0.03125 1.140625 0.609375 1.78125q0.59375 0.625 1.484375 0.625q0.59375 0 1.0 -0.328125q0.421875 -0.328125 0.625 -1.0625zm0.15625 -2.59375q-0.03125 -1.109375 -0.578125 -1.6875q-0.546875 -0.578125 -1.328125 -0.578125q-0.84375 0 -1.390625 0.609375q-0.546875 0.609375 -0.53125 1.65625l3.828125 0zm6.5319824 -1.046875l-2.328125 -0.421875q0.40625 -1.40625 1.359375 -2.078125q0.953125 -0.671875 2.84375 -0.671875q1.703125 0 2.546875 0.40625q0.84375 0.40625 1.171875 1.03125q0.34375 0.625 0.34375 2.28125l-0.015625 3.0q0 1.265625 0.109375 1.875q0.125 0.609375 0.46875 1.296875l-2.53125 0q-0.109375 -0.25 -0.25 -0.75q-0.0625 -0.234375 -0.09375 -0.3125q-0.65625 0.640625 -1.40625 0.96875q-0.734375 0.3125 -1.59375 0.3125q-1.484375 0 -2.34375 -0.8125q-0.859375 -0.8125 -0.859375 -2.046875q0 -0.828125 0.390625 -1.46875q0.390625 -0.640625 1.09375 -0.96875q0.703125 -0.34375 2.03125 -0.609375q1.796875 -0.328125 2.484375 -0.625l0 -0.25q0 -0.75 -0.359375 -1.0625q-0.359375 -0.3125 -1.375 -0.3125q-0.6875 0 -1.078125 0.28125q-0.375 0.265625 -0.609375 0.9375zm3.421875 2.078125q-0.484375 0.15625 -1.5625 0.390625q-1.0625 0.21875 -1.390625 0.4375q-0.5 0.359375 -0.5 0.90625q0 0.53125 0.40625 0.9375q0.40625 0.390625 1.015625 0.390625q0.703125 0 1.328125 -0.46875q0.46875 -0.34375 0.609375 -0.84375q0.09375 -0.328125 0.09375 -1.25l0 -0.5zm13.844482 4.640625l-2.5625 0l0 -4.9375q0 -1.5625 -0.171875 -2.015625q-0.15625 -0.46875 -0.53125 -0.71875q-0.359375 -0.265625 -0.875 -0.265625q-0.671875 0 -1.203125 0.375q-0.53125 0.359375 -0.734375 0.96875q-0.1875 0.59375 -0.1875 2.21875l0 4.375l-2.546875 0l0 -9.671875l2.375 0l0 1.421875q1.265625 -1.640625 3.1875 -1.640625q0.84375 0 1.546875 0.3125q0.703125 0.296875 1.0625 0.78125q0.359375 0.46875 0.5 1.078125q0.140625 0.59375 0.140625 1.703125l0 6.015625z" fill-rule="nonzero"/><path fill="#ff7700" d="m834.03284 405.18634l0 0c0 -5.296692 4.2938232 -9.590546 9.590515 -9.590546l87.08661 0c2.543579 0 4.982971 1.010437 6.781555 2.809021c1.798584 1.798584 2.809021 4.237976 2.809021 6.7815247l0 38.362213c0 5.2967224 -4.2938232 9.590546 -9.590576 9.590546l-87.08661 0c-5.296692 0 -9.590515 -4.2938232 -9.590515 -9.590546z" fill-rule="evenodd"/><path fill="#000000" d="m874.5152 426.3812l0 -2.25l5.8125 0l0 5.3125q-0.84375 0.828125 -2.453125 1.453125q-1.609375 0.625 -3.25 0.625q-2.09375 0 -3.65625 -0.875q-1.5625 -0.890625 -2.34375 -2.515625q-0.78125 -1.640625 -0.78125 -3.5625q0 -2.09375 0.875 -3.703125q0.875 -1.625 2.5625 -2.5q1.28125 -0.65625 3.203125 -0.65625q2.484375 0 3.875 1.046875q1.40625 1.03125 1.796875 2.875l-2.671875 0.5q-0.28125 -0.984375 -1.0625 -1.546875q-0.78125 -0.578125 -1.9375 -0.578125q-1.78125 0 -2.828125 1.125q-1.03125 1.125 -1.03125 3.328125q0 2.375 1.046875 3.5625q1.0625 1.1875 2.78125 1.1875q0.84375 0 1.6875 -0.328125q0.859375 -0.328125 1.46875 -0.8125l0 -1.6875l-3.09375 0zm16.855164 0l2.609375 0.828125q-0.59375 2.1875 -2.0 3.25q-1.390625 1.0625 -3.546875 1.0625q-2.65625 0 -4.375 -1.8125q-1.703125 -1.828125 -1.703125 -4.984375q0 -3.328125 1.71875 -5.171875q1.71875 -1.84375 4.515625 -1.84375q2.453125 0 3.984375 1.4375q0.921875 0.859375 1.375 2.46875l-2.671875 0.640625q-0.234375 -1.046875 -0.984375 -1.640625q-0.75 -0.609375 -1.828125 -0.609375q-1.484375 0 -2.421875 1.078125q-0.921875 1.0625 -0.921875 3.4375q0 2.53125 0.90625 3.609375q0.921875 1.078125 2.375 1.078125q1.078125 0 1.84375 -0.671875q0.78125 -0.6875 1.125 -2.15625zm4.9260864 4.90625l0 -13.359375l4.328125 0q2.453125 0 3.203125 0.203125q1.140625 0.296875 1.921875 1.3125q0.78125 1.0 0.78125 2.59375q0 1.234375 -0.453125 2.078125q-0.453125 0.828125 -1.140625 1.3125q-0.6875 0.46875 -1.390625 0.625q-0.96875 0.203125 -2.796875 0.203125l-1.765625 0l0 5.03125l-2.6875 0zm2.6875 -11.09375l0 3.78125l1.484375 0q1.59375 0 2.125 -0.203125q0.546875 -0.203125 0.84375 -0.65625q0.3125 -0.453125 0.3125 -1.03125q0 -0.734375 -0.4375 -1.203125q-0.421875 -0.484375 -1.078125 -0.59375q-0.484375 -0.09375 -1.9375 -0.09375l-1.3125 0z" fill-rule="nonzero"/><path fill="#cc77ff" d="m160.35826 262.54462l106.68111 -55.538055l106.68109 55.538055l-106.68109 55.538055z" fill-rule="evenodd"/><path fill="#000000" d="m246.0987 258.46463l0 -13.35939l2.703125 0l0 5.265625l5.28125 0l0 -5.265625l2.703125 0l0 13.35939l-2.703125 0l0 -5.8437653l-5.28125 0l0 5.8437653l-2.703125 0zm15.363586 -6.7187653l-2.328125 -0.421875q0.40625 -1.40625 1.359375 -2.078125q0.953125 -0.671875 2.84375 -0.671875q1.703125 0 2.546875 0.40625q0.84375 0.40625 1.171875 1.03125q0.34375 0.625 0.34375 2.28125l-0.015625 3.0q0 1.2656403 0.109375 1.8750153q0.125 0.609375 0.46875 1.296875l-2.53125 0q-0.109375 -0.25 -0.25 -0.75q-0.0625 -0.234375 -0.09375 -0.3125q-0.65625 0.640625 -1.40625 0.96875q-0.734375 0.3125 -1.59375 0.3125q-1.484375 0 -2.34375 -0.8125q-0.859375 -0.8125 -0.859375 -2.0468903q0 -0.828125 0.390625 -1.46875q0.390625 -0.640625 1.09375 -0.96875q0.703125 -0.34375 2.03125 -0.609375q1.796875 -0.328125 2.484375 -0.625l0 -0.25q0 -0.75 -0.359375 -1.0625q-0.359375 -0.3125 -1.375 -0.3125q-0.6875 0 -1.078125 0.28125q-0.375 0.265625 -0.609375 0.9375zm3.421875 2.078125q-0.484375 0.15625 -1.5625 0.390625q-1.0625 0.21875 -1.390625 0.4375q-0.5 0.359375 -0.5 0.90625q0 0.53126526 0.40625 0.93751526q0.40625 0.390625 1.015625 0.390625q0.703125 0 1.328125 -0.46875q0.46875 -0.34375 0.609375 -0.84376526q0.09375 -0.328125 0.09375 -1.25l0 -0.5zm7.703827 4.6406403l-3.90625 -9.67189l2.6875 0l1.828125 4.9375l0.53125 1.640625q0.203125 -0.625 0.265625 -0.828125q0.125 -0.40625 0.265625 -0.8125l1.84375 -4.9375l2.625 0l-3.84375 9.67189l-2.296875 0zm13.313202 -3.0781403l2.546875 0.421875q-0.484375 1.4062653 -1.546875 2.1406403q-1.0625 0.734375 -2.65625 0.734375q-2.515625 0 -3.734375 -1.65625q-0.953125 -1.3125153 -0.953125 -3.3281403q0 -2.40625 1.25 -3.765625q1.265625 -1.359375 3.1875 -1.359375q2.15625 0 3.40625 1.421875q1.25 1.421875 1.1875 4.375l-6.40625 0q0.03125 1.140625 0.609375 1.7812653q0.59375 0.625 1.484375 0.625q0.59375 0 1.0 -0.328125q0.421875 -0.328125 0.625 -1.0625153zm0.15625 -2.59375q-0.03125 -1.109375 -0.578125 -1.6875q-0.546875 -0.578125 -1.328125 -0.578125q-0.84375 0 -1.390625 0.609375q-0.546875 0.609375 -0.53125 1.65625l3.828125 0z" fill-rule="nonzero"/><path fill="#000000" d="m231.05696 267.10526l4.9375 0q1.65625 0 2.53125 0.265625q1.1875 0.34375 2.015625 1.234375q0.84375 0.875 1.28125 2.15625q0.4375 1.28125 0.4375 3.15625q0 1.640625 -0.40625 2.84375q-0.5 1.453125 -1.4375 2.359375q-0.703125 0.671875 -1.890625 1.0625q-0.890625 0.28125 -2.390625 0.28125l-5.078125 0l0 -13.359375zm2.703125 2.265625l0 8.84375l2.015625 0q1.125 0 1.625 -0.125q0.65625 -0.171875 1.078125 -0.5625q0.4375 -0.390625 0.703125 -1.28125q0.28125 -0.90625 0.28125 -2.453125q0 -1.546875 -0.28125 -2.375q-0.265625 -0.828125 -0.765625 -1.28125q-0.484375 -0.46875 -1.234375 -0.640625q-0.5625 -0.125 -2.21875 -0.125l-1.203125 0zm10.176071 6.125q0 -1.28125 0.625 -2.46875q0.625 -1.203125 1.78125 -1.828125q1.15625 -0.625 2.578125 -0.625q2.1875 0 3.59375 1.421875q1.40625 1.421875 1.40625 3.609375q0 2.1875 -1.421875 3.640625q-1.421875 1.4375 -3.5625 1.4375q-1.328125 0 -2.546875 -0.59375q-1.203125 -0.609375 -1.828125 -1.765625q-0.625 -1.171875 -0.625 -2.828125zm2.625 0.125q0 1.453125 0.671875 2.21875q0.6875 0.75 1.6875 0.75q1.0 0 1.671875 -0.75q0.6875 -0.765625 0.6875 -2.234375q0 -1.421875 -0.6875 -2.1875q-0.671875 -0.765625 -1.671875 -0.765625q-1.0 0 -1.6875 0.765625q-0.671875 0.765625 -0.671875 2.203125zm17.802216 -1.96875l-2.53125 0.453125q-0.125 -0.75 -0.578125 -1.125q-0.453125 -0.390625 -1.171875 -0.390625q-0.953125 0 -1.53125 0.65625q-0.5625 0.65625 -0.5625 2.203125q0 1.734375 0.578125 2.4375q0.578125 0.703125 1.546875 0.703125q0.734375 0 1.203125 -0.40625q0.46875 -0.421875 0.65625 -1.421875l2.515625 0.421875q-0.390625 1.734375 -1.515625 2.625q-1.109375 0.875 -2.96875 0.875q-2.125 0 -3.390625 -1.328125q-1.2499847 -1.34375 -1.2499847 -3.71875q0 -2.390625 1.2656097 -3.71875q1.265625 -1.34375 3.421875 -1.34375q1.765625 0 2.796875 0.765625q1.046875 0.75 1.515625 2.3125zm1.8444824 6.8125l0 -13.359375l2.5625 0l0 7.09375l3.0 -3.40625l3.140625 0l-3.296875 3.53125l3.53125 6.140625l-2.75 0l-2.4375 -4.34375l-1.1875 1.25l0 3.09375l-2.5625 0zm16.063202 -3.078125l2.546875 0.421875q-0.484375 1.40625 -1.546875 2.140625q-1.0625 0.734375 -2.65625 0.734375q-2.515625 0 -3.734375 -1.65625q-0.953125 -1.3125 -0.953125 -3.328125q0 -2.40625 1.25 -3.765625q1.265625 -1.359375 3.1875 -1.359375q2.15625 0 3.40625 1.421875q1.25 1.421875 1.1875 4.375l-6.40625 0q0.03125 1.140625 0.609375 1.78125q0.59375 0.625 1.484375 0.625q0.59375 0 1.0 -0.328125q0.421875 -0.328125 0.625 -1.0625zm0.15625 -2.59375q-0.03125 -1.109375 -0.578125 -1.6875q-0.546875 -0.578125 -1.328125 -0.578125q-0.84375 0 -1.390625 0.609375q-0.546875 0.609375 -0.53125 1.65625l3.828125 0zm7.0788574 5.671875l-2.5625 0l0 -9.671875l2.375 0l0 1.375q0.609375 -0.984375 1.09375 -1.28125q0.484375 -0.3125 1.109375 -0.3125q0.875 0 1.6875 0.484375l-0.796875 2.234375q-0.640625 -0.421875 -1.203125 -0.421875q-0.53125 0 -0.90625 0.296875q-0.375 0.296875 -0.59375 1.078125q-0.203125 0.765625 -0.203125 3.234375l0 2.984375zm10.307129 -3.4375l-2.328125 0q0 -0.5 0 -0.609375q0 -1.140625 0.359375 -1.859375q0.375 -0.734375 1.5 -1.640625q1.125 -0.921875 1.34375 -1.203125q0.328125 -0.4375 0.328125 -0.984375q0 -0.734375 -0.59375 -1.265625q-0.59375 -0.546875 -1.609375 -0.546875q-0.96875 0 -1.625 0.5625q-0.65625 0.546875 -0.90625 1.6875l-2.34375 -0.28125q0.09375 -1.640625 1.375 -2.765625q1.296875 -1.140625 3.390625 -1.140625q2.203125 0 3.5 1.15625q1.3125 1.140625 1.3125 2.671875q0 0.84375 -0.484375 1.609375q-0.46875 0.75 -2.03125 2.046875q-0.8125 0.6875 -1.015625 1.09375q-0.1875 0.40625 -0.171875 1.46875zm-2.328125 3.4375l0 -2.5625l2.5625 0l0 2.5625l-2.5625 0z" fill-rule="nonzero"/><path fill="#cc77ff" d="m19.699474 374.8399l177.40419 0l0 106.28082l-177.40419 0z" fill-rule="evenodd"/><path fill="#000000" d="m31.501263 434.9003l0 -13.359375l5.6875 0q2.140625 0 3.109375 0.359375q0.96875 0.359375 1.546875 1.28125q0.578125 0.921875 0.578125 2.109375q0 1.5 -0.890625 2.484375q-0.875 0.96875 -2.625 1.234375q0.875 0.5 1.4375 1.125q0.578125 0.609375 1.53125 2.15625l1.640625 2.609375l-3.234375 0l-1.9375 -2.90625q-1.046875 -1.5625 -1.4375 -1.96875q-0.375 -0.40625 -0.8125 -0.546875q-0.421875 -0.15625 -1.34375 -0.15625l-0.546875 0l0 5.578125l-2.703125 0zm2.703125 -7.703125l2.0 0q1.9375 0 2.421875 -0.15625q0.484375 -0.171875 0.75 -0.578125q0.28125 -0.40625 0.28125 -1.0q0 -0.671875 -0.359375 -1.078125q-0.359375 -0.421875 -1.015625 -0.53125q-0.328125 -0.046875 -1.96875 -0.046875l-2.109375 0l0 3.390625zm17.113571 7.703125l0 -1.453125q-0.53125 0.78125 -1.390625 1.234375q-0.859375 0.4375 -1.8125 0.4375q-0.96875 0 -1.75 -0.421875q-0.765625 -0.4375 -1.125 -1.203125q-0.34375 -0.78125 -0.34375 -2.140625l0 -6.125l2.5625 0l0 4.4375q0 2.046875 0.140625 2.515625q0.140625 0.453125 0.515625 0.71875q0.375 0.265625 0.953125 0.265625q0.65625 0 1.171875 -0.359375q0.515625 -0.359375 0.703125 -0.890625q0.203125 -0.53125 0.203125 -2.609375l0 -4.078125l2.546875 0l0 9.671875l-2.375 0zm13.833485 0l-2.5625038 0l0 -4.9375q0 -1.5625 -0.171875 -2.015625q-0.15625 -0.46875 -0.53125 -0.71875q-0.359375 -0.265625 -0.875 -0.265625q-0.671875 0 -1.203125 0.375q-0.53125 0.359375 -0.734375 0.96875q-0.1875 0.59375 -0.1875 2.21875l0 4.375l-2.546875 0l0 -9.671875l2.375 0l0 1.421875q1.265625 -1.640625 3.1875 -1.640625q0.84375 0 1.546875 0.3125q0.7031288 0.296875 1.0625038 0.78125q0.359375 0.46875 0.5 1.078125q0.140625 0.59375 0.140625 1.703125l0 6.015625zm7.8136597 0l0 -13.359375l9.15625 0l0 2.265625l-6.453125 0l0 3.15625l5.5625 0l0 2.265625l-5.5625 0l0 5.671875l-2.703125 0zm13.817856 0l-2.5625 0l0 -9.671875l2.375 0l0 1.375q0.609375 -0.984375 1.09375 -1.28125q0.484375 -0.3125 1.109375 -0.3125q0.875 0 1.6875 0.484375l-0.796875 2.234375q-0.640625 -0.421875 -1.203125 -0.421875q-0.53125 0 -0.90625 0.296875q-0.375 0.296875 -0.59375 1.078125q-0.203125 0.765625 -0.203125 3.234375l0 2.984375zm4.213394 -4.96875q0 -1.28125 0.625 -2.46875q0.625 -1.203125 1.78125 -1.828125q1.15625 -0.625 2.578125 -0.625q2.1875 0 3.59375 1.421875q1.40625 1.421875 1.40625 3.609375q0 2.1875 -1.421875 3.640625q-1.421875 1.4375 -3.5625 1.4375q-1.328125 0 -2.546875 -0.59375q-1.203125 -0.609375 -1.828125 -1.765625q-0.625 -1.171875 -0.625 -2.828125zm2.625 0.125q0 1.453125 0.671875 2.21875q0.6875 0.75 1.6875 0.75q1.0 0 1.671875 -0.75q0.6875 -0.765625 0.6875 -2.234375q0 -1.421875 -0.6875 -2.1875q-0.671875 -0.765625 -1.671875 -0.765625q-1.0 0 -1.6875 0.765625q-0.671875 0.765625 -0.671875 2.203125zm9.161606 -4.828125l2.359375 0l0 1.3125q1.265625 -1.53125 3.015625 -1.53125q0.9375 0 1.609375 0.390625q0.6875 0.375 1.125 1.140625q0.640625 -0.765625 1.375 -1.140625q0.75 -0.390625 1.578125 -0.390625q1.0625 0 1.796875 0.4375q0.75 0.421875 1.109375 1.265625q0.265625 0.625 0.265625 2.0l0 6.1875l-2.5625 0l0 -5.53125q0 -1.4375 -0.265625 -1.859375q-0.34375 -0.546875 -1.09375 -0.546875q-0.53125 0 -1.015625 0.328125q-0.46875 0.328125 -0.671875 0.96875q-0.203125 0.625 -0.203125 2.0l0 4.640625l-2.5625 0l0 -5.296875q0 -1.421875 -0.140625 -1.828125q-0.140625 -0.40625 -0.421875 -0.609375q-0.28125 -0.203125 -0.78125 -0.203125q-0.59375 0 -1.0625 0.328125q-0.46875 0.3125 -0.6875 0.921875q-0.203125 0.59375 -0.203125 1.984375l0 4.703125l-2.5625 0l0 -9.671875zm21.302948 5.328125l2.625 -0.25q0.234375 1.3125 0.953125 1.9375q0.734375 0.609375 1.96875 0.609375q1.296875 0 1.953125 -0.546875q0.671875 -0.546875 0.671875 -1.28125q0 -0.484375 -0.28125 -0.8125q-0.28125 -0.328125 -0.96875 -0.578125q-0.484375 -0.15625 -2.171875 -0.578125q-2.15625 -0.546875 -3.03125 -1.328125q-1.234375 -1.09375 -1.234375 -2.6875q0 -1.015625 0.578125 -1.90625q0.578125 -0.890625 1.65625 -1.34375q1.09375 -0.46875 2.640625 -0.46875q2.515625 0 3.78125 1.109375q1.28125 1.09375 1.34375 2.9375l-2.703125 0.109375q-0.171875 -1.03125 -0.75 -1.46875q-0.5625 -0.453125 -1.703125 -0.453125q-1.171875 0 -1.84375 0.46875q-0.421875 0.3125 -0.421875 0.84375q0 0.46875 0.40625 0.796875q0.5 0.4375 2.46875 0.90625q1.96875 0.453125 2.90625 0.953125q0.953125 0.5 1.484375 1.359375q0.53125 0.859375 0.53125 2.125q0 1.15625 -0.640625 2.15625q-0.640625 1.0 -1.8125 1.484375q-1.15625 0.484375 -2.890625 0.484375q-2.53125 0 -3.890625 -1.171875q-1.359375 -1.171875 -1.625 -3.40625zm12.521698 -0.625q0 -1.28125 0.625 -2.46875q0.625 -1.203125 1.78125 -1.828125q1.15625 -0.625 2.578125 -0.625q2.1875 0 3.59375 1.421875q1.40625 1.421875 1.40625 3.609375q0 2.1875 -1.421875 3.640625q-1.421875 1.4375 -3.5625 1.4375q-1.328125 0 -2.546875 -0.59375q-1.203125 -0.609375 -1.828125 -1.765625q-0.625 -1.171875 -0.625 -2.828125zm2.625 0.125q0 1.453125 0.671875 2.21875q0.6875 0.75 1.6875 0.75q1.0 0 1.671875 -0.75q0.6875 -0.765625 0.6875 -2.234375q0 -1.421875 -0.6875 -2.1875q-0.671875 -0.765625 -1.671875 -0.765625q-1.0 0 -1.6875 0.765625q-0.671875 0.765625 -0.671875 2.203125zm15.724106 4.84375l0 -1.453125q-0.53125 0.78125 -1.390625 1.234375q-0.859375 0.4375 -1.8125 0.4375q-0.96875 0 -1.75 -0.421875q-0.765625 -0.4375 -1.125 -1.203125q-0.34375 -0.78125 -0.34375 -2.140625l0 -6.125l2.5625 0l0 4.4375q0 2.046875 0.140625 2.515625q0.140625 0.453125 0.515625 0.71875q0.375 0.265625 0.953125 0.265625q0.65625 0 1.171875 -0.359375q0.515625 -0.359375 0.703125 -0.890625q0.203125 -0.53125 0.203125 -2.609375l0 -4.078125l2.546875 0l0 9.671875l-2.375 0zm7.489731 0l-2.5625 0l0 -9.671875l2.375 0l0 1.375q0.609375 -0.984375 1.09375 -1.28125q0.484375 -0.3125 1.109375 -0.3125q0.875 0 1.6875 0.484375l-0.796875 2.234375q-0.640625 -0.421875 -1.203125 -0.421875q-0.53125 0 -0.90625 0.296875q-0.375 0.296875 -0.59375 1.078125q-0.203125 0.765625 -0.203125 3.234375l0 2.984375zm13.244644 -6.8125l-2.53125 0.453125q-0.125 -0.75 -0.578125 -1.125q-0.453125 -0.390625 -1.171875 -0.390625q-0.953125 0 -1.53125 0.65625q-0.5625 0.65625 -0.5625 2.203125q0 1.734375 0.578125 2.4375q0.578125 0.703125 1.546875 0.703125q0.734375 0 1.203125 -0.40625q0.46875 -0.421875 0.65625 -1.421875l2.515625 0.421875q-0.390625 1.734375 -1.515625 2.625q-1.109375 0.875 -2.96875 0.875q-2.125 0 -3.390625 -1.328125q-1.25 -1.34375 -1.25 -3.71875q0 -2.390625 1.265625 -3.71875q1.265625 -1.34375 3.421875 -1.34375q1.765625 0 2.796875 0.765625q1.046875 0.75 1.515625 2.3125zm7.531967 3.734375l2.546875 0.421875q-0.484375 1.40625 -1.546875 2.140625q-1.0625 0.734375 -2.65625 0.734375q-2.515625 0 -3.734375 -1.65625q-0.953125 -1.3125 -0.953125 -3.328125q0 -2.40625 1.25 -3.765625q1.265625 -1.359375 3.1875 -1.359375q2.15625 0 3.40625 1.421875q1.25 1.421875 1.1875 4.375l-6.40625 0q0.03125 1.140625 0.609375 1.78125q0.59375 0.625 1.484375 0.625q0.59375 0 1.0 -0.328125q0.421875 -0.328125 0.625 -1.0625zm0.15625 -2.59375q-0.03125 -1.109375 -0.578125 -1.6875q-0.546875 -0.578125 -1.328125 -0.578125q-0.84375 0 -1.390625 0.609375q-0.546875 0.609375 -0.53125 1.65625l3.828125 0z" fill-rule="nonzero"/><path fill="#cc77ff" d="m335.36615 374.8399l177.40417 0l0 106.28082l-177.40417 0z" fill-rule="evenodd"/><path fill="#000000" d="m350.18704 434.9003l0 -13.359375l2.6875 0l0 13.359375l-2.6875 0zm14.042664 0l-2.5625 0l0 -4.9375q0 -1.5625 -0.171875 -2.015625q-0.15625 -0.46875 -0.53125 -0.71875q-0.359375 -0.265625 -0.875 -0.265625q-0.671875 0 -1.203125 0.375q-0.53125 0.359375 -0.734375 0.96875q-0.1875 0.59375 -0.1875 2.21875l0 4.375l-2.546875 0l0 -9.671875l2.375 0l0 1.421875q1.265625 -1.640625 3.1875 -1.640625q0.84375 0 1.546875 0.3125q0.703125 0.296875 1.0625 0.78125q0.359375 0.46875 0.5 1.078125q0.140625 0.59375 0.140625 1.703125l0 6.015625zm1.6928711 -2.765625l2.5625 -0.390625q0.171875 0.75 0.671875 1.140625q0.5 0.390625 1.40625 0.390625q0.984375 0 1.484375 -0.375q0.34375 -0.25 0.34375 -0.671875q0 -0.296875 -0.1875 -0.484375q-0.1875 -0.1875 -0.859375 -0.34375q-3.09375 -0.6875 -3.921875 -1.25q-1.140625 -0.78125 -1.140625 -2.171875q0 -1.265625 0.984375 -2.109375q1.0 -0.859375 3.078125 -0.859375q1.984375 0 2.953125 0.65625q0.96875 0.640625 1.328125 1.90625l-2.40625 0.4375q-0.15625 -0.5625 -0.59375 -0.859375q-0.421875 -0.296875 -1.234375 -0.296875q-1.0 0 -1.4375 0.28125q-0.296875 0.203125 -0.296875 0.515625q0 0.265625 0.25 0.46875q0.34375 0.25 2.390625 0.71875q2.046875 0.453125 2.859375 1.140625q0.796875 0.671875 0.796875 1.890625q0 1.34375 -1.109375 2.296875q-1.109375 0.953125 -3.28125 0.953125q-1.984375 0 -3.140625 -0.796875q-1.140625 -0.8125 -1.5 -2.1875zm15.719452 -6.90625l0 2.03125l-1.75 0l0 3.90625q0 1.1875 0.046875 1.390625q0.046875 0.1875 0.21875 0.3125q0.1875 0.125 0.4375 0.125q0.359375 0 1.03125 -0.25l0.21875 2.0q-0.890625 0.375 -2.015625 0.375q-0.703125 0 -1.265625 -0.234375q-0.546875 -0.234375 -0.8125 -0.59375q-0.25 -0.375 -0.34375 -1.0q-0.09375 -0.453125 -0.09375 -1.8125l0 -4.21875l-1.171875 0l0 -2.03125l1.171875 0l0 -1.921875l2.578125 -1.5l0 3.421875l1.75 0zm3.681427 2.953125l-2.328125 -0.421875q0.40625 -1.40625 1.359375 -2.078125q0.953125 -0.671875 2.84375 -0.671875q1.703125 0 2.546875 0.40625q0.84375 0.40625 1.171875 1.03125q0.34375 0.625 0.34375 2.28125l-0.015625 3.0q0 1.265625 0.109375 1.875q0.125 0.609375 0.46875 1.296875l-2.53125 0q-0.109375 -0.25 -0.25 -0.75q-0.0625 -0.234375 -0.09375 -0.3125q-0.65625 0.640625 -1.40625 0.96875q-0.734375 0.3125 -1.59375 0.3125q-1.484375 0 -2.34375 -0.8125q-0.859375 -0.8125 -0.859375 -2.046875q0 -0.828125 0.390625 -1.46875q0.390625 -0.640625 1.09375 -0.96875q0.703125 -0.34375 2.03125 -0.609375q1.796875 -0.328125 2.484375 -0.625l0 -0.25q0 -0.75 -0.359375 -1.0625q-0.359375 -0.3125 -1.375 -0.3125q-0.6875 0 -1.078125 0.28125q-0.375 0.265625 -0.609375 0.9375zm3.421875 2.078125q-0.484375 0.15625 -1.5625 0.390625q-1.0625 0.21875 -1.390625 0.4375q-0.5 0.359375 -0.5 0.90625q0 0.53125 0.40625 0.9375q0.40625 0.390625 1.015625 0.390625q0.703125 0 1.328125 -0.46875q0.46875 -0.34375 0.609375 -0.84375q0.09375 -0.328125 0.09375 -1.25l0 -0.5zm5.0476074 4.640625l0 -13.359375l2.5625 0l0 13.359375l-2.5625 0zm5.1832886 0l0 -13.359375l2.5625 0l0 13.359375l-2.5625 0zm9.772858 -4.96875q0 -1.28125 0.625 -2.46875q0.625 -1.203125 1.78125 -1.828125q1.15625 -0.625 2.578125 -0.625q2.1875 0 3.59375 1.421875q1.40625 1.421875 1.40625 3.609375q0 2.1875 -1.421875 3.640625q-1.421875 1.4375 -3.5625 1.4375q-1.328125 0 -2.546875 -0.59375q-1.203125 -0.609375 -1.828125 -1.765625q-0.625 -1.171875 -0.625 -2.828125zm2.625 0.125q0 1.453125 0.671875 2.21875q0.6875 0.75 1.6875 0.75q1.0 0 1.671875 -0.75q0.6875 -0.765625 0.6875 -2.234375q0 -1.421875 -0.6875 -2.1875q-0.671875 -0.765625 -1.671875 -0.765625q-1.0 0 -1.6875 0.765625q-0.671875 0.765625 -0.671875 2.203125zm18.161621 4.84375l-2.5625 0l0 -4.9375q0 -1.5625 -0.171875 -2.015625q-0.15625 -0.46875 -0.53125 -0.71875q-0.359375 -0.265625 -0.875 -0.265625q-0.671875 0 -1.203125 0.375q-0.53125 0.359375 -0.734375 0.96875q-0.1875 0.59375 -0.1875 2.21875l0 4.375l-2.546875 0l0 -9.671875l2.375 0l0 1.421875q1.265625 -1.640625 3.1875 -1.640625q0.84375 0 1.546875 0.3125q0.703125 0.296875 1.0625 0.78125q0.359375 0.46875 0.5 1.078125q0.140625 0.59375 0.140625 1.703125l0 6.015625zm7.7824097 -13.359375l4.9375 0q1.65625 0 2.53125 0.265625q1.1875 0.34375 2.015625 1.234375q0.84375 0.875 1.28125 2.15625q0.4375 1.28125 0.4375 3.15625q0 1.640625 -0.40625 2.84375q-0.5 1.453125 -1.4375 2.359375q-0.703125 0.671875 -1.890625 1.0625q-0.890625 0.28125 -2.390625 0.28125l-5.078125 0l0 -13.359375zm2.703125 2.265625l0 8.84375l2.015625 0q1.125 0 1.625 -0.125q0.65625 -0.171875 1.078125 -0.5625q0.4375 -0.390625 0.703125 -1.28125q0.28125 -0.90625 0.28125 -2.453125q0 -1.546875 -0.28125 -2.375q-0.265625 -0.828125 -0.765625 -1.28125q-0.484375 -0.46875 -1.234375 -0.640625q-0.5625 -0.125 -2.21875 -0.125l-1.203125 0zm10.176056 6.125q0 -1.28125 0.625 -2.46875q0.625 -1.203125 1.78125 -1.828125q1.15625 -0.625 2.578125 -0.625q2.1875 0 3.59375 1.421875q1.40625 1.421875 1.40625 3.609375q0 2.1875 -1.421875 3.640625q-1.421875 1.4375 -3.5625 1.4375q-1.328125 0 -2.546875 -0.59375q-1.203125 -0.609375 -1.828125 -1.765625q-0.625 -1.171875 -0.625 -2.828125zm2.625 0.125q0 1.453125 0.671875 2.21875q0.6875 0.75 1.6875 0.75q1.0 0 1.671875 -0.75q0.6875 -0.765625 0.6875 -2.234375q0 -1.421875 -0.6875 -2.1875q-0.671875 -0.765625 -1.671875 -0.765625q-1.0 0 -1.6875 0.765625q-0.671875 0.765625 -0.671875 2.203125zm17.802246 -1.96875l-2.53125 0.453125q-0.125 -0.75 -0.578125 -1.125q-0.453125 -0.390625 -1.171875 -0.390625q-0.953125 0 -1.53125 0.65625q-0.5625 0.65625 -0.5625 2.203125q0 1.734375 0.578125 2.4375q0.578125 0.703125 1.546875 0.703125q0.734375 0 1.203125 -0.40625q0.46875 -0.421875 0.65625 -1.421875l2.515625 0.421875q-0.390625 1.734375 -1.515625 2.625q-1.109375 0.875 -2.96875 0.875q-2.125 0 -3.390625 -1.328125q-1.25 -1.34375 -1.25 -3.71875q0 -2.390625 1.265625 -3.71875q1.265625 -1.34375 3.421875 -1.34375q1.765625 0 2.796875 0.765625q1.046875 0.75 1.515625 2.3125zm1.8444519 6.8125l0 -13.359375l2.5625 0l0 7.09375l3.0 -3.40625l3.140625 0l-3.296875 3.53125l3.53125 6.140625l-2.75 0l-2.4375 -4.34375l-1.1875 1.25l0 3.09375l-2.5625 0zm16.063232 -3.078125l2.546875 0.421875q-0.484375 1.40625 -1.546875 2.140625q-1.0625 0.734375 -2.65625 0.734375q-2.515625 0 -3.734375 -1.65625q-0.953125 -1.3125 -0.953125 -3.328125q0 -2.40625 1.25 -3.765625q1.265625 -1.359375 3.1875 -1.359375q2.15625 0 3.40625 1.421875q1.25 1.421875 1.1875 4.375l-6.40625 0q0.03125 1.140625 0.609375 1.78125q0.59375 0.625 1.484375 0.625q0.59375 0 1.0 -0.328125q0.421875 -0.328125 0.625 -1.0625zm0.15625 -2.59375q-0.03125 -1.109375 -0.578125 -1.6875q-0.546875 -0.578125 -1.328125 -0.578125q-0.84375 0 -1.390625 0.609375q-0.546875 0.609375 -0.53125 1.65625l3.828125 0zm7.078827 5.671875l-2.5625 0l0 -9.671875l2.375 0l0 1.375q0.609375 -0.984375 1.09375 -1.28125q0.484375 -0.3125 1.109375 -0.3125q0.875 0 1.6875 0.484375l-0.796875 2.234375q-0.640625 -0.421875 -1.203125 -0.421875q-0.53125 0 -0.90625 0.296875q-0.375 0.296875 -0.59375 1.078125q-0.203125 0.765625 -0.203125 3.234375l0 2.984375z" fill-rule="nonzero"/><path fill="#000000" fill-opacity="0.0" d="m396.88058 146.67192l-129.82678 0l0 60.34645" fill-rule="evenodd"/><path stroke="#cc77ff" stroke-width="2.0" stroke-linejoin="round" stroke-linecap="butt" d="m396.88058 146.67192l-129.82678 0l0 48.34645" fill-rule="evenodd"/><path fill="#cc77ff" stroke="#cc77ff" stroke-width="2.0" stroke-linecap="butt" d="m263.75034 195.01837l3.3034668 9.076202l3.3034668 -9.076202z" fill-rule="evenodd"/><path fill="#000000" fill-opacity="0.0" d="m610.2362 146.66405l182.20471 0l0 62.740158" fill-rule="evenodd"/><path stroke="#cc77ff" stroke-width="2.0" stroke-linejoin="round" stroke-linecap="butt" d="m610.2362 146.66405l182.20471 0l0 50.740158" fill-rule="evenodd"/><path fill="#cc77ff" stroke="#cc77ff" stroke-width="2.0" stroke-linecap="butt" d="m789.13745 197.4042l3.3034668 9.076187l3.3034668 -9.076187z" fill-rule="evenodd"/><path fill="#000000" fill-opacity="0.0" d="m160.35826 262.54462l-51.9685 0l0 112.28348" fill-rule="evenodd"/><path stroke="#cc77ff" stroke-width="2.0" stroke-linejoin="round" stroke-linecap="butt" d="m160.35826 262.54462l-51.9685 0l0 100.28348" fill-rule="evenodd"/><path fill="#cc77ff" stroke="#cc77ff" stroke-width="2.0" stroke-linecap="butt" d="m105.086296 362.8281l3.3034668 9.076172l3.3034668 -9.076172z" fill-rule="evenodd"/><path fill="#000000" fill-opacity="0.0" d="m373.72046 262.54462l50.362213 0l0 112.28348" fill-rule="evenodd"/><path stroke="#cc77ff" stroke-width="2.0" stroke-linejoin="round" stroke-linecap="butt" d="m373.72046 262.54462l50.362213 0l0 100.28348" fill-rule="evenodd"/><path fill="#cc77ff" stroke="#cc77ff" stroke-width="2.0" stroke-linecap="butt" d="m420.7792 362.8281l3.3034668 9.076172l3.3034668 -9.076172z" fill-rule="evenodd"/><path fill="#000000" fill-opacity="0.0" d="m792.4409 315.68503l-131.46454 79.90552" fill-rule="evenodd"/><path stroke="#cc77ff" stroke-width="2.0" stroke-linejoin="round" stroke-linecap="butt" d="m792.4409 315.68503l-121.21008 73.67279" fill-rule="evenodd"/><path fill="#cc77ff" stroke="#cc77ff" stroke-width="2.0" stroke-linecap="butt" d="m669.515 386.53488l-6.040161 7.5370483l9.471741 -1.8912048z" fill-rule="evenodd"/><path fill="#000000" fill-opacity="0.0" d="m792.4409 315.68503l-20.37793 159.84253" fill-rule="evenodd"/><path stroke="#cc77ff" stroke-width="2.0" stroke-linejoin="round" stroke-linecap="butt" d="m792.4409 315.68503l-18.860352 147.93887" fill-rule="evenodd"/><path fill="#cc77ff" stroke="#cc77ff" stroke-width="2.0" stroke-linecap="butt" d="m770.30365 463.20615l2.1290894 9.421082l4.4247437 -8.585541z" fill-rule="evenodd"/><path fill="#000000" fill-opacity="0.0" d="m792.4409 315.68503l94.74017 79.90552" fill-rule="evenodd"/><path stroke="#cc77ff" stroke-width="2.0" stroke-linejoin="round" stroke-linecap="butt" d="m792.4409 315.68503l85.5672 72.16885" fill-rule="evenodd"/><path fill="#cc77ff" stroke="#cc77ff" stroke-width="2.0" stroke-linecap="butt" d="m875.8783 390.37912l9.06781 3.3263855l-4.8081665 -8.376862z" fill-rule="evenodd"/><path fill="#000000" fill-opacity="0.0" d="m503.56168 23.858267l0 67.27559" fill-rule="evenodd"/><path stroke="#cc77ff" stroke-width="2.0" stroke-linejoin="round" stroke-linecap="butt" d="m503.56168 23.858267l0 55.27559" fill-rule="evenodd"/><path fill="#cc77ff" stroke="#cc77ff" stroke-width="2.0" stroke-linecap="butt" d="m500.2582 79.13386l3.3034668 9.076195l3.3034668 -9.076195z" fill-rule="evenodd"/><path fill="#000000" fill-opacity="0.0" d="m108.40157 481.12073l0 70.59845l158.64566 0l0 70.59839" fill-rule="evenodd"/><path stroke="#cc77ff" stroke-width="2.0" stroke-linejoin="round" stroke-linecap="butt" d="m108.40157 481.12073l0 70.59845l158.64566 0l0 58.59839" fill-rule="evenodd"/><path fill="#cc77ff" stroke="#cc77ff" stroke-width="2.0" stroke-linecap="butt" d="m263.74377 610.31757l3.3034668 9.076233l3.3034668 -9.076233z" fill-rule="evenodd"/><path fill="#000000" fill-opacity="0.0" d="m424.06824 481.12073l0 70.59845l-157.03937 0l0 70.59839" fill-rule="evenodd"/><path stroke="#cc77ff" stroke-width="2.0" stroke-linejoin="round" stroke-linecap="butt" d="m424.06824 481.12073l0 70.59845l-157.03937 0l0 58.59839" fill-rule="evenodd"/><path fill="#cc77ff" stroke="#cc77ff" stroke-width="2.0" stroke-linecap="butt" d="m263.7254 610.31757l3.3034668 9.076233l3.3034668 -9.076233z" fill-rule="evenodd"/><path fill="#ffcc66" d="m213.9066 631.90814l0 0c0 -5.296692 4.2938385 -9.590576 9.590561 -9.590576l87.08661 0c2.543579 0 4.982971 1.010437 6.781555 2.809021c1.798584 1.798584 2.8089905 4.237976 2.8089905 6.781555l0 38.362183c0 5.296753 -4.2938232 9.590576 -9.590546 9.590576l-87.08661 0c-5.2967224 0 -9.590561 -4.2938232 -9.590561 -9.590576z" fill-rule="evenodd"/><path fill="#000000" d="m232.68031 658.0092l0 -11.09375l-3.953125 0l0 -2.265625l10.609375 0l0 2.265625l-3.953125 0l0 11.09375l-2.703125 0zm8.901184 -6.71875l-2.328125 -0.421875q0.40625 -1.40625 1.359375 -2.078125q0.953125 -0.671875 2.84375 -0.671875q1.703125 0 2.546875 0.40625q0.84375 0.40625 1.171875 1.03125q0.34375 0.625 0.34375 2.28125l-0.015625 3.0q0 1.265625 0.109375 1.875q0.125 0.609375 0.46875 1.296875l-2.53125 0q-0.109375 -0.25 -0.25 -0.75q-0.0625 -0.234375 -0.09375 -0.3125q-0.65625 0.640625 -1.40625 0.96875q-0.734375 0.3125 -1.59375 0.3125q-1.484375 0 -2.34375 -0.8125q-0.859375 -0.8125 -0.859375 -2.046875q0 -0.828125 0.390625 -1.46875q0.390625 -0.640625 1.09375 -0.96875q0.703125 -0.34375 2.03125 -0.609375q1.796875 -0.328125 2.484375 -0.625l0 -0.25q0 -0.75 -0.359375 -1.0625q-0.359375 -0.3125 -1.375 -0.3125q-0.6875 0 -1.078125 0.28125q-0.375 0.265625 -0.609375 0.9375zm3.421875 2.078125q-0.484375 0.15625 -1.5625 0.390625q-1.0625 0.21875 -1.390625 0.4375q-0.5 0.359375 -0.5 0.90625q0 0.53125 0.40625 0.9375q0.40625 0.390625 1.015625 0.390625q0.703125 0 1.328125 -0.46875q0.46875 -0.34375 0.609375 -0.84375q0.09375 -0.328125 0.09375 -1.25l0 -0.5zm5.047592 -6.34375l0 -2.375l2.5625 0l0 2.375l-2.5625 0zm0 10.984375l0 -9.671875l2.5625 0l0 9.671875l-2.5625 0zm5.183304 0l0 -13.359375l2.5625153 0l0 13.359375l-2.5625153 0zm4.277054 -2.765625l2.5625 -0.390625q0.171875 0.75 0.671875 1.140625q0.5 0.390625 1.40625 0.390625q0.984375 0 1.484375 -0.375q0.34375 -0.25 0.34375 -0.671875q0 -0.296875 -0.1875 -0.484375q-0.1875 -0.1875 -0.859375 -0.34375q-3.09375 -0.6875 -3.921875 -1.25q-1.140625 -0.78125 -1.140625 -2.171875q0 -1.265625 0.984375 -2.109375q1.0 -0.859375 3.078125 -0.859375q1.984375 0 2.953125 0.65625q0.96875 0.640625 1.328125 1.90625l-2.40625 0.4375q-0.15625 -0.5625 -0.59375 -0.859375q-0.421875 -0.296875 -1.234375 -0.296875q-1.0 0 -1.4375 0.28125q-0.296875 0.203125 -0.296875 0.515625q0 0.265625 0.25 0.46875q0.34375 0.25 2.390625 0.71875q2.046875 0.453125 2.859375 1.140625q0.796875 0.671875 0.796875 1.890625q0 1.34375 -1.109375 2.296875q-1.109375 0.953125 -3.28125 0.953125q-1.984375 0 -3.140625 -0.796875q-1.140625 -0.8125 -1.5 -2.1875zm19.719482 -4.046875l-2.53125 0.453125q-0.125 -0.75 -0.578125 -1.125q-0.453125 -0.390625 -1.171875 -0.390625q-0.953125 0 -1.53125 0.65625q-0.5625 0.65625 -0.5625 2.203125q0 1.734375 0.578125 2.4375q0.578125 0.703125 1.546875 0.703125q0.734375 0 1.203125 -0.40625q0.46875 -0.421875 0.65625 -1.421875l2.515625 0.421875q-0.390625 1.734375 -1.515625 2.625q-1.109375 0.875 -2.96875 0.875q-2.125 0 -3.390625 -1.328125q-1.25 -1.34375 -1.25 -3.71875q0 -2.390625 1.265625 -3.71875q1.265625 -1.34375 3.421875 -1.34375q1.765625 0 2.796875 0.765625q1.046875 0.75 1.515625 2.3125zm3.844452 0.09375l-2.328125 -0.421875q0.40625 -1.40625 1.359375 -2.078125q0.953125 -0.671875 2.84375 -0.671875q1.703125 0 2.546875 0.40625q0.84375 0.40625 1.171875 1.03125q0.34375 0.625 0.34375 2.28125l-0.015625 3.0q0 1.265625 0.109375 1.875q0.125 0.609375 0.46875 1.296875l-2.53125 0q-0.109375 -0.25 -0.25 -0.75q-0.0625 -0.234375 -0.09375 -0.3125q-0.65625 0.640625 -1.40625 0.96875q-0.734375 0.3125 -1.59375 0.3125q-1.484375 0 -2.34375 -0.8125q-0.859375 -0.8125 -0.859375 -2.046875q0 -0.828125 0.390625 -1.46875q0.390625 -0.640625 1.09375 -0.96875q0.703125 -0.34375 2.03125 -0.609375q1.796875 -0.328125 2.484375 -0.625l0 -0.25q0 -0.75 -0.359375 -1.0625q-0.359375 -0.3125 -1.375 -0.3125q-0.6875 0 -1.078125 0.28125q-0.375 0.265625 -0.609375 0.9375zm3.421875 2.078125q-0.484375 0.15625 -1.5625 0.390625q-1.0625 0.21875 -1.390625 0.4375q-0.5 0.359375 -0.5 0.90625q0 0.53125 0.40625 0.9375q0.40625 0.390625 1.015625 0.390625q0.703125 0 1.328125 -0.46875q0.46875 -0.34375 0.609375 -0.84375q0.09375 -0.328125 0.09375 -1.25l0 -0.5zm5.0476074 4.640625l0 -13.359375l2.5625 0l0 13.359375l-2.5625 0zm10.777039 -3.078125l2.546875 0.421875q-0.484375 1.40625 -1.546875 2.140625q-1.0625 0.734375 -2.65625 0.734375q-2.515625 0 -3.734375 -1.65625q-0.953125 -1.3125 -0.953125 -3.328125q0 -2.40625 1.25 -3.765625q1.265625 -1.359375 3.1875 -1.359375q2.15625 0 3.40625 1.421875q1.25 1.421875 1.1875 4.375l-6.40625 0q0.03125 1.140625 0.609375 1.78125q0.59375 0.625 1.484375 0.625q0.59375 0 1.0 -0.328125q0.421875 -0.328125 0.625 -1.0625zm0.15625 -2.59375q-0.03125 -1.109375 -0.578125 -1.6875q-0.546875 -0.578125 -1.328125 -0.578125q-0.84375 0 -1.390625 0.609375q-0.546875 0.609375 -0.53125 1.65625l3.828125 0z" fill-rule="nonzero"/><path fill="#000000" fill-opacity="0.0" d="m328.34647 107.85827l68.566925 0l0 38.803154l-68.566925 0z" fill-rule="evenodd"/><path fill="#cc77ff" d="m351.40677 132.63585l0 -5.6250076l-4.890625 -7.734375l3.171875 0l3.140625 5.28125l3.078125 -5.28125l3.109375 0l-4.921875 7.75l0 5.6093826l-2.6875 0zm13.49173 -3.078125l2.546875 0.421875q-0.484375 1.40625 -1.546875 2.140625q-1.0625 0.734375 -2.65625 0.734375q-2.515625 0 -3.7343445 -1.65625q-0.953125 -1.3125 -0.953125 -3.3281326q0 -2.40625 1.25 -3.765625q1.2655945 -1.359375 3.1874695 -1.359375q2.15625 0 3.40625 1.421875q1.25 1.421875 1.1875 4.3750076l-6.40625 0q0.03125 1.140625 0.609375 1.78125q0.59375 0.625 1.484375 0.625q0.59375 0 1.0 -0.328125q0.421875 -0.328125 0.625 -1.0625zm0.15625 -2.5937576q-0.03125 -1.109375 -0.578125 -1.6875q-0.546875 -0.578125 -1.328125 -0.578125q-0.84375 0 -1.390625 0.609375q-0.546875 0.609375 -0.53125 1.65625l3.828125 0zm3.7194824 2.9062576l2.5625 -0.390625q0.171875 0.75 0.671875 1.140625q0.5 0.390625 1.40625 0.390625q0.984375 0 1.484375 -0.375q0.34375 -0.25 0.34375 -0.671875q0 -0.296875 -0.1875 -0.484375q-0.1875 -0.1875 -0.859375 -0.34375q-3.09375 -0.6875 -3.921875 -1.2500076q-1.140625 -0.78125 -1.140625 -2.171875q0 -1.265625 0.984375 -2.109375q1.0 -0.859375 3.078125 -0.859375q1.984375 0 2.953125 0.65625q0.96875 0.640625 1.328125 1.90625l-2.40625 0.4375q-0.15625 -0.5625 -0.59375 -0.859375q-0.421875 -0.296875 -1.234375 -0.296875q-1.0 0 -1.4375 0.28125q-0.296875 0.203125 -0.296875 0.515625q0 0.265625 0.25 0.46875q0.34375 0.25 2.390625 0.71875q2.046875 0.453125 2.859375 1.140625q0.796875 0.6718826 0.796875 1.8906326q0 1.34375 -1.109375 2.296875q-1.109375 0.953125 -3.28125 0.953125q-1.984375 0 -3.140625 -0.796875q-1.140625 -0.8125 -1.5 -2.1875z" fill-rule="nonzero"/><path fill="#000000" fill-opacity="0.0" d="m600.34644 107.85827l68.566956 0l0 38.803154l-68.566956 0z" fill-rule="evenodd"/><path fill="#cc77ff" d="m623.58606 132.63585l0 -13.359383l2.625 0l5.453125 8.921883l0 -8.921883l2.515625 0l0 13.359383l-2.703125 0l-5.390625 -8.703133l0 8.703133l-2.5 0zm12.832336 -4.9687576q0 -1.28125 0.625 -2.46875q0.625 -1.203125 1.78125 -1.828125q1.15625 -0.625 2.578125 -0.625q2.1875 0 3.59375 1.421875q1.40625 1.421875 1.40625 3.609375q0 2.1875076 -1.421875 3.6406326q-1.421875 1.4375 -3.5625 1.4375q-1.328125 0 -2.546875 -0.59375q-1.203125 -0.609375 -1.828125 -1.765625q-0.625 -1.171875 -0.625 -2.8281326zm2.625 0.125q0 1.4531326 0.671875 2.2187576q0.6875 0.75 1.6875 0.75q1.0 0 1.671875 -0.75q0.6875 -0.765625 0.6875 -2.2343826q0 -1.421875 -0.6875 -2.1875q-0.671875 -0.765625 -1.671875 -0.765625q-1.0 0 -1.6875 0.765625q-0.671875 0.765625 -0.671875 2.203125z" fill-rule="nonzero"/><path fill="#000000" fill-opacity="0.0" d="m360.34647 223.67625l68.566925 0l0 38.803146l-68.566925 0z" fill-rule="evenodd"/><path fill="#cc77ff" d="m383.40677 248.45383l0 -5.625l-4.890625 -7.734375l3.171875 0l3.140625 5.28125l3.078125 -5.28125l3.109375 0l-4.921875 7.75l0 5.609375l-2.6875 0zm13.49173 -3.078125l2.546875 0.421875q-0.484375 1.40625 -1.546875 2.140625q-1.0625 0.734375 -2.65625 0.734375q-2.515625 0 -3.7343445 -1.65625q-0.953125 -1.3125 -0.953125 -3.328125q0 -2.40625 1.25 -3.765625q1.2655945 -1.359375 3.1874695 -1.359375q2.15625 0 3.40625 1.421875q1.25 1.421875 1.1875 4.375l-6.40625 0q0.03125 1.140625 0.609375 1.78125q0.59375 0.625 1.484375 0.625q0.59375 0 1.0 -0.328125q0.421875 -0.328125 0.625 -1.0625zm0.15625 -2.59375q-0.03125 -1.109375 -0.578125 -1.6875q-0.546875 -0.578125 -1.328125 -0.578125q-0.84375 0 -1.390625 0.609375q-0.546875 0.609375 -0.53125 1.65625l3.828125 0zm3.7194824 2.90625l2.5625 -0.390625q0.171875 0.75 0.671875 1.140625q0.5 0.390625 1.40625 0.390625q0.984375 0 1.484375 -0.375q0.34375 -0.25 0.34375 -0.671875q0 -0.296875 -0.1875 -0.484375q-0.1875 -0.1875 -0.859375 -0.34375q-3.09375 -0.6875 -3.921875 -1.25q-1.140625 -0.78125 -1.140625 -2.171875q0 -1.265625 0.984375 -2.109375q1.0 -0.859375 3.078125 -0.859375q1.984375 0 2.953125 0.65625q0.96875 0.640625 1.328125 1.90625l-2.40625 0.4375q-0.15625 -0.5625 -0.59375 -0.859375q-0.421875 -0.296875 -1.234375 -0.296875q-1.0 0 -1.4375 0.28125q-0.296875 0.203125 -0.296875 0.515625q0 0.265625 0.25 0.46875q0.34375 0.25 2.390625 0.71875q2.046875 0.453125 2.859375 1.140625q0.796875 0.671875 0.796875 1.890625q0 1.34375 -1.109375 2.296875q-1.109375 0.953125 -3.28125 0.953125q-1.984375 0 -3.140625 -0.796875q-1.140625 -0.8125 -1.5 -2.1875z" fill-rule="nonzero"/><path fill="#000000" fill-opacity="0.0" d="m104.34646 223.67625l68.56693 0l0 38.803146l-68.56693 0z" fill-rule="evenodd"/><path fill="#cc77ff" d="m127.58608 248.45383l0 -13.359375l2.6250076 0l5.453125 8.921875l0 -8.921875l2.5156097 0l0 13.359375l-2.7031097 0l-5.390625 -8.703125l0 8.703125l-2.5000076 0zm12.832314 -4.96875q0 -1.28125 0.625 -2.46875q0.625 -1.203125 1.78125 -1.828125q1.15625 -0.625 2.578125 -0.625q2.1875 0 3.59375 1.421875q1.40625 1.421875 1.40625 3.609375q0 2.1875 -1.421875 3.640625q-1.421875 1.4375 -3.5625 1.4375q-1.328125 0 -2.546875 -0.59375q-1.203125 -0.609375 -1.828125 -1.765625q-0.625 -1.171875 -0.625 -2.828125zm2.625 0.125q0 1.453125 0.671875 2.21875q0.6875 0.75 1.6875 0.75q1.0 0 1.671875 -0.75q0.6875 -0.765625 0.6875 -2.234375q0 -1.421875 -0.6875 -2.1875q-0.671875 -0.765625 -1.671875 -0.765625q-1.0 0 -1.6875 0.765625q-0.671875 0.765625 -0.671875 2.203125z" fill-rule="nonzero"/><path fill="#000000" fill-opacity="0.0" d="m616.34644 447.67743l88.944885 0l0 50.17325l-88.944885 0z" fill-rule="evenodd"/><path fill="#cc77ff" d="m637.31586 479.48404l0 -13.359375l9.15625 0l0 2.265625l-6.453125 0l0 3.15625l5.5625 0l0 2.265625l-5.5625 0l0 5.671875l-2.703125 0zm11.380371 0l0 -13.359375l5.6875 0q2.140625 0 3.109375 0.359375q0.96875 0.359375 1.546875 1.28125q0.578125 0.921875 0.578125 2.109375q0 1.5 -0.890625 2.484375q-0.875 0.96875 -2.625 1.234375q0.875 0.5 1.4375 1.125q0.578125 0.609375 1.53125 2.15625l1.640625 2.609375l-3.234375 0l-1.9375 -2.90625q-1.046875 -1.5625 -1.4375 -1.96875q-0.375 -0.40625 -0.8125 -0.546875q-0.421875 -0.15625 -1.34375 -0.15625l-0.546875 0l0 5.578125l-2.703125 0zm2.703125 -7.703125l2.0 0q1.9375 0 2.421875 -0.15625q0.484375 -0.171875 0.75 -0.578125q0.28125 -0.40625 0.28125 -1.0q0 -0.671875 -0.359375 -1.078125q-0.359375 -0.421875 -1.015625 -0.53125q-0.328125 -0.046875 -1.96875 -0.046875l-2.109375 0l0 3.390625zm10.769836 7.703125l0 -13.359375l9.90625 0l0 2.265625l-7.21875 0l0 2.953125l6.71875 0l0 2.25l-6.71875 0l0 3.640625l7.46875 0l0 2.25l-10.15625 0zm12.4435425 0l0 -13.359375l9.90625 0l0 2.265625l-7.21875 0l0 2.953125l6.71875 0l0 2.25l-6.71875 0l0 3.640625l7.46875 0l0 2.25l-10.15625 0z" fill-rule="nonzero"/><path fill="#000000" fill-opacity="0.0" d="m728.34644 527.6774l88.944885 0l0 50.173218l-88.944885 0z" fill-rule="evenodd"/><path fill="#cc77ff" d="m772.08417 557.4997l0 -3.8125q-1.78125 -0.5 -2.625 -1.53125q-0.828125 -1.046875 -0.828125 -2.515625q0 -1.5 0.9375 -2.515625q0.953125 -1.015625 2.515625 -1.171875l0 -0.890625l1.328125 0l0 0.890625q1.4375 0.171875 2.296875 1.0q0.859375 0.8125 1.09375 2.171875l-2.296875 0.296875q-0.21875 -1.0625 -1.09375 -1.453125l0 3.5625q2.1875 0.59375 2.96875 1.546875q0.796875 0.9375 0.796875 2.40625q0 1.65625 -1.0 2.78125q-1.0 1.125 -2.765625 1.375l0 1.71875l-1.328125 0l0 -1.671875q-1.578125 -0.1875 -2.5625 -1.171875q-0.984375 -0.984375 -1.25 -2.78125l2.375 -0.25q0.140625 0.734375 0.546875 1.265625q0.40625 0.515625 0.890625 0.75zm0 -9.5625q-0.53125 0.1875 -0.859375 0.625q-0.3125 0.4375 -0.3125 0.96875q0 0.484375 0.28125 0.90625q0.296875 0.40625 0.890625 0.65625l0 -3.15625zm1.328125 9.703125q0.671875 -0.140625 1.09375 -0.640625q0.4375 -0.5 0.4375 -1.1875q0 -0.609375 -0.359375 -1.046875q-0.359375 -0.453125 -1.171875 -0.6875l0 3.5625z" fill-rule="nonzero"/><path fill="#000000" fill-opacity="0.0" d="m847.4304 446.46317l88.944885 0l0 50.173218l-88.944885 0z" fill-rule="evenodd"/><path fill="#cc77ff" d="m885.9803 476.2854l0 -3.8125q-1.78125 -0.5 -2.625 -1.53125q-0.828125 -1.046875 -0.828125 -2.515625q0 -1.5 0.9375 -2.515625q0.953125 -1.015625 2.515625 -1.171875l0 -0.890625l1.328125 0l0 0.890625q1.4375 0.171875 2.296875 1.0q0.859375 0.8125 1.09375 2.171875l-2.296875 0.296875q-0.21875 -1.0625 -1.09375 -1.453125l0 3.5625q2.1875 0.59375 2.96875 1.546875q0.796875 0.9375 0.796875 2.40625q0 1.65625 -1.0 2.78125q-1.0 1.125 -2.765625 1.375l0 1.71875l-1.328125 0l0 -1.671875q-1.578125 -0.1875 -2.5625 -1.171875q-0.984375 -0.984375 -1.25 -2.78125l2.375 -0.25q0.140625 0.734375 0.546875 1.265625q0.40625 0.515625 0.890625 0.75zm0 -9.5625q-0.53125 0.1875 -0.859375 0.625q-0.3125 0.4375 -0.3125 0.96875q0 0.484375 0.28125 0.90625q0.296875 0.40625 0.890625 0.65625l0 -3.15625zm1.328125 9.703125q0.671875 -0.140625 1.09375 -0.640625q0.4375 -0.5 0.4375 -1.1875q0 -0.609375 -0.359375 -1.046875q-0.359375 -0.453125 -1.171875 -0.6875l0 3.5625zm9.047607 -0.140625l0 -3.8125q-1.78125 -0.5 -2.625 -1.53125q-0.828125 -1.046875 -0.828125 -2.515625q0 -1.5 0.9375 -2.515625q0.953125 -1.015625 2.515625 -1.171875l0 -0.890625l1.328125 0l0 0.890625q1.4375 0.171875 2.296875 1.0q0.859375 0.8125 1.09375 2.171875l-2.296875 0.296875q-0.21875 -1.0625 -1.09375 -1.453125l0 3.5625q2.1875 0.59375 2.96875 1.546875q0.796875 0.9375 0.796875 2.40625q0 1.65625 -1.0 2.78125q-1.0 1.125 -2.765625 1.375l0 1.71875l-1.328125 0l0 -1.671875q-1.578125 -0.1875 -2.5625 -1.171875q-0.984375 -0.984375 -1.25 -2.78125l2.375 -0.25q0.140625 0.734375 0.546875 1.265625q0.40625 0.515625 0.890625 0.75zm0 -9.5625q-0.53125 0.1875 -0.859375 0.625q-0.3125 0.4375 -0.3125 0.96875q0 0.484375 0.28125 0.90625q0.296875 0.40625 0.890625 0.65625l0 -3.15625zm1.328125 9.703125q0.671875 -0.140625 1.09375 -0.640625q0.4375 -0.5 0.4375 -1.1875q0 -0.609375 -0.359375 -1.046875q-0.359375 -0.453125 -1.171875 -0.6875l0 3.5625z" fill-rule="nonzero"/><path fill="#000000" fill-opacity="0.0" d="m172.91339 814.6667l637.3228 0" fill-rule="evenodd"/><path stroke="#cc77ff" stroke-width="4.0" stroke-linejoin="round" stroke-linecap="butt" stroke-dasharray="4.0,12.0" d="m196.91339 814.6667l589.3228 0" fill-rule="evenodd"/><path fill="#cc77ff" stroke="#cc77ff" stroke-width="4.0" stroke-linecap="butt" d="m196.91339 808.05975l-18.15239 6.6069336l18.15239 6.6069336z" fill-rule="evenodd"/><path fill="#cc77ff" stroke="#cc77ff" stroke-width="4.0" stroke-linecap="butt" d="m786.2362 821.2736l18.152405 -6.6069336l-18.152405 -6.6069336z" fill-rule="evenodd"/><path fill="#000000" fill-opacity="0.0" d="m128.34645 740.0762l177.41734 0l0 57.543274l-177.41734 0z" fill-rule="evenodd"/><path fill="#cc77ff" d="m150.66809 777.0078l0 -16.21875l4.890625 0l2.953125 11.0625l2.90625 -11.0625l4.90625 0l0 16.21875l-3.046875 0l0 -12.765625l-3.21875 12.765625l-3.140625 0l-3.21875 -12.765625l0 12.765625l-3.03125 0zm18.169708 -6.046875q0 -1.546875 0.765625 -2.984375q0.765625 -1.453125 2.15625 -2.21875q1.40625 -0.765625 3.125 -0.765625q2.671875 0 4.375 1.734375q1.703125 1.734375 1.703125 4.375q0 2.671875 -1.71875 4.421875q-1.71875 1.75 -4.328125 1.75q-1.625 0 -3.09375 -0.71875q-1.453125 -0.734375 -2.21875 -2.140625q-0.765625 -1.421875 -0.765625 -3.453125zm3.1875 0.171875q0 1.75 0.828125 2.6875q0.828125 0.921875 2.046875 0.921875q1.21875 0 2.03125 -0.921875q0.828125 -0.9375 0.828125 -2.703125q0 -1.734375 -0.828125 -2.65625q-0.8125 -0.9375 -2.03125 -0.9375q-1.21875 0 -2.046875 0.9375q-0.828125 0.921875 -0.828125 2.671875zm14.354965 5.875l-3.109375 0l0 -11.75l2.875 0l0 1.671875q0.75 -1.1875 1.34375 -1.5625q0.59375 -0.375 1.34375 -0.375q1.0625 0 2.046875 0.59375l-0.96875 2.703125q-0.78125 -0.5 -1.453125 -0.5q-0.65625 0 -1.109375 0.359375q-0.453125 0.359375 -0.71875 1.296875q-0.25 0.9375 -0.25 3.9375l0 3.625zm12.645035 -3.734375l3.09375 0.515625q-0.59375 1.703125 -1.890625 2.59375q-1.28125 0.890625 -3.21875 0.890625q-3.0625 0 -4.546875 -2.0q-1.15625 -1.609375 -1.15625 -4.046875q0 -2.921875 1.515625 -4.578125q1.53125 -1.65625 3.875 -1.65625q2.625 0 4.140625 1.734375q1.515625 1.734375 1.4375 5.296875l-7.78125 0q0.03125 1.390625 0.75 2.15625q0.71875 0.765625 1.796875 0.765625q0.71875 0 1.21875 -0.390625q0.5 -0.40625 0.765625 -1.28125zm0.171875 -3.140625q-0.03125 -1.359375 -0.703125 -2.0625q-0.65625 -0.703125 -1.609375 -0.703125q-1.015625 0 -1.6875 0.75q-0.65625 0.734375 -0.65625 2.015625l4.65625 0zm11.9262085 6.875l0 -16.21875l5.265625 0q2.984375 0 3.890625 0.25q1.390625 0.359375 2.328125 1.578125q0.953125 1.21875 0.953125 3.15625q0 1.5 -0.546875 2.515625q-0.546875 1.015625 -1.390625 1.609375q-0.828125 0.578125 -1.6875 0.765625q-1.171875 0.21875 -3.390625 0.21875l-2.140625 0l0 6.125l-3.28125 0zm3.28125 -13.46875l0 4.59375l1.796875 0q1.9375 0 2.578125 -0.25q0.65625 -0.25 1.03125 -0.796875q0.375 -0.546875 0.375 -1.265625q0 -0.875 -0.53125 -1.453125q-0.515625 -0.578125 -1.3125 -0.71875q-0.578125 -0.109375 -2.359375 -0.109375l-1.578125 0zm14.799042 13.46875l-3.109375 0l0 -11.75l2.875 0l0 1.671875q0.75 -1.1875 1.34375 -1.5625q0.59375 -0.375 1.34375 -0.375q1.0625 0 2.046875 0.59375l-0.96875 2.703125q-0.78125 -0.5 -1.453125 -0.5q-0.65625 0 -1.109375 0.359375q-0.453125 0.359375 -0.71875 1.296875q-0.25 0.9375 -0.25 3.9375l0 3.625zm5.832535 -13.34375l0 -2.875l3.109375 0l0 2.875l-3.109375 0zm0 13.34375l0 -11.75l3.109375 0l0 11.75l-3.109375 0zm9.529007 0l-4.734375 -11.75l3.265625 0l2.203125 6.0l0.640625 2.0q0.265625 -0.765625 0.328125 -1.0q0.15625 -0.5 0.328125 -1.0l2.234375 -6.0l3.203125 0l-4.671875 11.75l-2.796875 0zm11.694061 -8.171875l-2.8281097 -0.5q0.484375 -1.703125 1.640625 -2.515625q1.1562347 -0.828125 3.4531403 -0.828125q2.078125 0 3.09375 0.5q1.015625 0.484375 1.421875 1.25q0.421875 0.75 0.421875 2.78125l-0.03125 3.625q0 1.546875 0.140625 2.28125q0.15625 0.734375 0.578125 1.578125l-3.078125 0q-0.125 -0.3125 -0.296875 -0.921875q-0.078125 -0.265625 -0.109375 -0.359375q-0.796875 0.765625 -1.71875 1.15625q-0.90625 0.390625 -1.921875 0.390625q-1.8281403 0 -2.8750153 -0.984375q-1.03125 -0.984375 -1.03125 -2.484375q0 -1.0 0.46875 -1.78125q0.484375 -0.78125 1.328125 -1.1875q0.859375 -0.421875 2.4843903 -0.734375q2.171875 -0.40625 3.015625 -0.765625l0 -0.296875q0 -0.90625 -0.453125 -1.28125q-0.4375 -0.390625 -1.65625 -0.390625q-0.828125 0 -1.296875 0.328125q-0.46875 0.328125 -0.7500305 1.140625zm4.1562805 2.53125q-0.59375 0.203125 -1.890625 0.484375q-1.296875 0.265625 -1.6875 0.53125q-0.6094055 0.4375 -0.6094055 1.09375q0 0.65625 0.48440552 1.140625q0.484375 0.46875 1.234375 0.46875q0.84375 0 1.609375 -0.5625q0.5625 -0.40625 0.734375 -1.015625q0.125 -0.40625 0.125 -1.515625l0 -0.625zm11.506561 -6.109375l0 2.484375l-2.125 0l0 4.734375q0 1.4375 0.0625 1.671875q0.0625 0.234375 0.265625 0.390625q0.21875 0.15625 0.53125 0.15625q0.4375 0 1.25 -0.296875l0.265625 2.40625q-1.078125 0.46875 -2.453125 0.46875q-0.84375 0 -1.515625 -0.28125q-0.671875 -0.28125 -1.0 -0.71875q-0.3125 -0.453125 -0.421875 -1.21875q-0.109375 -0.546875 -0.109375 -2.203125l0 -5.109375l-1.421875 0l0 -2.484375l1.421875 0l0 -2.328125l3.125 -1.8125l0 4.140625l2.125 0zm8.966583 8.015625l3.09375 0.515625q-0.59375 1.703125 -1.890625 2.59375q-1.28125 0.890625 -3.21875 0.890625q-3.0625 0 -4.546875 -2.0q-1.15625 -1.609375 -1.15625 -4.046875q0 -2.921875 1.515625 -4.578125q1.53125 -1.65625 3.875 -1.65625q2.625 0 4.140625 1.734375q1.515625 1.734375 1.4375 5.296875l-7.78125 0q0.03125 1.390625 0.75 2.15625q0.71875 0.765625 1.796875 0.765625q0.71875 0 1.21875 -0.390625q0.5 -0.40625 0.765625 -1.28125zm0.171875 -3.140625q-0.03125 -1.359375 -0.703125 -2.0625q-0.65625 -0.703125 -1.609375 -0.703125q-1.015625 0 -1.6875 0.75q-0.65625 0.734375 -0.65625 2.015625l4.65625 0z" fill-rule="nonzero"/><path fill="#000000" fill-opacity="0.0" d="m672.34644 740.0762l177.41736 0l0 57.543274l-177.41736 0z" fill-rule="evenodd"/><path fill="#cc77ff" d="m696.03766 777.0078l0 -16.078125l3.28125 0l0 13.34375l8.140625 0l0 2.734375l-11.421875 0zm20.54242 -3.734375l3.09375 0.515625q-0.59375 1.703125 -1.890625 2.59375q-1.28125 0.890625 -3.21875 0.890625q-3.0625 0 -4.546875 -2.0q-1.15625 -1.609375 -1.15625 -4.046875q0 -2.921875 1.515625 -4.578125q1.53125 -1.65625 3.875 -1.65625q2.625 0 4.140625 1.734375q1.515625 1.734375 1.4375 5.296875l-7.78125 0q0.03125 1.390625 0.75 2.15625q0.71875 0.765625 1.796875 0.765625q0.71875 0 1.21875 -0.390625q0.5 -0.40625 0.765625 -1.28125zm0.171875 -3.140625q-0.03125 -1.359375 -0.703125 -2.0625q-0.65625 -0.703125 -1.609375 -0.703125q-1.015625 0 -1.6875 0.75q-0.65625 0.734375 -0.65625 2.015625l4.65625 0zm4.522217 3.515625l3.125 -0.46875q0.1875 0.90625 0.796875 1.375q0.609375 0.46875 1.703125 0.46875q1.21875 0 1.8125 -0.4375q0.421875 -0.3125 0.421875 -0.828125q0 -0.359375 -0.21875 -0.59375q-0.234375 -0.21875 -1.046875 -0.40625q-3.765625 -0.828125 -4.765625 -1.515625q-1.390625 -0.953125 -1.390625 -2.640625q0 -1.53125 1.203125 -2.5625q1.203125 -1.046875 3.734375 -1.046875q2.40625 0 3.578125 0.796875q1.1875 0.78125 1.625 2.3125l-2.9375 0.546875q-0.1875 -0.6875 -0.71875 -1.046875q-0.515625 -0.375 -1.484375 -0.375q-1.234375 0 -1.765625 0.34375q-0.359375 0.25 -0.359375 0.625q0 0.34375 0.3125 0.578125q0.421875 0.296875 2.90625 0.875q2.484375 0.5625 3.46875 1.375q0.96875 0.828125 0.96875 2.3125q0 1.609375 -1.34375 2.78125q-1.34375 1.15625 -4.0 1.15625q-2.390625 0 -3.796875 -0.96875q-1.390625 -0.984375 -1.828125 -2.65625zm12.600342 0l3.125 -0.46875q0.1875 0.90625 0.796875 1.375q0.609375 0.46875 1.703125 0.46875q1.21875 0 1.8125 -0.4375q0.421875 -0.3125 0.421875 -0.828125q0 -0.359375 -0.21875 -0.59375q-0.234375 -0.21875 -1.046875 -0.40625q-3.765625 -0.828125 -4.765625 -1.515625q-1.390625 -0.953125 -1.390625 -2.640625q0 -1.53125 1.203125 -2.5625q1.203125 -1.046875 3.734375 -1.046875q2.40625 0 3.578125 0.796875q1.1875 0.78125 1.625 2.3125l-2.9375 0.546875q-0.1875 -0.6875 -0.71875 -1.046875q-0.515625 -0.375 -1.484375 -0.375q-1.234375 0 -1.765625 0.34375q-0.359375 0.25 -0.359375 0.625q0 0.34375 0.3125 0.578125q0.421875 0.296875 2.90625 0.875q2.484375 0.5625 3.46875 1.375q0.96875 0.828125 0.96875 2.3125q0 1.609375 -1.34375 2.78125q-1.34375 1.15625 -4.0 1.15625q-2.390625 0 -3.796875 -0.96875q-1.390625 -0.984375 -1.828125 -2.65625zm20.004333 3.359375l0 -16.21875l5.265625 0q2.984375 0 3.890625 0.25q1.390625 0.359375 2.328125 1.578125q0.953125 1.21875 0.953125 3.15625q0 1.5 -0.546875 2.515625q-0.546875 1.015625 -1.390625 1.609375q-0.828125 0.578125 -1.6875 0.765625q-1.171875 0.21875 -3.390625 0.21875l-2.140625 0l0 6.125l-3.28125 0zm3.28125 -13.46875l0 4.59375l1.796875 0q1.9375 0 2.578125 -0.25q0.65625 -0.25 1.03125 -0.796875q0.375 -0.546875 0.375 -1.265625q0 -0.875 -0.53125 -1.453125q-0.515625 -0.578125 -1.3125 -0.71875q-0.578125 -0.109375 -2.359375 -0.109375l-1.578125 0zm14.799011 13.46875l-3.109375 0l0 -11.75l2.875 0l0 1.671875q0.75 -1.1875 1.34375 -1.5625q0.59375 -0.375 1.34375 -0.375q1.0625 0 2.046875 0.59375l-0.96875 2.703125q-0.78125 -0.5 -1.453125 -0.5q-0.65625 0 -1.109375 0.359375q-0.453125 0.359375 -0.71875 1.296875q-0.25 0.9375 -0.25 3.9375l0 3.625zm5.8325806 -13.34375l0 -2.875l3.109375 0l0 2.875l-3.109375 0zm0 13.34375l0 -11.75l3.109375 0l0 11.75l-3.109375 0zm9.528992 0l-4.734375 -11.75l3.265625 0l2.203125 6.0l0.640625 2.0q0.265625 -0.765625 0.328125 -1.0q0.15625 -0.5 0.328125 -1.0l2.234375 -6.0l3.203125 0l-4.671875 11.75l-2.796875 0zm11.694092 -8.171875l-2.828125 -0.5q0.484375 -1.703125 1.640625 -2.515625q1.15625 -0.828125 3.453125 -0.828125q2.078125 0 3.09375 0.5q1.015625 0.484375 1.421875 1.25q0.421875 0.75 0.421875 2.78125l-0.03125 3.625q0 1.546875 0.140625 2.28125q0.15625 0.734375 0.578125 1.578125l-3.078125 0q-0.125 -0.3125 -0.296875 -0.921875q-0.078125 -0.265625 -0.109375 -0.359375q-0.796875 0.765625 -1.71875 1.15625q-0.90625 0.390625 -1.921875 0.390625q-1.828125 0 -2.875 -0.984375q-1.03125 -0.984375 -1.03125 -2.484375q0 -1.0 0.46875 -1.78125q0.484375 -0.78125 1.328125 -1.1875q0.859375 -0.421875 2.484375 -0.734375q2.171875 -0.40625 3.015625 -0.765625l0 -0.296875q0 -0.90625 -0.453125 -1.28125q-0.4375 -0.390625 -1.65625 -0.390625q-0.828125 0 -1.296875 0.328125q-0.46875 0.328125 -0.75 1.140625zm4.15625 2.53125q-0.59375 0.203125 -1.890625 0.484375q-1.296875 0.265625 -1.6875 0.53125q-0.609375 0.4375 -0.609375 1.09375q0 0.65625 0.484375 1.140625q0.484375 0.46875 1.234375 0.46875q0.84375 0 1.609375 -0.5625q0.5625 -0.40625 0.734375 -1.015625q0.125 -0.40625 0.125 -1.515625l0 -0.625zm11.506531 -6.109375l0 2.484375l-2.125 0l0 4.734375q0 1.4375 0.0625 1.671875q0.0625 0.234375 0.265625 0.390625q0.21875 0.15625 0.53125 0.15625q0.4375 0 1.25 -0.296875l0.265625 2.40625q-1.078125 0.46875 -2.453125 0.46875q-0.84375 0 -1.515625 -0.28125q-0.671875 -0.28125 -1.0 -0.71875q-0.3125 -0.453125 -0.421875 -1.21875q-0.109375 -0.546875 -0.109375 -2.203125l0 -5.109375l-1.421875 0l0 -2.484375l1.421875 0l0 -2.328125l3.125 -1.8125l0 4.140625l2.125 0zm8.966614 8.015625l3.09375 0.515625q-0.59375 1.703125 -1.890625 2.59375q-1.28125 0.890625 -3.21875 0.890625q-3.0625 0 -4.546875 -2.0q-1.15625 -1.609375 -1.15625 -4.046875q0 -2.921875 1.515625 -4.578125q1.53125 -1.65625 3.875 -1.65625q2.625 0 4.140625 1.734375q1.515625 1.734375 1.4375 5.296875l-7.78125 0q0.03125 1.390625 0.75 2.15625q0.71875 0.765625 1.796875 0.765625q0.71875 0 1.21875 -0.390625q0.5 -0.40625 0.765625 -1.28125zm0.171875 -3.140625q-0.03125 -1.359375 -0.703125 -2.0625q-0.65625 -0.703125 -1.609375 -0.703125q-1.015625 0 -1.6875 0.75q-0.65625 0.734375 -0.65625 2.015625l4.65625 0z" fill-rule="nonzero"/></g></svg>