<svg version="1.1" viewBox="0.0 0.0 457.0 283.0" fill="none" stroke="none" stroke-linecap="square" stroke-miterlimit="10" width="457" height="283" xmlns:xlink="http://www.w3.org/1999/xlink" xmlns="http://www.w3.org/2000/svg"><path fill="#ffffff" fill-opacity="0.0" d="M0 0L457.0 0L457.0 283.0L0 283.0L0 0Z" fill-rule="nonzero"/><path fill="#7baaf7" d="M47.154217 121.87048C53.81407 70.873184 114.909615 31.8375 188.06667 31.8375L188.06667 130.8875Z" fill-rule="nonzero"/><path fill="#46bdc6" d="M46.58825 129.15752C46.648968 126.724464 46.83775 124.29381 47.154217 121.87048L188.06667 130.8875Z" fill-rule="nonzero"/><path fill="#b34c01" d="M47.0102 159.94884C46.714626 157.34186 46.566666 154.72769 46.566666 152.1125L46.566666 130.8875C46.566666 133.50269 46.714626 136.11685 47.0102 138.72385Z" fill-rule="nonzero"/><path fill="#ff6d01" d="M47.0102 138.72385C46.649418 135.54169 46.508602 132.3492 46.58825 129.15752L188.06667 130.8875Z" fill-rule="nonzero"/><path fill="#24763a" d="M50.153217 174.272C48.607353 169.55774 47.55687 164.77055 47.0102 159.94884L47.0102 138.72385C47.55687 143.54555 48.607353 148.33275 50.153217 153.04701Z" fill-rule="nonzero"/><path fill="#34a853" d="M50.153217 153.04701C48.607353 148.33275 47.55687 143.54555 47.0102 138.72385L188.06667 130.8875Z" fill-rule="nonzero"/><path fill="#b08403" d="M80.75007 216.6698C65.789406 204.4836 55.288517 189.9326 50.153217 174.272L50.153217 153.04701C55.288517 168.70761 65.789406 183.25859 80.75007 195.4448Z" fill-rule="nonzero"/><path fill="#fbbc04" d="M80.75007 195.4448C65.789406 183.25859 55.288517 168.70761 50.153217 153.04701L188.06667 130.8875Z" fill-rule="nonzero"/><path fill="#a42f25" d="M98.04346 228.53145C91.80546 224.93068 86.01982 220.96228 80.75007 216.6698L80.75007 195.4448C86.01982 199.73727 91.80546 203.70567 98.04346 207.30644Z" fill-rule="nonzero"/><path fill="#ea4335" d="M98.04346 207.30644C91.80546 203.70567 86.01982 199.73727 80.75007 195.4448L188.06667 130.8875Z" fill-rule="nonzero"/><path fill="#2e5dab" d="M329.56668 152.1125C329.56668 190.45314 297.95657 225.35025 248.41551 241.70229C198.87444 258.05432 140.30136 252.92401 98.04346 228.53145L98.04346 207.30644C140.30136 231.699 198.87444 236.82933 248.41551 220.4773C297.95657 204.12526 329.56668 169.22815 329.56668 130.8875Z" fill-rule="nonzero"/><path fill="#4285f4" d="M188.06667 31.8375C250.43466 31.8375 305.44806 60.42137 323.50583 102.20899C341.5636 143.99661 318.40686 189.13258 266.4956 213.3306C214.58435 237.52861 146.16154 235.08168 98.04346 207.30644L188.06667 130.8875Z" fill-rule="nonzero"/><path fill="#000000" d="M271.71655 159.7995L271.71655 157.39325L267.35718 157.39325L267.35718 156.26825L271.9353 149.78387L272.9353 149.78387L272.9353 156.26825L274.29468 156.26825L274.29468 157.39325L272.9353 157.39325L272.9353 159.7995L271.71655 159.7995ZM271.71655 156.26825L271.71655 151.75262L268.57593 156.26825L271.71655 156.26825ZM275.76343 154.862Q275.76343 153.08075 276.1228 152.00262Q276.4978 150.90887 277.21655 150.33075Q277.9353 149.737 279.02905 149.737Q279.84155 149.737 280.45093 150.06512Q281.0603 150.39325 281.45093 151.00262Q281.85718 151.612 282.07593 152.487Q282.29468 153.362 282.29468 154.862Q282.29468 156.62762 281.9353 157.70575Q281.57593 158.78387 280.85718 159.37762Q280.13843 159.97137 279.02905 159.97137Q277.59155 159.97137 276.76343 158.9245Q275.76343 157.6745 275.76343 154.862ZM277.02905 154.862Q277.02905 157.33075 277.60718 158.14325Q278.1853 158.95575 279.02905 158.95575Q279.88843 158.95575 280.46655 158.14325Q281.04468 157.31512 281.04468 154.862Q281.04468 152.37762 280.46655 151.56512Q279.88843 150.75262 279.01343 150.75262Q278.16968 150.75262 277.66968 151.47137Q277.02905 152.39325 277.02905 154.862ZM283.76343 154.862Q283.76343 153.08075 284.1228 152.00262Q284.4978 150.90887 285.21655 150.33075Q285.9353 149.737 287.02905 149.737Q287.84155 149.737 288.45093 150.06512Q289.0603 150.39325 289.45093 151.00262Q289.85718 151.612 290.07593 152.487Q290.29468 153.362 290.29468 154.862Q290.29468 156.62762 289.9353 157.70575Q289.57593 158.78387 288.85718 159.37762Q288.13843 159.97137 287.02905 159.97137Q285.59155 159.97137 284.76343 158.9245Q283.76343 157.6745 283.76343 154.862ZM285.02905 154.862Q285.02905 157.33075 285.60718 158.14325Q286.1853 158.95575 287.02905 158.95575Q287.88843 158.95575 288.46655 158.14325Q289.04468 157.31512 289.04468 154.862Q289.04468 152.37762 288.46655 151.56512Q287.88843 150.75262 287.01343 150.75262Q286.16968 150.75262 285.66968 151.47137Q285.02905 152.39325 285.02905 154.862ZM291.77905 157.15887L292.9978 156.987Q293.21655 158.03387 293.71655 158.50262Q294.23218 158.95575 294.96655 158.95575Q295.84155 158.95575 296.4353 158.362Q297.02905 157.75262 297.02905 156.862Q297.02905 156.01825 296.46655 155.47137Q295.91968 154.9245 295.07593 154.9245Q294.71655 154.9245 294.20093 155.0495L294.34155 153.97137Q294.46655 153.987 294.52905 153.987Q295.32593 153.987 295.95093 153.58075Q296.57593 153.1745 296.57593 152.31512Q296.57593 151.64325 296.1228 151.20575Q295.66968 150.75262 294.9353 150.75262Q294.21655 150.75262 293.73218 151.20575Q293.26343 151.64325 293.1228 152.5495L291.90405 152.33075Q292.1228 151.09637 292.91968 150.4245Q293.71655 149.737 294.90405 149.737Q295.73218 149.737 296.41968 150.09637Q297.10718 150.44012 297.46655 151.0495Q297.84155 151.65887 297.84155 152.34637Q297.84155 152.987 297.4978 153.51825Q297.15405 154.0495 296.46655 154.37762Q297.35718 154.58075 297.84155 155.22137Q298.34155 155.862 298.34155 156.84637Q298.34155 158.15887 297.3728 159.06512Q296.41968 159.97137 294.96655 159.97137Q293.63843 159.97137 292.76343 159.19012Q291.90405 158.40887 291.77905 157.15887Z" fill-rule="nonzero"/><path fill="#000000" d="M84.77039 165.75058L86.06727 165.6412Q86.20789 166.5787 86.72352 167.06308Q87.25477 167.53183 87.98914 167.53183Q88.87977 167.53183 89.48914 166.85995Q90.11414 166.18808 90.11414 165.09433Q90.11414 164.03183 89.52039 163.42245Q88.92664 162.81308 87.97352 162.81308Q87.37977 162.81308 86.89539 163.09433Q86.42664 163.35995 86.14539 163.78183L84.98914 163.6412L85.95789 158.48495L90.94227 158.48495L90.94227 159.67245L86.94227 159.67245L86.41102 162.35995Q87.31727 161.73495 88.30164 161.73495Q89.61414 161.73495 90.50477 162.6412Q91.41102 163.54745 91.41102 164.98495Q91.41102 166.34433 90.62977 167.3287Q89.66102 168.54745 87.98914 168.54745Q86.62977 168.54745 85.75477 167.78183Q84.89539 167.0162 84.77039 165.75058ZM92.77039 163.43808Q92.77039 161.65683 93.12977 160.5787Q93.50477 159.48495 94.22352 158.90683Q94.94227 158.31308 96.03602 158.31308Q96.84852 158.31308 97.45789 158.6412Q98.06727 158.96933 98.45789 159.5787Q98.86414 160.18808 99.08289 161.06308Q99.30164 161.93808 99.30164 163.43808Q99.30164 165.2037 98.94227 166.28183Q98.58289 167.35995 97.86414 167.9537Q97.14539 168.54745 96.03602 168.54745Q94.59852 168.54745 93.77039 167.50058Q92.77039 166.25058 92.77039 163.43808ZM94.03602 163.43808Q94.03602 165.90683 94.61414 166.71933Q95.19227 167.53183 96.03602 167.53183Q96.89539 167.53183 97.47352 166.71933Q98.05164 165.8912 98.05164 163.43808Q98.05164 160.9537 97.47352 160.1412Q96.89539 159.3287 96.02039 159.3287Q95.17664 159.3287 94.67664 160.04745Q94.03602 160.96933 94.03602 163.43808ZM107.16102 160.81308L105.94227 160.90683Q105.77039 160.17245 105.47352 159.84433Q104.97352 159.3287 104.23914 159.3287Q103.64539 159.3287 103.20789 159.65683Q102.62977 160.0787 102.28602 160.8912Q101.95789 161.7037 101.94227 163.2037Q102.37977 162.53183 103.02039 162.2037Q103.67664 161.87558 104.37977 161.87558Q105.61414 161.87558 106.47352 162.78183Q107.33289 163.68808 107.33289 165.12558Q107.33289 166.06308 106.92664 166.87558Q106.52039 167.68808 105.80164 168.12558Q105.09852 168.54745 104.19227 168.54745Q102.66102 168.54745 101.69227 167.42245Q100.72352 166.28183 100.72352 163.68808Q100.72352 160.78183 101.78602 159.4537Q102.72352 158.31308 104.31727 158.31308Q105.50477 158.31308 106.25477 158.98495Q107.00477 159.6412 107.16102 160.81308ZM102.12977 165.12558Q102.12977 165.7662 102.39539 166.34433Q102.67664 166.92245 103.16102 167.23495Q103.64539 167.53183 104.17664 167.53183Q104.95789 167.53183 105.52039 166.90683Q106.08289 166.28183 106.08289 165.2037Q106.08289 164.15683 105.52039 163.56308Q104.97352 162.9537 104.12977 162.9537Q103.30164 162.9537 102.70789 163.56308Q102.12977 164.15683 102.12977 165.12558Z" fill-rule="nonzero"/><path fill="#000000" d="M111.35321 85.3235L110.118835 85.3235L110.118835 77.47975Q109.681335 77.90163 108.94696 78.33913Q108.22821 78.761 107.66571 78.96413L107.66571 77.77663Q108.69696 77.29225 109.462585 76.60475Q110.243835 75.91725 110.556335 75.261L111.35321 75.261L111.35321 85.3235ZM114.712585 82.6985L116.00946 82.58913Q116.150085 83.52663 116.66571 84.011Q117.19696 84.47975 117.931335 84.47975Q118.82196 84.47975 119.431335 83.80788Q120.056335 83.136 120.056335 82.04225Q120.056335 80.97975 119.462585 80.37038Q118.868835 79.761 117.91571 79.761Q117.32196 79.761 116.837585 80.04225Q116.368835 80.30788 116.087585 80.72975L114.931335 80.58913L115.900085 75.43288L120.88446 75.43288L120.88446 76.62038L116.88446 76.62038L116.35321 79.30788Q117.25946 78.68288 118.243835 78.68288Q119.556335 78.68288 120.44696 79.58913Q121.35321 80.49538 121.35321 81.93288Q121.35321 83.29225 120.57196 84.27663Q119.60321 85.49538 117.931335 85.49538Q116.57196 85.49538 115.69696 84.72975Q114.837585 83.96413 114.712585 82.6985ZM126.66571 85.3235L126.66571 82.91725L122.306335 82.91725L122.306335 81.79225L126.88446 75.30788L127.88446 75.30788L127.88446 81.79225L129.24384 81.79225L129.24384 82.91725L127.88446 82.91725L127.88446 85.3235L126.66571 85.3235ZM126.66571 81.79225L126.66571 77.27663L123.525085 81.79225L126.66571 81.79225ZM137.10321 77.761L135.88446 77.85475Q135.71259 77.12038 135.41571 76.79225Q134.91571 76.27663 134.18134 76.27663Q133.58759 76.27663 133.15009 76.60475Q132.57196 77.02663 132.22821 77.83913Q131.90009 78.65163 131.88446 80.15163Q132.32196 79.47975 132.96259 79.15163Q133.61884 78.8235 134.32196 78.8235Q135.55634 78.8235 136.41571 79.72975Q137.27509 80.636 137.27509 82.0735Q137.27509 83.011 136.86884 83.8235Q136.46259 84.636 135.74384 85.0735Q135.04071 85.49538 134.13446 85.49538Q132.60321 85.49538 131.63446 84.37038Q130.66571 83.22975 130.66571 80.636Q130.66571 77.72975 131.72821 76.40163Q132.66571 75.261 134.25946 75.261Q135.44696 75.261 136.19696 75.93288Q136.94696 76.58913 137.10321 77.761ZM132.07196 82.0735Q132.07196 82.71413 132.33759 83.29225Q132.61884 83.87038 133.10321 84.18288Q133.58759 84.47975 134.11884 84.47975Q134.90009 84.47975 135.46259 83.85475Q136.02509 83.22975 136.02509 82.15163Q136.02509 81.10475 135.46259 80.511Q134.91571 79.90163 134.07196 79.90163Q133.24384 79.90163 132.65009 80.511Q132.07196 81.10475 132.07196 82.0735Z" fill-rule="nonzero"/><path fill="#4285f4" d="M407.0 7.0C407.0 10.313708 404.31372 13.0 401.0 13.0C397.68628 13.0 395.0 10.313708 395.0 7.0C395.0 3.6862915 397.68628 1.0 401.0 1.0C404.31372 1.0 407.0 3.6862915 407.0 7.0Z" fill-rule="nonzero"/><path fill="#cc77ff" d="M419.85938 8.71875L420.89062 8.859375Q420.71875 9.921875 420.01562 10.53125Q419.3125 11.140625 418.29688 11.140625Q417.01562 11.140625 416.23438 10.3125Q415.46875 9.46875 415.46875 7.90625Q415.46875 6.90625 415.79688 6.15625Q416.14062 5.390625 416.8125 5.015625Q417.5 4.640625 418.3125 4.640625Q419.3125 4.640625 419.95312 5.15625Q420.60938 5.65625 420.79688 6.609375L419.76562 6.765625Q419.625 6.140625 419.25 5.828125Q418.875 5.5 418.34375 5.5Q417.54688 5.5 417.04688 6.078125Q416.54688 6.640625 416.54688 7.875Q416.54688 9.140625 417.03125 9.703125Q417.51562 10.265625 418.28125 10.265625Q418.90625 10.265625 419.3125 9.890625Q419.73438 9.515625 419.85938 8.71875ZM421.40625 7.890625Q421.40625 6.15625 422.35938 5.328125Q423.15625 4.640625 424.3125 4.640625Q425.59375 4.640625 426.40625 5.484375Q427.23438 6.3125 427.23438 7.796875Q427.23438 9.0 426.875 9.6875Q426.51562 10.375 425.8125 10.765625Q425.125 11.140625 424.3125 11.140625Q423.01562 11.140625 422.20312 10.3125Q421.40625 9.46875 421.40625 7.890625ZM422.48438 7.890625Q422.48438 9.078125 423.0 9.671875Q423.53125 10.265625 424.3125 10.265625Q425.10938 10.265625 425.625 9.671875Q426.14062 9.078125 426.14062 7.859375Q426.14062 6.703125 425.60938 6.109375Q425.09375 5.515625 424.3125 5.515625Q423.53125 5.515625 423.0 6.109375Q422.48438 6.6875 422.48438 7.890625ZM428.78125 11.0L428.78125 4.78125L429.73438 4.78125L429.73438 5.71875Q430.09375 5.0625 430.39062 4.859375Q430.70312 4.640625 431.07812 4.640625Q431.60938 4.640625 432.15625 4.96875L431.79688 5.953125Q431.40625 5.71875 431.03125 5.71875Q430.67188 5.71875 430.39062 5.9375Q430.125 6.140625 430.01562 6.515625Q429.82812 7.078125 429.82812 7.734375L429.82812 11.0L428.78125 11.0ZM437.04688 9.0L438.14062 9.125Q437.89062 10.078125 437.1875 10.609375Q436.48438 11.140625 435.40625 11.140625Q434.04688 11.140625 433.23438 10.296875Q432.4375 9.453125 432.4375 7.9375Q432.4375 6.375 433.25 5.515625Q434.0625 4.640625 435.34375 4.640625Q436.59375 4.640625 437.375 5.484375Q438.17188 6.328125 438.17188 7.875Q438.17188 7.96875 438.17188 8.15625L433.53125 8.15625Q433.59375 9.1875 434.10938 9.734375Q434.625 10.265625 435.40625 10.265625Q435.98438 10.265625 436.39062 9.96875Q436.8125 9.65625 437.04688 9.0ZM433.59375 7.296875L437.0625 7.296875Q437.0 6.5 436.67188 6.109375Q436.15625 5.5 435.35938 5.5Q434.625 5.5 434.125 5.984375Q433.64062 6.46875 433.59375 7.296875Z" fill-rule="nonzero"/><path fill="#ea4335" d="M407.0 31.0C407.0 34.31371 404.31372 37.0 401.0 37.0C397.68628 37.0 395.0 34.31371 395.0 31.0C395.0 27.68629 397.68628 25.0 401.0 25.0C404.31372 25.0 407.0 27.68629 407.0 31.0Z" fill-rule="nonzero"/><path fill="#cc77ff" d="M419.85938 32.71875L420.89062 32.859375Q420.71875 33.921875 420.01562 34.53125Q419.3125 35.140625 418.29688 35.140625Q417.01562 35.140625 416.23438 34.3125Q415.46875 33.46875 415.46875 31.90625Q415.46875 30.90625 415.79688 30.15625Q416.14062 29.390625 416.8125 29.015625Q417.5 28.640625 418.3125 28.640625Q419.3125 28.640625 419.95312 29.15625Q420.60938 29.65625 420.79688 30.609375L419.76562 30.765625Q419.625 30.140625 419.25 29.828125Q418.875 29.5 418.34375 29.5Q417.54688 29.5 417.04688 30.078125Q416.54688 30.640625 416.54688 31.875Q416.54688 33.140625 417.03125 33.703125Q417.51562 34.265625 418.28125 34.265625Q418.90625 34.265625 419.3125 33.890625Q419.73438 33.515625 419.85938 32.71875ZM421.79688 35.0L421.79688 28.78125L422.73438 28.78125L422.73438 29.65625Q423.03125 29.1875 423.51562 28.921875Q424.0 28.640625 424.625 28.640625Q425.3125 28.640625 425.75 28.921875Q426.20312 29.203125 426.375 29.71875Q427.125 28.640625 428.29688 28.640625Q429.23438 28.640625 429.71875 29.15625Q430.21875 29.65625 430.21875 30.734375L430.21875 35.0L429.17188 35.0L429.17188 31.078125Q429.17188 30.453125 429.0625 30.171875Q428.96875 29.890625 428.70312 29.71875Q428.4375 29.546875 428.0625 29.546875Q427.40625 29.546875 426.96875 29.984375Q426.54688 30.421875 426.54688 31.390625L426.54688 35.0L425.48438 35.0L425.48438 30.953125Q425.48438 30.25 425.21875 29.90625Q424.96875 29.546875 424.39062 29.546875Q423.9375 29.546875 423.5625 29.78125Q423.1875 30.015625 423.01562 30.46875Q422.84375 30.921875 422.84375 31.765625L422.84375 35.0L421.79688 35.0ZM436.82812 35.0L436.82812 34.21875Q436.23438 35.140625 435.09375 35.140625Q434.34375 35.140625 433.71875 34.734375Q433.09375 34.3125 432.75 33.578125Q432.40625 32.84375 432.40625 31.890625Q432.40625 30.96875 432.71875 30.203125Q433.03125 29.4375 433.65625 29.046875Q434.28125 28.640625 435.04688 28.640625Q435.60938 28.640625 436.04688 28.875Q436.48438 29.109375 436.76562 29.484375L436.76562 26.40625L437.8125 26.40625L437.8125 35.0L436.82812 35.0ZM433.5 31.890625Q433.5 33.09375 434.0 33.6875Q434.5 34.265625 435.1875 34.265625Q435.875 34.265625 436.35938 33.703125Q436.84375 33.140625 436.84375 31.984375Q436.84375 30.703125 436.34375 30.109375Q435.85938 29.515625 435.14062 29.515625Q434.4375 29.515625 433.96875 30.09375Q433.5 30.65625 433.5 31.890625Z" fill-rule="nonzero"/><path fill="#fbbc04" d="M407.0 55.0C407.0 58.31371 404.31372 61.0 401.0 61.0C397.68628 61.0 395.0 58.31371 395.0 55.0C395.0 51.68629 397.68628 49.0 401.0 49.0C404.31372 49.0 407.0 51.68629 407.0 55.0Z" fill-rule="nonzero"/><path fill="#cc77ff" d="M415.79688 51.625L415.79688 50.40625L416.85938 50.40625L416.85938 51.625L415.79688 51.625ZM415.79688 59.0L415.79688 52.78125L416.85938 52.78125L416.85938 59.0L415.79688 59.0ZM418.40625 55.890625Q418.40625 54.15625 419.35938 53.328125Q420.15625 52.640625 421.3125 52.640625Q422.59375 52.640625 423.40625 53.484375Q424.23438 54.3125 424.23438 55.796875Q424.23438 57.0 423.875 57.6875Q423.51562 58.375 422.8125 58.765625Q422.125 59.140625 421.3125 59.140625Q420.01562 59.140625 419.20312 58.3125Q418.40625 57.46875 418.40625 55.890625ZM419.48438 55.890625Q419.48438 57.078125 420.0 57.671875Q420.53125 58.265625 421.3125 58.265625Q422.10938 58.265625 422.625 57.671875Q423.14062 57.078125 423.14062 55.859375Q423.14062 54.703125 422.60938 54.109375Q422.09375 53.515625 421.3125 53.515625Q420.53125 53.515625 420.0 54.109375Q419.48438 54.6875 419.48438 55.890625Z" fill-rule="nonzero"/><path fill="#34a853" d="M407.0 79.0C407.0 82.313705 404.31372 85.0 401.0 85.0C397.68628 85.0 395.0 82.313705 395.0 79.0C395.0 75.686295 397.68628 73.0 401.0 73.0C404.31372 73.0 407.0 75.686295 407.0 79.0Z" fill-rule="nonzero"/><path fill="#cc77ff" d="M418.09375 82.0625L418.25 82.984375Q417.79688 83.078125 417.45312 83.078125Q416.875 83.078125 416.5625 82.90625Q416.25 82.71875 416.10938 82.421875Q415.98438 82.125 415.98438 81.171875L415.98438 77.59375L415.21875 77.59375L415.21875 76.78125L415.98438 76.78125L415.98438 75.234375L417.03125 74.609375L417.03125 76.78125L418.09375 76.78125L418.09375 77.59375L417.03125 77.59375L417.03125 81.234375Q417.03125 81.6875 417.07812 81.8125Q417.14062 81.9375 417.26562 82.015625Q417.39062 82.09375 417.625 82.09375Q417.8125 82.09375 418.09375 82.0625ZM422.85938 82.234375Q422.26562 82.734375 421.71875 82.9375Q421.1875 83.140625 420.5625 83.140625Q419.53125 83.140625 418.98438 82.640625Q418.4375 82.140625 418.4375 81.359375Q418.4375 80.90625 418.64062 80.53125Q418.84375 80.140625 419.1875 79.921875Q419.53125 79.6875 419.95312 79.578125Q420.25 79.484375 420.89062 79.40625Q422.15625 79.265625 422.76562 79.046875Q422.76562 78.828125 422.76562 78.78125Q422.76562 78.125 422.46875 77.859375Q422.0625 77.515625 421.26562 77.515625Q420.53125 77.515625 420.17188 77.78125Q419.8125 78.03125 419.64062 78.6875L418.60938 78.546875Q418.75 77.890625 419.07812 77.484375Q419.40625 77.078125 420.01562 76.859375Q420.625 76.640625 421.42188 76.640625Q422.21875 76.640625 422.71875 76.828125Q423.21875 77.015625 423.45312 77.296875Q423.6875 77.578125 423.78125 78.015625Q423.82812 78.28125 423.82812 78.984375L423.82812 80.390625Q423.82812 81.859375 423.89062 82.25Q423.96875 82.640625 424.17188 83.0L423.0625 83.0Q422.90625 82.671875 422.85938 82.234375ZM422.76562 79.875Q422.1875 80.109375 421.04688 80.28125Q420.39062 80.375 420.125 80.5Q419.85938 80.609375 419.70312 80.828125Q419.5625 81.046875 419.5625 81.328125Q419.5625 81.75 419.875 82.03125Q420.20312 82.3125 420.8125 82.3125Q421.42188 82.3125 421.89062 82.046875Q422.375 81.78125 422.59375 81.3125Q422.76562 80.953125 422.76562 80.265625L422.76562 79.875ZM425.78125 83.0L425.78125 76.78125L426.73438 76.78125L426.73438 77.71875Q427.09375 77.0625 427.39062 76.859375Q427.70312 76.640625 428.07812 76.640625Q428.60938 76.640625 429.15625 76.96875L428.79688 77.953125Q428.40625 77.71875 428.03125 77.71875Q427.67188 77.71875 427.39062 77.9375Q427.125 78.140625 427.01562 78.515625Q426.82812 79.078125 426.82812 79.734375L426.82812 83.0L425.78125 83.0ZM429.59375 83.515625L430.625 83.671875Q430.6875 84.140625 430.98438 84.359375Q431.375 84.65625 432.04688 84.65625Q432.78125 84.65625 433.17188 84.359375Q433.57812 84.0625 433.71875 83.546875Q433.8125 83.21875 433.79688 82.1875Q433.10938 83.0 432.07812 83.0Q430.79688 83.0 430.09375 82.078125Q429.39062 81.140625 429.39062 79.859375Q429.39062 78.96875 429.70312 78.21875Q430.03125 77.453125 430.64062 77.046875Q431.25 76.640625 432.07812 76.640625Q433.1875 76.640625 433.90625 77.53125L433.90625 76.78125L434.875 76.78125L434.875 82.15625Q434.875 83.609375 434.57812 84.21875Q434.28125 84.828125 433.64062 85.171875Q433.0 85.53125 432.0625 85.53125Q430.95312 85.53125 430.26562 85.03125Q429.57812 84.53125 429.59375 83.515625ZM430.46875 79.78125Q430.46875 81.0 430.95312 81.5625Q431.4375 82.125 432.17188 82.125Q432.90625 82.125 433.39062 81.5625Q433.89062 81.0 433.89062 79.8125Q433.89062 78.671875 433.375 78.09375Q432.875 77.515625 432.15625 77.515625Q431.45312 77.515625 430.95312 78.09375Q430.46875 78.65625 430.46875 79.78125ZM441.04688 81.0L442.14062 81.125Q441.89062 82.078125 441.1875 82.609375Q440.48438 83.140625 439.40625 83.140625Q438.04688 83.140625 437.23438 82.296875Q436.4375 81.453125 436.4375 79.9375Q436.4375 78.375 437.25 77.515625Q438.0625 76.640625 439.34375 76.640625Q440.59375 76.640625 441.375 77.484375Q442.17188 78.328125 442.17188 79.875Q442.17188 79.96875 442.17188 80.15625L437.53125 80.15625Q437.59375 81.1875 438.10938 81.734375Q438.625 82.265625 439.40625 82.265625Q439.98438 82.265625 440.39062 81.96875Q440.8125 81.65625 441.04688 81.0ZM437.59375 79.296875L441.0625 79.296875Q441.0 78.5 440.67188 78.109375Q440.15625 77.5 439.35938 77.5Q438.625 77.5 438.125 77.984375Q437.64062 78.46875 437.59375 79.296875ZM446.09375 82.0625L446.25 82.984375Q445.79688 83.078125 445.45312 83.078125Q444.875 83.078125 444.5625 82.90625Q444.25 82.71875 444.10938 82.421875Q443.98438 82.125 443.98438 81.171875L443.98438 77.59375L443.21875 77.59375L443.21875 76.78125L443.98438 76.78125L443.98438 75.234375L445.03125 74.609375L445.03125 76.78125L446.09375 76.78125L446.09375 77.59375L445.03125 77.59375L445.03125 81.234375Q445.03125 81.6875 445.07812 81.8125Q445.14062 81.9375 445.26562 82.015625Q445.39062 82.09375 445.625 82.09375Q445.8125 82.09375 446.09375 82.0625Z" fill-rule="nonzero"/><path fill="#ff6d01" d="M407.0 103.0C407.0 106.313705 404.31372 109.0 401.0 109.0C397.68628 109.0 395.0 106.313705 395.0 103.0C395.0 99.686295 397.68628 97.0 401.0 97.0C404.31372 97.0 407.0 99.686295 407.0 103.0Z" fill-rule="nonzero"/><path fill="#cc77ff" d="M419.875 107.0L419.875 106.078125Q419.14062 107.140625 417.89062 107.140625Q417.34375 107.140625 416.85938 106.9375Q416.39062 106.71875 416.15625 106.40625Q415.92188 106.078125 415.82812 105.609375Q415.76562 105.3125 415.76562 104.625L415.76562 100.78125L416.82812 100.78125L416.82812 104.234375Q416.82812 105.046875 416.89062 105.34375Q416.98438 105.75 417.29688 106.0Q417.625 106.234375 418.10938 106.234375Q418.57812 106.234375 418.98438 106.0Q419.40625 105.75 419.57812 105.328125Q419.76562 104.90625 419.76562 104.109375L419.76562 100.78125L420.8125 100.78125L420.8125 107.0L419.875 107.0ZM423.04688 107.0L423.04688 101.59375L422.10938 101.59375L422.10938 100.78125L423.04688 100.78125L423.04688 100.109375Q423.04688 99.484375 423.15625 99.1875Q423.3125 98.765625 423.6875 98.515625Q424.07812 98.265625 424.76562 98.265625Q425.21875 98.265625 425.75 98.375L425.59375 99.28125Q425.26562 99.234375 424.96875 99.234375Q424.48438 99.234375 424.28125 99.4375Q424.09375 99.640625 424.09375 100.203125L424.09375 100.78125L425.3125 100.78125L425.3125 101.59375L424.09375 101.59375L424.09375 107.0L423.04688 107.0ZM431.04688 105.984375L431.04688 107.0L425.35938 107.0Q425.35938 106.625 425.48438 106.265625Q425.70312 105.6875 426.17188 105.125Q426.65625 104.5625 427.5625 103.828125Q428.96875 102.671875 429.45312 102.0Q429.95312 101.328125 429.95312 100.734375Q429.95312 100.109375 429.5 99.6875Q429.04688 99.25 428.32812 99.25Q427.5625 99.25 427.10938 99.703125Q426.65625 100.15625 426.64062 100.96875L425.5625 100.859375Q425.67188 99.640625 426.39062 99.015625Q427.125 98.375 428.35938 98.375Q429.59375 98.375 430.3125 99.0625Q431.03125 99.75 431.03125 100.765625Q431.03125 101.28125 430.8125 101.78125Q430.60938 102.265625 430.10938 102.828125Q429.625 103.375 428.5 104.328125Q427.54688 105.125 427.26562 105.421875Q427.0 105.703125 426.82812 105.984375L431.04688 105.984375Z" fill-rule="nonzero"/><path fill="#46bdc6" d="M407.0 127.0C407.0 130.3137 404.31372 133.0 401.0 133.0C397.68628 133.0 395.0 130.3137 395.0 127.0C395.0 123.686295 397.68628 121.0 401.0 121.0C404.31372 121.0 407.0 123.686295 407.0 127.0Z" fill-rule="nonzero"/><path fill="#cc77ff" d="M418.09375 130.0625L418.25 130.98438Q417.79688 131.07812 417.45312 131.07812Q416.875 131.07812 416.5625 130.90625Q416.25 130.71875 416.10938 130.42188Q415.98438 130.125 415.98438 129.17188L415.98438 125.59375L415.21875 125.59375L415.21875 124.78125L415.98438 124.78125L415.98438 123.234375L417.03125 122.609375L417.03125 124.78125L418.09375 124.78125L418.09375 125.59375L417.03125 125.59375L417.03125 129.23438Q417.03125 129.6875 417.07812 129.8125Q417.14062 129.9375 417.26562 130.01562Q417.39062 130.09375 417.625 130.09375Q417.8125 130.09375 418.09375 130.0625ZM418.79688 123.625L418.79688 122.40625L419.85938 122.40625L419.85938 123.625L418.79688 123.625ZM418.79688 131.0L418.79688 124.78125L419.85938 124.78125L419.85938 131.0L418.79688 131.0ZM421.79688 131.0L421.79688 124.78125L422.73438 124.78125L422.73438 125.65625Q423.42188 124.640625 424.71875 124.640625Q425.28125 124.640625 425.75 124.84375Q426.23438 125.046875 426.46875 125.375Q426.70312 125.703125 426.79688 126.140625Q426.84375 126.4375 426.84375 127.171875L426.84375 131.0L425.79688 131.0L425.79688 127.21875Q425.79688 126.5625 425.67188 126.25Q425.54688 125.9375 425.23438 125.75Q424.92188 125.546875 424.5 125.546875Q423.82812 125.546875 423.32812 125.984375Q422.84375 126.40625 422.84375 127.59375L422.84375 131.0L421.79688 131.0ZM428.75 133.39062L428.625 132.40625Q428.96875 132.5 429.23438 132.5Q429.57812 132.5 429.78125 132.375Q430.0 132.26562 430.14062 132.0625Q430.23438 131.89062 430.46875 131.26562Q430.48438 131.1875 430.5625 131.01562L428.1875 124.78125L429.32812 124.78125L430.625 128.375Q430.875 129.0625 431.07812 129.82812Q431.26562 129.09375 431.51562 128.40625L432.84375 124.78125L433.89062 124.78125L431.53125 131.10938Q431.14062 132.125 430.9375 132.51562Q430.65625 133.04688 430.28125 133.28125Q429.92188 133.53125 429.42188 133.53125Q429.125 133.53125 428.75 133.39062ZM433.79688 131.0L433.79688 124.78125L434.73438 124.78125L434.73438 125.65625Q435.42188 124.640625 436.71875 124.640625Q437.28125 124.640625 437.75 124.84375Q438.23438 125.046875 438.46875 125.375Q438.70312 125.703125 438.79688 126.140625Q438.84375 126.4375 438.84375 127.171875L438.84375 131.0L437.79688 131.0L437.79688 127.21875Q437.79688 126.5625 437.67188 126.25Q437.54688 125.9375 437.23438 125.75Q436.92188 125.546875 436.5 125.546875Q435.82812 125.546875 435.32812 125.984375Q434.84375 126.40625 434.84375 127.59375L434.84375 131.0L433.79688 131.0ZM445.04688 129.0L446.14062 129.125Q445.89062 130.07812 445.1875 130.60938Q444.48438 131.14062 443.40625 131.14062Q442.04688 131.14062 441.23438 130.29688Q440.4375 129.45312 440.4375 127.9375Q440.4375 126.375 441.25 125.515625Q442.0625 124.640625 443.34375 124.640625Q444.59375 124.640625 445.375 125.484375Q446.17188 126.328125 446.17188 127.875Q446.17188 127.96875 446.17188 128.15625L441.53125 128.15625Q441.59375 129.1875 442.10938 129.73438Q442.625 130.26562 443.40625 130.26562Q443.98438 130.26562 444.39062 129.96875Q444.8125 129.65625 445.04688 129.0ZM441.59375 127.296875L445.0625 127.296875Q445.0 126.5 444.67188 126.109375Q444.15625 125.5 443.35938 125.5Q442.625 125.5 442.125 125.984375Q441.64062 126.46875 441.59375 127.296875ZM450.09375 130.0625L450.25 130.98438Q449.79688 131.07812 449.45312 131.07812Q448.875 131.07812 448.5625 130.90625Q448.25 130.71875 448.10938 130.42188Q447.98438 130.125 447.98438 129.17188L447.98438 125.59375L447.21875 125.59375L447.21875 124.78125L447.98438 124.78125L447.98438 123.234375L449.03125 122.609375L449.03125 124.78125L450.09375 124.78125L450.09375 125.59375L449.03125 125.59375L449.03125 129.23438Q449.03125 129.6875 449.07812 129.8125Q449.14062 129.9375 449.26562 130.01562Q449.39062 130.09375 449.625 130.09375Q449.8125 130.09375 450.09375 130.0625Z" fill-rule="nonzero"/><path fill="#7baaf7" d="M407.0 151.0C407.0 154.3137 404.31372 157.0 401.0 157.0C397.68628 157.0 395.0 154.3137 395.0 151.0C395.0 147.6863 397.68628 145.0 401.0 145.0C404.31372 145.0 407.0 147.6863 407.0 151.0Z" fill-rule="nonzero"/><path fill="#cc77ff" d="M419.82812 155.0L419.82812 154.21875Q419.23438 155.14062 418.09375 155.14062Q417.34375 155.14062 416.71875 154.73438Q416.09375 154.3125 415.75 153.57812Q415.40625 152.84375 415.40625 151.89062Q415.40625 150.96875 415.71875 150.20312Q416.03125 149.4375 416.65625 149.04688Q417.28125 148.64062 418.04688 148.64062Q418.60938 148.64062 419.04688 148.875Q419.48438 149.10938 419.76562 149.48438L419.76562 146.40625L420.8125 146.40625L420.8125 155.0L419.82812 155.0ZM416.5 151.89062Q416.5 153.09375 417.0 153.6875Q417.5 154.26562 418.1875 154.26562Q418.875 154.26562 419.35938 153.70312Q419.84375 153.14062 419.84375 151.98438Q419.84375 150.70312 419.34375 150.10938Q418.85938 149.51562 418.14062 149.51562Q417.4375 149.51562 416.96875 150.09375Q416.5 150.65625 416.5 151.89062ZM427.04688 153.0L428.14062 153.125Q427.89062 154.07812 427.1875 154.60938Q426.48438 155.14062 425.40625 155.14062Q424.04688 155.14062 423.23438 154.29688Q422.4375 153.45312 422.4375 151.9375Q422.4375 150.375 423.25 149.51562Q424.0625 148.64062 425.34375 148.64062Q426.59375 148.64062 427.375 149.48438Q428.17188 150.32812 428.17188 151.875Q428.17188 151.96875 428.17188 152.15625L423.53125 152.15625Q423.59375 153.1875 424.10938 153.73438Q424.625 154.26562 425.40625 154.26562Q425.98438 154.26562 426.39062 153.96875Q426.8125 153.65625 427.04688 153.0ZM423.59375 151.29688L427.0625 151.29688Q427.0 150.5 426.67188 150.10938Q426.15625 149.5 425.35938 149.5Q424.625 149.5 424.125 149.98438Q423.64062 150.46875 423.59375 151.29688ZM431.51562 155.0L429.15625 148.78125L430.26562 148.78125L431.60938 152.5Q431.8125 153.10938 432.0 153.75Q432.14062 153.26562 432.39062 152.57812L433.78125 148.78125L434.85938 148.78125L432.5 155.0L431.51562 155.0ZM434.79688 147.625L434.79688 146.40625L435.85938 146.40625L435.85938 147.625L434.79688 147.625ZM434.79688 155.0L434.79688 148.78125L435.85938 148.78125L435.85938 155.0L434.79688 155.0ZM441.85938 152.71875L442.89062 152.85938Q442.71875 153.92188 442.01562 154.53125Q441.3125 155.14062 440.29688 155.14062Q439.01562 155.14062 438.23438 154.3125Q437.46875 153.46875 437.46875 151.90625Q437.46875 150.90625 437.79688 150.15625Q438.14062 149.39062 438.8125 149.01562Q439.5 148.64062 440.3125 148.64062Q441.3125 148.64062 441.95312 149.15625Q442.60938 149.65625 442.79688 150.60938L441.76562 150.76562Q441.625 150.14062 441.25 149.82812Q440.875 149.5 440.34375 149.5Q439.54688 149.5 439.04688 150.07812Q438.54688 150.64062 438.54688 151.875Q438.54688 153.14062 439.03125 153.70312Q439.51562 154.26562 440.28125 154.26562Q440.90625 154.26562 441.3125 153.89062Q441.73438 153.51562 441.85938 152.71875ZM448.04688 153.0L449.14062 153.125Q448.89062 154.07812 448.1875 154.60938Q447.48438 155.14062 446.40625 155.14062Q445.04688 155.14062 444.23438 154.29688Q443.4375 153.45312 443.4375 151.9375Q443.4375 150.375 444.25 149.51562Q445.0625 148.64062 446.34375 148.64062Q447.59375 148.64062 448.375 149.48438Q449.17188 150.32812 449.17188 151.875Q449.17188 151.96875 449.17188 152.15625L444.53125 152.15625Q444.59375 153.1875 445.10938 153.73438Q445.625 154.26562 446.40625 154.26562Q446.98438 154.26562 447.39062 153.96875Q447.8125 153.65625 448.04688 153.0ZM444.59375 151.29688L448.0625 151.29688Q448.0 150.5 447.67188 150.10938Q447.15625 149.5 446.35938 149.5Q445.625 149.5 445.125 149.98438Q444.64062 150.46875 444.59375 151.29688ZM450.375 153.14062L451.40625 152.98438Q451.5 153.60938 451.89062 153.9375Q452.29688 154.26562 453.03125 154.26562Q453.75 154.26562 454.09375 153.98438Q454.45312 153.6875 454.45312 153.28125Q454.45312 152.92188 454.14062 152.71875Q453.92188 152.57812 453.0625 152.35938Q451.90625 152.0625 451.45312 151.85938Q451.01562 151.64062 450.78125 151.26562Q450.54688 150.89062 450.54688 150.42188Q450.54688 150.01562 450.73438 149.65625Q450.92188 149.29688 451.25 149.0625Q451.5 148.89062 451.92188 148.76562Q452.34375 148.64062 452.84375 148.64062Q453.5625 148.64062 454.10938 148.85938Q454.67188 149.0625 454.9375 149.42188Q455.20312 149.78125 455.29688 150.375L454.26562 150.51562Q454.20312 150.04688 453.85938 149.78125Q453.53125 149.5 452.90625 149.5Q452.1875 149.5 451.875 149.75Q451.5625 149.98438 451.5625 150.3125Q451.5625 150.51562 451.6875 150.67188Q451.82812 150.84375 452.09375 150.95312Q452.25 151.01562 453.03125 151.21875Q454.15625 151.53125 454.59375 151.71875Q455.03125 151.90625 455.28125 152.26562Q455.53125 152.625 455.53125 153.17188Q455.53125 153.70312 455.21875 154.17188Q454.92188 154.625 454.34375 154.89062Q453.76562 155.14062 453.03125 155.14062Q451.8125 155.14062 451.17188 154.64062Q450.54688 154.125 450.375 153.14062Z" fill-rule="nonzero"/></svg>