<svg version="1.1" viewBox="0.0 0.0 457.0 283.0" fill="none" stroke="none" stroke-linecap="square" stroke-miterlimit="10" width="457" height="283" xmlns:xlink="http://www.w3.org/1999/xlink" xmlns="http://www.w3.org/2000/svg"><path fill="#ffffff" fill-opacity="0.0" d="M0 0L457.0 0L457.0 283.0L0 283.0L0 0Z" fill-rule="nonzero"/><path fill="#4285f4" d="M181.56667 31.8375C220.03163 31.8375 256.83905 42.799034 283.5138 62.198147L181.56667 130.8875Z" fill-rule="nonzero"/><path fill="#ea4335" d="M283.5138 62.198147C284.4275 62.862633 285.32788 63.53602 286.21472 64.21811L181.56667 130.8875Z" fill-rule="nonzero"/><path fill="#ff6d01" d="M179.19522 31.851412C179.98563 31.842136 180.77614 31.8375 181.56667 31.8375L181.56667 130.8875Z" fill-rule="nonzero"/><path fill="#34a853" d="M42.754578 111.67312C55.6887 65.886986 112.52928 32.633614 179.19522 31.851412L181.56667 130.8875Z" fill-rule="nonzero"/><path fill="#b08403" d="M323.06668 152.1125C323.06668 206.8163 259.71497 251.1625 181.56667 251.1625C103.41837 251.1625 40.066666 206.8163 40.066666 152.1125L40.066666 130.8875C40.066666 185.59131 103.41837 229.9375 181.56667 229.9375C259.71497 229.9375 323.06668 185.59131 323.06668 130.8875Z" fill-rule="nonzero"/><path fill="#fbbc04" d="M286.21472 64.21811C331.0783 98.72411 335.45782 150.46791 296.72873 188.44075C257.99963 226.41357 186.66426 240.31819 125.4721 221.82191C64.27994 203.32564 29.824715 157.44417 42.754578 111.67312L181.56667 130.8875Z" fill-rule="nonzero"/><path fill="#000000" d="M209.83345 71.63957L208.59908 71.63957L208.59908 63.795822Q208.16158 64.2177 207.4272 64.6552Q206.70845 65.07707 206.14595 65.2802L206.14595 64.0927Q207.1772 63.608322 207.94283 62.920822Q208.72408 62.233322 209.03658 61.577072L209.83345 61.577072L209.83345 71.63957ZM219.66158 70.45207L219.66158 71.63957L213.03658 71.63957Q213.02095 71.20207 213.1772 70.7802Q213.44283 70.10832 213.9897 69.45207Q214.5522 68.79582 215.59908 67.93645Q217.2397 66.5927 217.8022 65.81145Q218.38033 65.0302 218.38033 64.32707Q218.38033 63.592697 217.84908 63.092697Q217.33345 62.592697 216.50533 62.592697Q215.6147 62.592697 215.06783 63.123947Q214.53658 63.655197 214.53658 64.60832L213.27095 64.4677Q213.39595 63.061447 214.2397 62.327072Q215.09908 61.577072 216.52095 61.577072Q217.97408 61.577072 218.8022 62.373947Q219.64595 63.170822 219.64595 64.35832Q219.64595 64.9677 219.39595 65.54582Q219.16158 66.12395 218.58345 66.76457Q218.02095 67.4052 216.69283 68.5302Q215.58345 69.45207 215.27095 69.79582Q214.95845 70.12395 214.75533 70.45207L219.66158 70.45207ZM221.38033 69.32707L222.56783 69.2177Q222.70845 70.04582 223.13033 70.42082Q223.56783 70.79582 224.22408 70.79582Q224.78658 70.79582 225.20845 70.54582Q225.64595 70.2802 225.91158 69.8427Q226.19283 69.4052 226.38033 68.67082Q226.56783 67.93645 226.56783 67.17082Q226.56783 67.0927 226.5522 66.92082Q226.19283 67.51457 225.5522 67.88957Q224.91158 68.24895 224.16158 68.24895Q222.91158 68.24895 222.0522 67.3427Q221.19283 66.43645 221.19283 64.9677Q221.19283 63.436447 222.08345 62.514572Q222.9897 61.577072 224.34908 61.577072Q225.31783 61.577072 226.13033 62.108322Q226.94283 62.623947 227.3647 63.608322Q227.78658 64.57707 227.78658 66.42082Q227.78658 68.3427 227.3647 69.48332Q226.95845 70.62395 226.13033 71.2177Q225.3022 71.81145 224.19283 71.81145Q223.02095 71.81145 222.27095 71.1552Q221.53658 70.49895 221.38033 69.32707ZM226.41158 64.9052Q226.41158 63.842697 225.84908 63.217697Q225.28658 62.592697 224.50533 62.592697Q223.6772 62.592697 223.06783 63.264572Q222.45845 63.936447 222.45845 64.99895Q222.45845 65.95207 223.03658 66.56145Q223.6147 67.1552 224.45845 67.1552Q225.31783 67.1552 225.8647 66.56145Q226.41158 65.95207 226.41158 64.9052ZM235.58345 64.07707L234.3647 64.17082Q234.19283 63.436447 233.89595 63.108322Q233.39595 62.592697 232.66158 62.592697Q232.06783 62.592697 231.63033 62.920822Q231.0522 63.342697 230.70845 64.1552Q230.38033 64.9677 230.3647 66.4677Q230.8022 65.79582 231.44283 65.4677Q232.09908 65.13957 232.8022 65.13957Q234.03658 65.13957 234.89595 66.04582Q235.75533 66.95207 235.75533 68.38957Q235.75533 69.32707 235.34908 70.13957Q234.94283 70.95207 234.22408 71.38957Q233.52095 71.81145 232.6147 71.81145Q231.08345 71.81145 230.1147 70.68645Q229.14595 69.54582 229.14595 66.95207Q229.14595 64.04582 230.20845 62.717697Q231.14595 61.577072 232.7397 61.577072Q233.9272 61.577072 234.6772 62.248947Q235.4272 62.905197 235.58345 64.07707ZM230.5522 68.38957Q230.5522 69.0302 230.81783 69.60832Q231.09908 70.18645 231.58345 70.49895Q232.06783 70.79582 232.59908 70.79582Q233.38033 70.79582 233.94283 70.17082Q234.50533 69.54582 234.50533 68.4677Q234.50533 67.42082 233.94283 66.82707Q233.39595 66.2177 232.5522 66.2177Q231.72408 66.2177 231.13033 66.82707Q230.5522 67.42082 230.5522 68.38957Z" fill-rule="nonzero"/><path fill="#000000" d="M199.74348 196.72238L198.52473 196.81613Q198.35286 196.08176 198.05598 195.75363Q197.55598 195.238 196.82161 195.238Q196.22786 195.238 195.79036 195.56613Q195.21223 195.988 194.86848 196.8005Q194.54036 197.613 194.52473 199.113Q194.96223 198.44113 195.60286 198.113Q196.25911 197.78488 196.96223 197.78488Q198.19661 197.78488 199.05598 198.69113Q199.91536 199.59738 199.91536 201.03488Q199.91536 201.97238 199.50911 202.78488Q199.10286 203.59738 198.38411 204.03488Q197.68098 204.45676 196.77473 204.45676Q195.24348 204.45676 194.27473 203.33176Q193.30598 202.19113 193.30598 199.59738Q193.30598 196.69113 194.36848 195.363Q195.30598 194.22238 196.89973 194.22238Q198.08723 194.22238 198.83723 194.89426Q199.58723 195.5505 199.74348 196.72238ZM194.71223 201.03488Q194.71223 201.6755 194.97786 202.25363Q195.25911 202.83176 195.74348 203.14426Q196.22786 203.44113 196.75911 203.44113Q197.54036 203.44113 198.10286 202.81613Q198.66536 202.19113 198.66536 201.113Q198.66536 200.06613 198.10286 199.47238Q197.55598 198.863 196.71223 198.863Q195.88411 198.863 195.29036 199.47238Q194.71223 200.06613 194.71223 201.03488ZM201.35286 201.65988L202.64973 201.5505Q202.79036 202.488 203.30598 202.97238Q203.83723 203.44113 204.57161 203.44113Q205.46223 203.44113 206.07161 202.76926Q206.69661 202.09738 206.69661 201.00363Q206.69661 199.94113 206.10286 199.33176Q205.50911 198.72238 204.55598 198.72238Q203.96223 198.72238 203.47786 199.00363Q203.00911 199.26926 202.72786 199.69113L201.57161 199.5505L202.54036 194.39426L207.52473 194.39426L207.52473 195.58176L203.52473 195.58176L202.99348 198.26926Q203.89973 197.64426 204.88411 197.64426Q206.19661 197.64426 207.08723 198.5505Q207.99348 199.45676 207.99348 200.89426Q207.99348 202.25363 207.21223 203.238Q206.24348 204.45676 204.57161 204.45676Q203.21223 204.45676 202.33723 203.69113Q201.47786 202.9255 201.35286 201.65988ZM215.74348 196.72238L214.52473 196.81613Q214.35286 196.08176 214.05598 195.75363Q213.55598 195.238 212.82161 195.238Q212.22786 195.238 211.79036 195.56613Q211.21223 195.988 210.86848 196.8005Q210.54036 197.613 210.52473 199.113Q210.96223 198.44113 211.60286 198.113Q212.25911 197.78488 212.96223 197.78488Q214.19661 197.78488 215.05598 198.69113Q215.91536 199.59738 215.91536 201.03488Q215.91536 201.97238 215.50911 202.78488Q215.10286 203.59738 214.38411 204.03488Q213.68098 204.45676 212.77473 204.45676Q211.24348 204.45676 210.27473 203.33176Q209.30598 202.19113 209.30598 199.59738Q209.30598 196.69113 210.36848 195.363Q211.30598 194.22238 212.89973 194.22238Q214.08723 194.22238 214.83723 194.89426Q215.58723 195.5505 215.74348 196.72238ZM210.71223 201.03488Q210.71223 201.6755 210.97786 202.25363Q211.25911 202.83176 211.74348 203.14426Q212.22786 203.44113 212.75911 203.44113Q213.54036 203.44113 214.10286 202.81613Q214.66536 202.19113 214.66536 201.113Q214.66536 200.06613 214.10286 199.47238Q213.55598 198.863 212.71223 198.863Q211.88411 198.863 211.29036 199.47238Q210.71223 200.06613 210.71223 201.03488ZM217.35286 201.65988L218.64973 201.5505Q218.79036 202.488 219.30598 202.97238Q219.83723 203.44113 220.57161 203.44113Q221.46223 203.44113 222.07161 202.76926Q222.69661 202.09738 222.69661 201.00363Q222.69661 199.94113 222.10286 199.33176Q221.50911 198.72238 220.55598 198.72238Q219.96223 198.72238 219.47786 199.00363Q219.00911 199.26926 218.72786 199.69113L217.57161 199.5505L218.54036 194.39426L223.52473 194.39426L223.52473 195.58176L219.52473 195.58176L218.99348 198.26926Q219.89973 197.64426 220.88411 197.64426Q222.19661 197.64426 223.08723 198.5505Q223.99348 199.45676 223.99348 200.89426Q223.99348 202.25363 223.21223 203.238Q222.24348 204.45676 220.57161 204.45676Q219.21223 204.45676 218.33723 203.69113Q217.47786 202.9255 217.35286 201.65988Z" fill-rule="nonzero"/><path fill="#000000" d="M109.8597 82.13954L109.8597 83.32704L103.2347 83.32704Q103.21908 82.88954 103.37533 82.46767Q103.64095 81.79579 104.18783 81.13954Q104.75033 80.48329 105.7972 79.62392Q107.43783 78.28017 108.00033 77.49892Q108.57845 76.71767 108.57845 76.01454Q108.57845 75.28017 108.0472 74.78017Q107.53158 74.28017 106.70345 74.28017Q105.81283 74.28017 105.26595 74.81142Q104.7347 75.34267 104.7347 76.29579L103.46908 76.15517Q103.59408 74.74892 104.43783 74.01454Q105.2972 73.26454 106.71908 73.26454Q108.1722 73.26454 109.00033 74.06142Q109.84408 74.85829 109.84408 76.04579Q109.84408 76.65517 109.59408 77.23329Q109.3597 77.81142 108.78158 78.45204Q108.21908 79.09267 106.89095 80.21767Q105.78158 81.13954 105.46908 81.48329Q105.15658 81.81142 104.95345 82.13954L109.8597 82.13954ZM116.03158 83.32704L114.7972 83.32704L114.7972 75.48329Q114.3597 75.90517 113.62533 76.34267Q112.90658 76.76454 112.34408 76.96767L112.34408 75.78017Q113.37533 75.29579 114.14095 74.60829Q114.9222 73.92079 115.2347 73.26454L116.03158 73.26454L116.03158 83.32704ZM121.28158 77.88954Q120.51595 77.60829 120.14095 77.09267Q119.78158 76.57704 119.78158 75.84267Q119.78158 74.74892 120.56283 74.01454Q121.3597 73.26454 122.65658 73.26454Q123.96908 73.26454 124.76595 74.03017Q125.57845 74.79579 125.57845 75.88954Q125.57845 76.57704 125.20345 77.09267Q124.84408 77.60829 124.09408 77.88954Q125.01595 78.18642 125.50033 78.85829Q125.9847 79.53017 125.9847 80.46767Q125.9847 81.74892 125.07845 82.62392Q124.1722 83.49892 122.68783 83.49892Q121.20345 83.49892 120.28158 82.62392Q119.37533 81.73329 119.37533 80.42079Q119.37533 79.45204 119.87533 78.79579Q120.37533 78.12392 121.28158 77.88954ZM121.0472 75.81142Q121.0472 76.51454 121.50033 76.96767Q121.95345 77.42079 122.68783 77.42079Q123.40658 77.42079 123.8597 76.98329Q124.31283 76.53017 124.31283 75.87392Q124.31283 75.20204 123.84408 74.74892Q123.37533 74.28017 122.6722 74.28017Q121.96908 74.28017 121.50033 74.73329Q121.0472 75.17079 121.0472 75.81142ZM120.64095 80.43642Q120.64095 80.96767 120.89095 81.46767Q121.14095 81.95204 121.62533 82.21767Q122.12533 82.48329 122.70345 82.48329Q123.57845 82.48329 124.14095 81.92079Q124.71908 81.35829 124.71908 80.48329Q124.71908 79.59267 124.12533 79.01454Q123.5472 78.42079 122.65658 78.42079Q121.78158 78.42079 121.20345 78.99892Q120.64095 79.57704 120.64095 80.43642ZM127.57845 81.01454L128.76596 80.90517Q128.90659 81.73329 129.32846 82.10829Q129.76596 82.48329 130.42221 82.48329Q130.98471 82.48329 131.40659 82.23329Q131.84409 81.96767 132.10971 81.53017Q132.39096 81.09267 132.57846 80.35829Q132.76596 79.62392 132.76596 78.85829Q132.76596 78.78017 132.75034 78.60829Q132.39096 79.20204 131.75034 79.57704Q131.10971 79.93642 130.35971 79.93642Q129.10971 79.93642 128.25034 79.03017Q127.39095 78.12392 127.39095 76.65517Q127.39095 75.12392 128.28159 74.20204Q129.18784 73.26454 130.54721 73.26454Q131.51596 73.26454 132.32846 73.79579Q133.14096 74.31142 133.56284 75.29579Q133.98471 76.26454 133.98471 78.10829Q133.98471 80.03017 133.56284 81.17079Q133.15659 82.31142 132.32846 82.90517Q131.50034 83.49892 130.39096 83.49892Q129.21909 83.49892 128.46909 82.84267Q127.7347 82.18642 127.57845 81.01454ZM132.60971 76.59267Q132.60971 75.53017 132.04721 74.90517Q131.48471 74.28017 130.70346 74.28017Q129.87534 74.28017 129.26596 74.95204Q128.65659 75.62392 128.65659 76.68642Q128.65659 77.63954 129.23471 78.24892Q129.81284 78.84267 130.65659 78.84267Q131.51596 78.84267 132.06284 78.24892Q132.60971 77.63954 132.60971 76.59267Z" fill-rule="nonzero"/><path fill="#4285f4" d="M394.0 7.0C394.0 10.313708 391.31372 13.0 388.0 13.0C384.68628 13.0 382.0 10.313708 382.0 7.0C382.0 3.6862915 384.68628 1.0 388.0 1.0C391.31372 1.0 394.0 3.6862915 394.0 7.0Z" fill-rule="nonzero"/><path fill="#cc77ff" d="M406.85938 8.71875L407.89062 8.859375Q407.71875 9.921875 407.01562 10.53125Q406.3125 11.140625 405.29688 11.140625Q404.01562 11.140625 403.23438 10.3125Q402.46875 9.46875 402.46875 7.90625Q402.46875 6.90625 402.79688 6.15625Q403.14062 5.390625 403.8125 5.015625Q404.5 4.640625 405.3125 4.640625Q406.3125 4.640625 406.95312 5.15625Q407.60938 5.65625 407.79688 6.609375L406.76562 6.765625Q406.625 6.140625 406.25 5.828125Q405.875 5.5 405.34375 5.5Q404.54688 5.5 404.04688 6.078125Q403.54688 6.640625 403.54688 7.875Q403.54688 9.140625 404.03125 9.703125Q404.51562 10.265625 405.28125 10.265625Q405.90625 10.265625 406.3125 9.890625Q406.73438 9.515625 406.85938 8.71875ZM408.375 9.140625L409.40625 8.984375Q409.5 9.609375 409.89062 9.9375Q410.29688 10.265625 411.03125 10.265625Q411.75 10.265625 412.09375 9.984375Q412.45312 9.6875 412.45312 9.28125Q412.45312 8.921875 412.14062 8.71875Q411.92188 8.578125 411.0625 8.359375Q409.90625 8.0625 409.45312 7.859375Q409.01562 7.640625 408.78125 7.265625Q408.54688 6.890625 408.54688 6.421875Q408.54688 6.015625 408.73438 5.65625Q408.92188 5.296875 409.25 5.0625Q409.5 4.890625 409.92188 4.765625Q410.34375 4.640625 410.84375 4.640625Q411.5625 4.640625 412.10938 4.859375Q412.67188 5.0625 412.9375 5.421875Q413.20312 5.78125 413.29688 6.375L412.26562 6.515625Q412.20312 6.046875 411.85938 5.78125Q411.53125 5.5 410.90625 5.5Q410.1875 5.5 409.875 5.75Q409.5625 5.984375 409.5625 6.3125Q409.5625 6.515625 409.6875 6.671875Q409.82812 6.84375 410.09375 6.953125Q410.25 7.015625 411.03125 7.21875Q412.15625 7.53125 412.59375 7.71875Q413.03125 7.90625 413.28125 8.265625Q413.53125 8.625 413.53125 9.171875Q413.53125 9.703125 413.21875 10.171875Q412.92188 10.625 412.34375 10.890625Q411.76562 11.140625 411.03125 11.140625Q409.8125 11.140625 409.17188 10.640625Q408.54688 10.125 408.375 9.140625ZM415.375 9.140625L416.40625 8.984375Q416.5 9.609375 416.89062 9.9375Q417.29688 10.265625 418.03125 10.265625Q418.75 10.265625 419.09375 9.984375Q419.45312 9.6875 419.45312 9.28125Q419.45312 8.921875 419.14062 8.71875Q418.92188 8.578125 418.0625 8.359375Q416.90625 8.0625 416.45312 7.859375Q416.01562 7.640625 415.78125 7.265625Q415.54688 6.890625 415.54688 6.421875Q415.54688 6.015625 415.73438 5.65625Q415.92188 5.296875 416.25 5.0625Q416.5 4.890625 416.92188 4.765625Q417.34375 4.640625 417.84375 4.640625Q418.5625 4.640625 419.10938 4.859375Q419.67188 5.0625 419.9375 5.421875Q420.20312 5.78125 420.29688 6.375L419.26562 6.515625Q419.20312 6.046875 418.85938 5.78125Q418.53125 5.5 417.90625 5.5Q417.1875 5.5 416.875 5.75Q416.5625 5.984375 416.5625 6.3125Q416.5625 6.515625 416.6875 6.671875Q416.82812 6.84375 417.09375 6.953125Q417.25 7.015625 418.03125 7.21875Q419.15625 7.53125 419.59375 7.71875Q420.03125 7.90625 420.28125 8.265625Q420.53125 8.625 420.53125 9.171875Q420.53125 9.703125 420.21875 10.171875Q419.92188 10.625 419.34375 10.890625Q418.76562 11.140625 418.03125 11.140625Q416.8125 11.140625 416.17188 10.640625Q415.54688 10.125 415.375 9.140625Z" fill-rule="nonzero"/><path fill="#ea4335" d="M394.0 31.0C394.0 34.31371 391.31372 37.0 388.0 37.0C384.68628 37.0 382.0 34.31371 382.0 31.0C382.0 27.68629 384.68628 25.0 388.0 25.0C391.31372 25.0 394.0 27.68629 394.0 31.0Z" fill-rule="nonzero"/><path fill="#cc77ff" d="M402.78125 27.640625L402.78125 26.40625L403.84375 26.40625L403.84375 27.640625L402.78125 27.640625ZM401.45312 37.421875L401.64062 36.515625Q401.96875 36.59375 402.14062 36.59375Q402.46875 36.59375 402.625 36.375Q402.78125 36.171875 402.78125 35.3125L402.78125 28.78125L403.84375 28.78125L403.84375 35.34375Q403.84375 36.484375 403.54688 36.9375Q403.15625 37.53125 402.28125 37.53125Q401.84375 37.53125 401.45312 37.421875ZM405.375 33.140625L406.40625 32.984375Q406.5 33.609375 406.89062 33.9375Q407.29688 34.265625 408.03125 34.265625Q408.75 34.265625 409.09375 33.984375Q409.45312 33.6875 409.45312 33.28125Q409.45312 32.921875 409.14062 32.71875Q408.92188 32.578125 408.0625 32.359375Q406.90625 32.0625 406.45312 31.859375Q406.01562 31.640625 405.78125 31.265625Q405.54688 30.890625 405.54688 30.421875Q405.54688 30.015625 405.73438 29.65625Q405.92188 29.296875 406.25 29.0625Q406.5 28.890625 406.92188 28.765625Q407.34375 28.640625 407.84375 28.640625Q408.5625 28.640625 409.10938 28.859375Q409.67188 29.0625 409.9375 29.421875Q410.20312 29.78125 410.29688 30.375L409.26562 30.515625Q409.20312 30.046875 408.85938 29.78125Q408.53125 29.5 407.90625 29.5Q407.1875 29.5 406.875 29.75Q406.5625 29.984375 406.5625 30.3125Q406.5625 30.515625 406.6875 30.671875Q406.82812 30.84375 407.09375 30.953125Q407.25 31.015625 408.03125 31.21875Q409.15625 31.53125 409.59375 31.71875Q410.03125 31.90625 410.28125 32.265625Q410.53125 32.625 410.53125 33.171875Q410.53125 33.703125 410.21875 34.171875Q409.92188 34.625 409.34375 34.890625Q408.76562 35.140625 408.03125 35.140625Q406.8125 35.140625 406.17188 34.640625Q405.54688 34.125 405.375 33.140625Z" fill-rule="nonzero"/><path fill="#fbbc04" d="M394.0 55.0C394.0 58.31371 391.31372 61.0 388.0 61.0C384.68628 61.0 382.0 58.31371 382.0 55.0C382.0 51.68629 384.68628 49.0 388.0 49.0C391.31372 49.0 394.0 51.68629 394.0 55.0Z" fill-rule="nonzero"/><path fill="#cc77ff" d="M402.59375 59.515625L403.625 59.671875Q403.6875 60.140625 403.98438 60.359375Q404.375 60.65625 405.04688 60.65625Q405.78125 60.65625 406.17188 60.359375Q406.57812 60.0625 406.71875 59.546875Q406.8125 59.21875 406.79688 58.1875Q406.10938 59.0 405.07812 59.0Q403.79688 59.0 403.09375 58.078125Q402.39062 57.140625 402.39062 55.859375Q402.39062 54.96875 402.70312 54.21875Q403.03125 53.453125 403.64062 53.046875Q404.25 52.640625 405.07812 52.640625Q406.1875 52.640625 406.90625 53.53125L406.90625 52.78125L407.875 52.78125L407.875 58.15625Q407.875 59.609375 407.57812 60.21875Q407.28125 60.828125 406.64062 61.171875Q406.0 61.53125 405.0625 61.53125Q403.95312 61.53125 403.26562 61.03125Q402.57812 60.53125 402.59375 59.515625ZM403.46875 55.78125Q403.46875 57.0 403.95312 57.5625Q404.4375 58.125 405.17188 58.125Q405.90625 58.125 406.39062 57.5625Q406.89062 57.0 406.89062 55.8125Q406.89062 54.671875 406.375 54.09375Q405.875 53.515625 405.15625 53.515625Q404.45312 53.515625 403.95312 54.09375Q403.46875 54.65625 403.46875 55.78125ZM409.40625 55.890625Q409.40625 54.15625 410.35938 53.328125Q411.15625 52.640625 412.3125 52.640625Q413.59375 52.640625 414.40625 53.484375Q415.23438 54.3125 415.23438 55.796875Q415.23438 57.0 414.875 57.6875Q414.51562 58.375 413.8125 58.765625Q413.125 59.140625 412.3125 59.140625Q411.01562 59.140625 410.20312 58.3125Q409.40625 57.46875 409.40625 55.890625ZM410.48438 55.890625Q410.48438 57.078125 411.0 57.671875Q411.53125 58.265625 412.3125 58.265625Q413.10938 58.265625 413.625 57.671875Q414.14062 57.078125 414.14062 55.859375Q414.14062 54.703125 413.60938 54.109375Q413.09375 53.515625 412.3125 53.515625Q411.53125 53.515625 411.0 54.109375Q410.48438 54.6875 410.48438 55.890625Z" fill-rule="nonzero"/><path fill="#34a853" d="M394.0 79.0C394.0 82.313705 391.31372 85.0 388.0 85.0C384.68628 85.0 382.0 82.313705 382.0 79.0C382.0 75.686295 384.68628 73.0 388.0 73.0C391.31372 73.0 394.0 75.686295 394.0 79.0Z" fill-rule="nonzero"/><path fill="#cc77ff" d="M405.09375 82.0625L405.25 82.984375Q404.79688 83.078125 404.45312 83.078125Q403.875 83.078125 403.5625 82.90625Q403.25 82.71875 403.10938 82.421875Q402.98438 82.125 402.98438 81.171875L402.98438 77.59375L402.21875 77.59375L402.21875 76.78125L402.98438 76.78125L402.98438 75.234375L404.03125 74.609375L404.03125 76.78125L405.09375 76.78125L405.09375 77.59375L404.03125 77.59375L404.03125 81.234375Q404.03125 81.6875 404.07812 81.8125Q404.14062 81.9375 404.26562 82.015625Q404.39062 82.09375 404.625 82.09375Q404.8125 82.09375 405.09375 82.0625ZM405.79688 83.0L405.79688 76.78125L406.73438 76.78125L406.73438 77.65625Q407.03125 77.1875 407.51562 76.921875Q408.0 76.640625 408.625 76.640625Q409.3125 76.640625 409.75 76.921875Q410.20312 77.203125 410.375 77.71875Q411.125 76.640625 412.29688 76.640625Q413.23438 76.640625 413.71875 77.15625Q414.21875 77.65625 414.21875 78.734375L414.21875 83.0L413.17188 83.0L413.17188 79.078125Q413.17188 78.453125 413.0625 78.171875Q412.96875 77.890625 412.70312 77.71875Q412.4375 77.546875 412.0625 77.546875Q411.40625 77.546875 410.96875 77.984375Q410.54688 78.421875 410.54688 79.390625L410.54688 83.0L409.48438 83.0L409.48438 78.953125Q409.48438 78.25 409.21875 77.90625Q408.96875 77.546875 408.39062 77.546875Q407.9375 77.546875 407.5625 77.78125Q407.1875 78.015625 407.01562 78.46875Q406.84375 78.921875 406.84375 79.765625L406.84375 83.0L405.79688 83.0ZM416.79688 85.390625L416.79688 76.78125L417.75 76.78125L417.75 77.578125Q418.09375 77.109375 418.51562 76.875Q418.95312 76.640625 419.5625 76.640625Q420.35938 76.640625 420.96875 77.046875Q421.57812 77.453125 421.875 78.203125Q422.1875 78.953125 422.1875 79.84375Q422.1875 80.796875 421.84375 81.5625Q421.51562 82.328125 420.85938 82.734375Q420.20312 83.140625 419.48438 83.140625Q418.95312 83.140625 418.53125 82.921875Q418.10938 82.6875 417.84375 82.359375L417.84375 85.390625L416.79688 85.390625ZM417.75 79.921875Q417.75 81.125 418.23438 81.703125Q418.71875 82.265625 419.40625 82.265625Q420.10938 82.265625 420.60938 81.671875Q421.10938 81.078125 421.10938 79.828125Q421.10938 78.640625 420.625 78.0625Q420.14062 77.46875 419.45312 77.46875Q418.78125 77.46875 418.26562 78.09375Q417.75 78.71875 417.75 79.921875ZM423.76562 83.0L423.76562 74.40625L424.82812 74.40625L424.82812 83.0L423.76562 83.0Z" fill-rule="nonzero"/><path fill="#ff6d01" d="M394.0 103.0C394.0 106.313705 391.31372 109.0 388.0 109.0C384.68628 109.0 382.0 106.313705 382.0 103.0C382.0 99.686295 384.68628 97.0 388.0 97.0C391.31372 97.0 394.0 99.686295 394.0 103.0Z" fill-rule="nonzero"/><path fill="#cc77ff" d="M402.92188 107.0L402.92188 98.40625L405.89062 98.40625Q406.89062 98.40625 407.42188 98.53125Q408.15625 98.703125 408.67188 99.140625Q409.35938 99.71875 409.6875 100.625Q410.03125 101.515625 410.03125 102.65625Q410.03125 103.640625 409.79688 104.390625Q409.57812 105.140625 409.21875 105.640625Q408.85938 106.140625 408.42188 106.421875Q408.0 106.703125 407.40625 106.859375Q406.8125 107.0 406.03125 107.0L402.92188 107.0ZM404.0625 105.984375L405.89062 105.984375Q406.75 105.984375 407.23438 105.828125Q407.71875 105.671875 408.0 105.375Q408.40625 104.984375 408.625 104.296875Q408.85938 103.609375 408.85938 102.640625Q408.85938 101.296875 408.40625 100.578125Q407.96875 99.84375 407.34375 99.59375Q406.875 99.421875 405.875 99.421875L404.0625 99.421875L404.0625 105.984375ZM411.40625 103.890625Q411.40625 102.15625 412.35938 101.328125Q413.15625 100.640625 414.3125 100.640625Q415.59375 100.640625 416.40625 101.484375Q417.23438 102.3125 417.23438 103.796875Q417.23438 105.0 416.875 105.6875Q416.51562 106.375 415.8125 106.765625Q415.125 107.140625 414.3125 107.140625Q413.01562 107.140625 412.20312 106.3125Q411.40625 105.46875 411.40625 103.890625ZM412.48438 103.890625Q412.48438 105.078125 413.0 105.671875Q413.53125 106.265625 414.3125 106.265625Q415.10938 106.265625 415.625 105.671875Q416.14062 105.078125 416.14062 103.859375Q416.14062 102.703125 415.60938 102.109375Q415.09375 101.515625 414.3125 101.515625Q413.53125 101.515625 413.0 102.109375Q412.48438 102.6875 412.48438 103.890625ZM422.85938 104.71875L423.89062 104.859375Q423.71875 105.921875 423.01562 106.53125Q422.3125 107.140625 421.29688 107.140625Q420.01562 107.140625 419.23438 106.3125Q418.46875 105.46875 418.46875 103.90625Q418.46875 102.90625 418.79688 102.15625Q419.14062 101.390625 419.8125 101.015625Q420.5 100.640625 421.3125 100.640625Q422.3125 100.640625 422.95312 101.15625Q423.60938 101.65625 423.79688 102.609375L422.76562 102.765625Q422.625 102.140625 422.25 101.828125Q421.875 101.5 421.34375 101.5Q420.54688 101.5 420.04688 102.078125Q419.54688 102.640625 419.54688 103.875Q419.54688 105.140625 420.03125 105.703125Q420.51562 106.265625 421.28125 106.265625Q421.90625 106.265625 422.3125 105.890625Q422.73438 105.515625 422.85938 104.71875ZM424.79688 107.0L424.79688 98.40625L425.85938 98.40625L425.85938 103.3125L428.34375 100.78125L429.71875 100.78125L427.32812 103.078125L429.95312 107.0L428.65625 107.0L426.59375 103.8125L425.85938 104.53125L425.85938 107.0L424.79688 107.0ZM435.04688 105.0L436.14062 105.125Q435.89062 106.078125 435.1875 106.609375Q434.48438 107.140625 433.40625 107.140625Q432.04688 107.140625 431.23438 106.296875Q430.4375 105.453125 430.4375 103.9375Q430.4375 102.375 431.25 101.515625Q432.0625 100.640625 433.34375 100.640625Q434.59375 100.640625 435.375 101.484375Q436.17188 102.328125 436.17188 103.875Q436.17188 103.96875 436.17188 104.15625L431.53125 104.15625Q431.59375 105.1875 432.10938 105.734375Q432.625 106.265625 433.40625 106.265625Q433.98438 106.265625 434.39062 105.96875Q434.8125 105.65625 435.04688 105.0ZM431.59375 103.296875L435.0625 103.296875Q435.0 102.5 434.67188 102.109375Q434.15625 101.5 433.35938 101.5Q432.625 101.5 432.125 101.984375Q431.64062 102.46875 431.59375 103.296875ZM437.78125 107.0L437.78125 100.78125L438.73438 100.78125L438.73438 101.71875Q439.09375 101.0625 439.39062 100.859375Q439.70312 100.640625 440.07812 100.640625Q440.60938 100.640625 441.15625 100.96875L440.79688 101.953125Q440.40625 101.71875 440.03125 101.71875Q439.67188 101.71875 439.39062 101.9375Q439.125 102.140625 439.01562 102.515625Q438.82812 103.078125 438.82812 103.734375L438.82812 107.0L437.78125 107.0ZM442.04688 107.0L442.04688 101.59375L441.10938 101.59375L441.10938 100.78125L442.04688 100.78125L442.04688 100.109375Q442.04688 99.484375 442.15625 99.1875Q442.3125 98.765625 442.6875 98.515625Q443.07812 98.265625 443.76562 98.265625Q444.21875 98.265625 444.75 98.375L444.59375 99.28125Q444.26562 99.234375 443.96875 99.234375Q443.48438 99.234375 443.28125 99.4375Q443.09375 99.640625 443.09375 100.203125L443.09375 100.78125L444.3125 100.78125L444.3125 101.59375L443.09375 101.59375L443.09375 107.0L442.04688 107.0ZM444.79688 99.625L444.79688 98.40625L445.85938 98.40625L445.85938 99.625L444.79688 99.625ZM444.79688 107.0L444.79688 100.78125L445.85938 100.78125L445.85938 107.0L444.79688 107.0ZM447.76562 107.0L447.76562 98.40625L448.82812 98.40625L448.82812 107.0L447.76562 107.0ZM455.04688 105.0L456.14062 105.125Q455.89062 106.078125 455.1875 106.609375Q454.48438 107.140625 453.40625 107.140625Q452.04688 107.140625 451.23438 106.296875Q450.4375 105.453125 450.4375 103.9375Q450.4375 102.375 451.25 101.515625Q452.0625 100.640625 453.34375 100.640625Q454.59375 100.640625 455.375 101.484375Q456.17188 102.328125 456.17188 103.875Q456.17188 103.96875 456.17188 104.15625L451.53125 104.15625Q451.59375 105.1875 452.10938 105.734375Q452.625 106.265625 453.40625 106.265625Q453.98438 106.265625 454.39062 105.96875Q454.8125 105.65625 455.04688 105.0ZM451.59375 103.296875L455.0625 103.296875Q455.0 102.5 454.67188 102.109375Q454.15625 101.5 453.35938 101.5Q452.625 101.5 452.125 101.984375Q451.64062 102.46875 451.59375 103.296875Z" fill-rule="nonzero"/></svg>