<svg version="1.1" viewBox="0.0 0.0 422.46456692913387 493.2782152230971" fill="none" stroke="none" stroke-linecap="square" stroke-miterlimit="10" xmlns:xlink="http://www.w3.org/1999/xlink" xmlns="http://www.w3.org/2000/svg"><clipPath id="p.0"><path d="m0 0l422.46457 0l0 493.27823l-422.46457 0l0 -493.27823z" clip-rule="nonzero"/></clipPath><g clip-path="url(#p.0)"><path fill="#000000" fill-opacity="0.0" d="m0 0l422.46457 0l0 493.27823l-422.46457 0z" fill-rule="evenodd"/><path fill="#4a86e8" d="m31.656168 142.07086l359.14963 0l0 240.8819l-359.14963 0z" fill-rule="evenodd"/><path fill="#4a86e8" d="m78.28869 96.902855l72.8189 0l0 45.16535l-72.8189 0z" fill-rule="evenodd"/><path fill="#cfe2f3" d="m48.177166 159.85957l325.19687 0l0 205.29134l-325.19687 0z" fill-rule="evenodd"/><path fill="#000000" fill-opacity="0.0" d="m84.03543 209.16667l64.346466 0" fill-rule="evenodd"/><path stroke="#4a86e8" stroke-width="16.0" stroke-linejoin="round" stroke-linecap="butt" d="m84.03543 209.16667l64.346466 0" fill-rule="evenodd"/><path fill="#4a86e8" d="m274.45633 96.902855l72.81891 0l0 45.16535l-72.81891 0z" fill-rule="evenodd"/><path fill="#000000" fill-opacity="0.0" d="m280.2031 209.16667l64.346436 0" fill-rule="evenodd"/><path stroke="#4a86e8" stroke-width="16.0" stroke-linejoin="round" stroke-linecap="butt" d="m280.2031 209.16667l64.346436 0" fill-rule="evenodd"/><path fill="#000000" fill-opacity="0.0" d="m312.3763 176.99344l0 64.34645" fill-rule="evenodd"/><path stroke="#4a86e8" stroke-width="16.0" stroke-linejoin="round" stroke-linecap="butt" d="m312.3763 176.99344l0 64.34645" fill-rule="evenodd"/><path fill="#ff9900" d="m48.17848 273.74014l325.19687 0l0 91.40158l-325.19687 0z" fill-rule="evenodd"/></g></svg>