<svg version="1.1" viewBox="0.0 0.0 422.46456692913387 493.2782152230971" fill="none" stroke="none" stroke-linecap="square" stroke-miterlimit="10" xmlns:xlink="http://www.w3.org/1999/xlink" xmlns="http://www.w3.org/2000/svg"><clipPath id="p.0"><path d="m0 0l422.46457 0l0 493.27823l-422.46457 0l0 -493.27823z" clip-rule="nonzero"/></clipPath><g clip-path="url(#p.0)"><path fill="#000000" fill-opacity="0.0" d="m0 0l422.46457 0l0 493.27823l-422.46457 0z" fill-rule="evenodd"/><path fill="#f1c232" d="m137.23215 269.51837l148.0 0l0 162.04724l-148.0 0z" fill-rule="evenodd"/><path stroke="#f1c232" stroke-width="12.0" stroke-linejoin="round" stroke-linecap="butt" d="m137.23215 269.51837l148.0 0l0 162.04724l-148.0 0z" fill-rule="evenodd"/><path fill="#ffff00" d="m76.82298 196.12204l0 0c0 -74.232285 60.177155 -134.40944 134.40944 -134.40944l0 0c35.647614 0 69.835175 14.1609535 95.04184 39.36762c25.206665 25.206657 39.367615 59.394226 39.367615 95.041824l0 0c0 74.2323 -60.177155 134.40945 -134.40945 134.40945l0 0c-74.232285 0 -134.40944 -60.177155 -134.40944 -134.40945z" fill-rule="evenodd"/><path stroke="#f1c232" stroke-width="12.0" stroke-linejoin="round" stroke-linecap="butt" d="m76.82298 196.12204l0 0c0 -74.232285 60.177155 -134.40944 134.40944 -134.40944l0 0c35.647614 0 69.835175 14.1609535 95.04184 39.36762c25.206665 25.206657 39.367615 59.394226 39.367615 95.041824l0 0c0 74.2323 -60.177155 134.40945 -134.40945 134.40945l0 0c-74.232285 0 -134.40944 -60.177155 -134.40944 -134.40945z" fill-rule="evenodd"/><path fill="#000000" fill-opacity="0.0" d="m166.06693 368.30316l90.33072 0" fill-rule="evenodd"/><path stroke="#ffffff" stroke-width="16.0" stroke-linejoin="round" stroke-linecap="butt" d="m166.06693 368.30316l90.33072 0" fill-rule="evenodd"/><path fill="#000000" fill-opacity="0.0" d="m166.06693 400.30316l90.33072 0" fill-rule="evenodd"/><path stroke="#ffffff" stroke-width="16.0" stroke-linejoin="round" stroke-linecap="butt" d="m166.06693 400.30316l90.33072 0" fill-rule="evenodd"/></g></svg>