<svg version="1.1" viewBox="0.0 0.0 422.46456692913387 493.2782152230971" fill="none" stroke="none" stroke-linecap="square" stroke-miterlimit="10" xmlns:xlink="http://www.w3.org/1999/xlink" xmlns="http://www.w3.org/2000/svg"><clipPath id="p.0"><path d="m0 0l422.46457 0l0 493.27823l-422.46457 0l0 -493.27823z" clip-rule="nonzero"/></clipPath><g clip-path="url(#p.0)"><path fill="#000000" fill-opacity="0.0" d="m0 0l422.46457 0l0 493.27823l-422.46457 0z" fill-rule="evenodd"/><path fill="#415d85" d="m21.794584 348.15747l207.98875 -319.09506l172.58943 64.615326l-52.735657 377.2199z" fill-rule="evenodd"/><path stroke="#ffffff" stroke-width="8.0" stroke-linejoin="round" stroke-linecap="butt" d="m21.794584 348.15747l207.98875 -319.09506l172.58943 64.615326l-52.735657 377.2199z" fill-rule="evenodd"/><path fill="#000000" fill-opacity="0.0" d="m317.2749 62.440937l-131.55905 347.0866" fill-rule="evenodd"/><path stroke="#ffffff" stroke-width="4.0" stroke-linejoin="round" stroke-linecap="butt" d="m317.2749 62.440937l-131.55905 347.0866" fill-rule="evenodd"/><path fill="#000000" fill-opacity="0.0" d="m363.04916 79.24671l-90.39368 363.02362" fill-rule="evenodd"/><path stroke="#ffffff" stroke-width="4.0" stroke-linejoin="round" stroke-linecap="butt" d="m363.04916 79.24671l-90.39368 363.02362" fill-rule="evenodd"/><path fill="#000000" fill-opacity="0.0" d="m272.2021 46.354332l-165.79526 333.76376" fill-rule="evenodd"/><path stroke="#ffffff" stroke-width="4.0" stroke-linejoin="round" stroke-linecap="butt" d="m272.2021 46.354332l-165.79526 333.76376" fill-rule="evenodd"/><path fill="#000000" fill-opacity="0.0" d="m125.78896 188.60994l250.20471 93.6693" fill-rule="evenodd"/><path stroke="#ffffff" stroke-width="4.0" stroke-linejoin="round" stroke-linecap="butt" d="m125.78896 188.60994l250.20471 93.6693" fill-rule="evenodd"/><path fill="#000000" fill-opacity="0.0" d="m182.87927 102.68241l207.62204 77.25985" fill-rule="evenodd"/><path stroke="#ffffff" stroke-width="4.0" stroke-linejoin="round" stroke-linecap="butt" d="m182.87927 102.68241l207.62204 77.25985" fill-rule="evenodd"/><path fill="#000000" fill-opacity="0.0" d="m73.44095 268.44882l290.4882 114.2677" fill-rule="evenodd"/><path stroke="#ffffff" stroke-width="4.0" stroke-linejoin="round" stroke-linecap="butt" d="m73.44095 268.44882l290.4882 114.2677" fill-rule="evenodd"/></g></svg>