<?xml version="1.0" encoding="UTF-8" standalone="no"?>
<svg
   height="24px"
   viewBox="0 -960 960 960"
   width="24px"
   fill="#000000"
   version="1.1"
   id="svg1"
   sodipodi:docname="lightbulb-on.svg"
   inkscape:version="1.4 (e7c3feb1, 2024-10-09)"
   xmlns:inkscape="http://www.inkscape.org/namespaces/inkscape"
   xmlns:sodipodi="http://sodipodi.sourceforge.net/DTD/sodipodi-0.dtd"
   xmlns="http://www.w3.org/2000/svg"
   xmlns:svg="http://www.w3.org/2000/svg">
  <defs
     id="defs1" />
  <sodipodi:namedview
     id="namedview1"
     pagecolor="#ffffff"
     bordercolor="#000000"
     borderopacity="0.25"
     inkscape:showpageshadow="2"
     inkscape:pageopacity="0.0"
     inkscape:pagecheckerboard="0"
     inkscape:deskcolor="#d1d1d1"
     inkscape:zoom="42.041667"
     inkscape:cx="12"
     inkscape:cy="12"
     inkscape:window-width="1200"
     inkscape:window-height="1186"
     inkscape:window-x="814"
     inkscape:window-y="85"
     inkscape:window-maximized="0"
     inkscape:current-layer="svg1" />
  <path
     d="M400-240q-33 0-56.5-23.5T320-320v-50q-57-39-88.5-100T200-600q0-117 81.5-198.5T480-880q117 0 198.5 81.5T760-600q0 69-31.5 129.5T640-370v50q0 33-23.5 56.5T560-240H400Zm0-80h160v-92l34-24q41-28 63.5-71.5T680-600q0-83-58.5-141.5T480-800q-83 0-141.5 58.5T280-600q0 49 22.5 92.5T366-436l34 24v92Zm0 240q-17 0-28.5-11.5T360-120v-40h240v40q0 17-11.5 28.5T560-80H400Zm80-520Z"
     id="path1" />
  <ellipse
     style="fill:#ffff00;stroke-width:37.5103"
     id="path2"
     cx="480.95145"
     cy="-597.5025"
     rx="212.64618"
     ry="208.36473" />
  <rect
     style="fill:#ffff00;stroke-width:40"
     id="rect3"
     width="159.84143"
     height="82.775024"
     x="400.55499"
     y="-402.45792" />
</svg>
